{
.appVersion = "908";
copyright = "Copyright © 2016 by Vernon Adams. All rights reserved.";
customParameters = (
{
name = note;
value = "";
},
{
name = openTypeNameCompatibleFullName;
value = Pacifico;
},
{
name = description;
value = "Copyright (c) 2011 by vernon adams. All rights reserved.";
},
{
name = trademark;
value = "Pacifico is a trademark of vernon adams.";
}
);
date = "2016-07-11 09:12:30 +0000";
designer = "Vernon Adams";
familyName = Pacifico_new;
featurePrefixes = (
{
automatic = 1;
code = "languagesystem DFLT dflt;\012";
name = Languagesystems;
}
);
features = (
{
automatic = 1;
code = "feature frac;\012feature ordn;\012feature init;\012feature fina;\012feature sups;\012";
name = aalt;
},
{
automatic = 1;
code = "sub one by onesuperior;\012sub two by twosuperior;\012sub three by threesuperior;\012sub four by foursuperior;\012";
name = sups;
},
{
automatic = 1;
code = "sub one slash four by onequarter;\012sub one slash two by onehalf;\012sub three slash four by threequarters;\012";
name = frac;
},
{
automatic = 1;
code = "sub [zero one two three four five six seven eight nine] [A a]' by ordfeminine;\012sub [zero one two three four five six seven eight nine] [O o]' by ordmasculine;\012";
name = ordn;
},
{
automatic = 1;
code = "sub f by f.init;\012sub p by p.init;\012sub s by s.init;\012sub t by t.init;\012";
name = init;
},
{
automatic = 1;
code = "sub a by a.fina;\012sub b by b.fina;\012sub c by c.fina;\012sub d by d.fina;\012sub e by e.fina;\012sub f by f.fina;\012sub g by g.fina;\012sub h by h.fina;\012sub l by l.fina;\012sub m by m.fina;\012sub n by n.fina;\012sub o by o.fina;\012sub p by p.fina;\012sub s by s.fina;\012sub t by t.fina;\012sub w by w.fina;\012sub y by y.fina;\012sub f_f by f_f.fina;\012";
name = fina;
},
{
automatic = 1;

glyphs = (
{
glyphname = A;
lastChange = "2016-07-11 09:12:57 +0000";
layers = (
{
layerId = "661C2B86-736D-4514-95EC-07E90A3E9BAC";
paths = (
{
closed = 1;
nodes = (
"146 156 CURVE SMOOTH",
"146 96 OFFCURVE",
"168 55 OFFCURVE",
"226 55 CURVE SMOOTH",
"329 55 OFFCURVE",
"389 173 OFFCURVE",
"411 255 CURVE SMOOTH",
"482 519 LINE",
"468 523 OFFCURVE",
"450 525 OFFCURVE",
"433 525 CURVE SMOOTH",
"337 525 OFFCURVE",
"275 447 OFFCURVE",
"234 389 CURVE SMOOTH",
"192 329 OFFCURVE",
"146 251 OFFCURVE"
);
},
{
closed = 1;
nodes = (
"486 118 CURVE SMOOTH",
"486 107 LINE SMOOTH",
"486 94 OFFCURVE",
"487 81 OFFCURVE",
"499 81 CURVE SMOOTH",
"546 81 OFFCURVE",
"593 125 OFFCURVE",
"627 143 CURVE",
"644 77 LINE",
"607 38 OFFCURVE",
"544 -11 OFFCURVE",
"472 -11 CURVE SMOOTH",
"424 -11 OFFCURVE",
"409 30 OFFCURVE",
"409 81 CURVE SMOOTH",
"409 100 OFFCURVE",
"412 118 OFFCURVE",
"415 136 CURVE",
"378 61 OFFCURVE",
"313 -22 OFFCURVE",
"206 -22 CURVE SMOOTH",
"105 -22 OFFCURVE",
"48 51 OFFCURVE",
"48 154 CURVE SMOOTH",
"48 307 OFFCURVE",
"135 425 OFFCURVE",
"219 499 CURVE SMOOTH",
"274 547 OFFCURVE",
"346 591 OFFCURVE",
"445 591 CURVE SMOOTH",
"462 591 OFFCURVE",
"480 588 OFFCURVE",
"480 573 CURVE SMOOTH",
"480 571 OFFCURVE",
"479 569 OFFCURVE",
"479 567 CURVE SMOOTH",
"479 566 LINE",
"511 547 OFFCURVE",
"547 567 OFFCURVE",
"558 519 CURVE SMOOTH",
"561 509 OFFCURVE",
"562 495 OFFCURVE",
"562 477 CURVE SMOOTH",
"562 364 OFFCURVE",
"515 266 OFFCURVE",
"489 173 CURVE",
"487 153 OFFCURVE",
"486 138 OFFCURVE"
);
}
);
width = 565;
}
);
unicode = 0041;
userData = {
com.fontlab.hintData = {
hhints = (
{
position = -64;
width = 224;
},
{
position = 1536;
width = 192;
}
);
vhints = (
{
position = 140;
width = 288;
},
{
position = 1196;
width = 227;
}
);
};
};
},
{
glyphname = AE;
lastChange = "2016-07-11 09:12:57 +0000";
layers = (
{
layerId = "661C2B86-736D-4514-95EC-07E90A3E9BAC";
paths = (
{
closed = 1;
nodes = (
"142 156 CURVE SMOOTH",
"142 96 OFFCURVE",
"164 55 OFFCURVE",
"221 55 CURVE SMOOTH",
"332 55 OFFCURVE",
"403 222 OFFCURVE",
"427 306 CURVE SMOOTH",
"479 487 LINE",
"384 487 OFFCURVE",
"310 435 OFFCURVE",
"257 387 CURVE SMOOTH",
"200 335 OFFCURVE",
"142 260 OFFCURVE"
);
},
{
closed = 1;
nodes = (
"493 133 CURVE SMOOTH",
"493 71 OFFCURVE",
"527 44 OFFCURVE",
"589 44 CURVE SMOOTH",
"687 44 OFFCURVE",
"775 86 OFFCURVE",
"829 134 CURVE SMOOTH",
"840 144 OFFCURVE",
"848 153 OFFCURVE",
"854 163 CURVE",
"878 85 LINE",
"816 19 OFFCURVE",
"715 -33 OFFCURVE",
"591 -33 CURVE SMOOTH",
"492 -33 OFFCURVE",
"415 14 OFFCURVE",
"415 112 CURVE SMOOTH",
"415 118 OFFCURVE",
"415 125 OFFCURVE",
"416 131 CURVE",
"380 72 OFFCURVE",
"324 17 OFFCURVE",
"258 -10 CURVE SMOOTH",
"238 -18 OFFCURVE",
"219 -22 OFFCURVE",
"202 -22 CURVE SMOOTH",
"101 -22 OFFCURVE",
"44 51 OFFCURVE",
"44 154 CURVE SMOOTH",
"44 270 OFFCURVE",
"105 358 OFFCURVE",
"165 421 CURVE SMOOTH",
"231 490 OFFCURVE",
"326 553 OFFCURVE",
"457 553 CURVE SMOOTH",
"489 553 OFFCURVE",
"523 540 OFFCURVE",
"523 508 CURVE SMOOTH",
"523 505 OFFCURVE",
"523 502 OFFCURVE",
"522 498 CURVE",
"548 543 OFFCURVE",
"585 580 OFFCURVE",
"652 580 CURVE SMOOTH",
"732 580 OFFCURVE",
"793 543 OFFCURVE",
"857 524 CURVE",
"863 520 OFFCURVE",
"867 512 OFFCURVE",
"867 502 CURVE SMOOTH",
"867 483 OFFCURVE",
"856 455 OFFCURVE",
"838 455 CURVE SMOOTH",
"826 455 OFFCURVE",
"813 468 OFFCURVE",
"800 475 CURVE SMOOTH",
"763 494 OFFCURVE",
"712 514 OFFCURVE",
"658 514 CURVE SMOOTH",
"572 514 OFFCURVE",
"525 411 OFFCURVE",
"525 328 CURVE",
"580 333 OFFCURVE",
"632 339 OFFCURVE",
"689 339 CURVE SMOOTH",
"708 339 OFFCURVE",
"720 327 OFFCURVE",
"720 310 CURVE SMOOTH",
"720 287 OFFCURVE",
"702 273 OFFCURVE",
"678 273 CURVE SMOOTH",
"626 273 OFFCURVE",
"566 263 OFFCURVE",
"514 263 CURVE",
"501 227 OFFCURVE",
"493 183 OFFCURVE"
);
}
);
width = 788;
}
);
unicode = 00C6;
userData = {
com.fontlab.hintData = {
hhints = (
{
position = -96;
width = 224;
},
{
position = -64;
width = 224;
},
{
position = 800;
width = 192;
},
{
position = 1426;
width = 192;
},
{
position = 1504;
width = 192;
}
);
vhints = (
{
position = 128;
width = 288;
},
{
position = 1213;
width = 230;
}
);
};
};
},
{
glyphname = B;
lastChange = "2016-07-11 09:12:57 +0000";
layers = (
{
layerId = "661C2B86-736D-4514-95EC-07E90A3E9BAC";
paths = (
{
closed = 1;
nodes = (
"403 167 CURVE SMOOTH",
"403 275 OFFCURVE",
"229 212 OFFCURVE",
"229 305 CURVE SMOOTH",
"229 328 OFFCURVE",
"238 333 OFFCURVE",
"261 333 CURVE SMOOTH",
"281 333 OFFCURVE",
"295 331 OFFCURVE",
"314 331 CURVE SMOOTH",
"408 331 OFFCURVE",
"450 372 OFFCURVE",
"450 419 CURVE SMOOTH",
"450 476 OFFCURVE",
"384 541 OFFCURVE",
"266 541 CURVE SMOOTH",
"185 541 OFFCURVE",
"98 515 OFFCURVE",
"51 455 CURVE SMOOTH",
"30 428 OFFCURVE",
"12 374 OFFCURVE",
"-17 374 CURVE SMOOTH",
"-27 374 OFFCURVE",
"-32 386 OFFCURVE",
"-32 408 CURVE SMOOTH",
"-32 533 OFFCURVE",
"125 597 OFFCURVE",
"276 597 CURVE SMOOTH",
"439 597 OFFCURVE",
"536 501 OFFCURVE",
"536 416 CURVE SMOOTH",
"536 350 OFFCURVE",
"477 290 OFFCURVE",
"344 287 CURVE",
"426 287 OFFCURVE",
"479 236 OFFCURVE",
"479 155 CURVE SMOOTH",
"479 27 OFFCURVE",
"317 -30 OFFCURVE",
"193 -30 CURVE SMOOTH",
"116 -30 OFFCURVE",
"53 -8 OFFCURVE",
"53 32 CURVE",
"53 166 OFFCURVE",
"59 481 OFFCURVE",
"181 481 CURVE SMOOTH",
"198 481 OFFCURVE",
"212 472 OFFCURVE",
"223 453 CURVE",
"163 372 OFFCURVE",
"151 230 OFFCURVE",
"151 91 CURVE SMOOTH",
"151 55 OFFCURVE",
"184 39 OFFCURVE",
"225 39 CURVE SMOOTH",
"299 39 OFFCURVE",
"403 89 OFFCURVE"
);
}
);
width = 520;
}
);
unicode = 0042;
userData = {
com.fontlab.hintData = {
hhints = (
{
position = -87;
width = 200;
},
{
position = 841;
width = 126;
},
{
position = 1584;
width = 162;
}
);
vhints = (
{
position = 154;
width = 288;
},
{
position = 671;
width = 334;
},
{
position = 1178;
width = 224;
},
{
position = 1318;
width = 250;
}
);
};
};
},
{
glyphname = C;
lastChange = "2016-07-11 09:12:57 +0000";
layers = (
{
layerId = "661C2B86-736D-4514-95EC-07E90A3E9BAC";
paths = (
{
closed = 1;
nodes = (
"553 147 CURVE SMOOTH",
"554 149 OFFCURVE",
"554 151 OFFCURVE",
"554 153 CURVE SMOOTH",
"554 165 OFFCURVE",
"540 173 OFFCURVE",
"530 173 CURVE SMOOTH",
"526 173 OFFCURVE",
"522 172 OFFCURVE",
"518 169 CURVE SMOOTH",
"445 97 OFFCURVE",
"377 22 OFFCURVE",
"256 22 CURVE SMOOTH",
"171 22 OFFCURVE",
"131 79 OFFCURVE",
"131 172 CURVE SMOOTH",
"131 312 OFFCURVE",
"223 536 OFFCURVE",
"372 536 CURVE SMOOTH",
"421 536 OFFCURVE",
"448 508 OFFCURVE",
"448 459 CURVE SMOOTH",
"448 388 OFFCURVE",
"393 328 OFFCURVE",
"323 328 CURVE SMOOTH",
"288 328 OFFCURVE",
"265 324 OFFCURVE",
"265 297 CURVE SMOOTH",
"265 259 OFFCURVE",
"285 252 OFFCURVE",
"328 252 CURVE SMOOTH",
"433 252 OFFCURVE",
"525 359 OFFCURVE",
"525 466 CURVE SMOOTH",
"525 553 OFFCURVE",
"469 613 OFFCURVE",
"384 613 CURVE SMOOTH",
"176 613 OFFCURVE",
"33 375 OFFCURVE",
"33 165 CURVE SMOOTH",
"33 3 OFFCURVE",
"126 -60 OFFCURVE",
"235 -60 CURVE SMOOTH",
"364 -60 OFFCURVE",
"514 29 OFFCURVE"
);
}
);
width = 506;
}
);
unicode = 0043;
userData = {
com.fontlab.hintData = {
hhints = (
{
position = -175;
width = 239;
},
{
position = 736;
width = 224;
},
{
position = 1568;
width = 224;
}
);
vhints = (
{
position = 96;
width = 288;
},
{
position = 1312;
width = 224;
}
);
};
};
},
{
glyphname = D;
lastChange = "2016-07-11 09:12:57 +0000";
layers = (
{
layerId = "661C2B86-736D-4514-95EC-07E90A3E9BAC";
paths = (
{
closed = 1;
nodes = (
"-14 388 CURVE SMOOTH",
"-32 388 OFFCURVE",
"-40 406 OFFCURVE",
"-40 420 CURVE SMOOTH",
"-40 452 OFFCURVE",
"-14 496 OFFCURVE",
"-9 502 CURVE SMOOTH",
"41 562 OFFCURVE",
"105 593 OFFCURVE",
"198 593 CURVE SMOOTH",
"372 593 OFFCURVE",
"492 522 OFFCURVE",
"492 351 CURVE SMOOTH",
"492 178 OFFCURVE",
"400 43 OFFCURVE",
"274 -5 CURVE SMOOTH",
"246 -15 OFFCURVE",
"217 -21 OFFCURVE",
"185 -21 CURVE SMOOTH",
"139 -21 OFFCURVE",
"97 -6 OFFCURVE",
"66 8 CURVE SMOOTH",
"55 13 OFFCURVE",
"53 17 OFFCURVE",
"53 32 CURVE SMOOTH",
"53 202 OFFCURVE",
"68 363 OFFCURVE",
"137 465 CURVE",
"153 476 OFFCURVE",
"168 481 OFFCURVE",
"181 481 CURVE SMOOTH",
"198 481 OFFCURVE",
"212 472 OFFCURVE",
"223 453 CURVE",
"166 376 OFFCURVE",
"142 213 OFFCURVE",
"142 88 CURVE SMOOTH",
"142 58 OFFCURVE",
"144 44 OFFCURVE",
"174 44 CURVE SMOOTH",
"305 44 OFFCURVE",
"376 172 OFFCURVE",
"400 278 CURVE SMOOTH",
"405 301 OFFCURVE",
"408 323 OFFCURVE",
"408 345 CURVE SMOOTH",
"408 457 OFFCURVE",
"324 515 OFFCURVE",
"202 515 CURVE SMOOTH",
"156 515 OFFCURVE",
"96 502 OFFCURVE",
"51 455 CURVE SMOOTH",
"33 436 OFFCURVE",
"8 388 OFFCURVE"
);
}
);
width = 489;
}
);
unicode = 0044;
userData = {
com.fontlab.hintData = {
hhints = (
{
position = -60;
width = 188;
},
{
position = 1507;
width = 229;
}
);
vhints = (
{
position = 154;
width = 260;
},
{
position = 1194;
width = 244;
}
);
};
};
},
{
glyphname = Eth;
lastChange = "2016-07-11 09:12:57 +0000";
layers = (
{
layerId = "661C2B86-736D-4514-95EC-07E90A3E9BAC";
paths = (
{
closed = 1;
nodes = (
"131 88 CURVE SMOOTH",
"131 58 OFFCURVE",
"134 44 OFFCURVE",
"164 44 CURVE SMOOTH",
"300 44 OFFCURVE",
"372 183 OFFCURVE",
"396 294 CURVE SMOOTH",
"402 319 OFFCURVE",
"405 342 OFFCURVE",
"405 365 CURVE SMOOTH",
"405 444 OFFCURVE",
"363 514 OFFCURVE",
"287 514 CURVE SMOOTH",
"213 514 OFFCURVE",
"185 400 OFFCURVE",
"169 339 CURVE",
"255 339 LINE SMOOTH",
"271 339 OFFCURVE",
"285 333 OFFCURVE",
"285 317 CURVE SMOOTH",
"285 287 OFFCURVE",
"267 273 OFFCURVE",
"237 273 CURVE SMOOTH",
"154 273 LINE",
"143 216 OFFCURVE",
"131 152 OFFCURVE"
);
},
{
closed = 1;
nodes = (
"11 304 CURVE SMOOTH",
"11 327 OFFCURVE",
"23 339 OFFCURVE",
"47 339 CURVE SMOOTH",
"75 339 LINE",
"97 422 OFFCURVE",
"128 508 OFFCURVE",
"180 558 CURVE SMOOTH",
"206 583 OFFCURVE",
"231 591 OFFCURVE",
"277 591 CURVE SMOOTH",
"415 591 OFFCURVE",
"481 489 OFFCURVE",
"481 351 CURVE SMOOTH",
"481 178 OFFCURVE",
"390 43 OFFCURVE",
"264 -5 CURVE SMOOTH",
"236 -15 OFFCURVE",
"207 -21 OFFCURVE",
"175 -21 CURVE SMOOTH",
"129 -21 OFFCURVE",
"87 -6 OFFCURVE",
"55 8 CURVE SMOOTH",
"44 13 OFFCURVE",
"33 17 OFFCURVE",
"33 32 CURVE SMOOTH",
"33 119 OFFCURVE",
"44 199 OFFCURVE",
"59 273 CURVE",
"41 273 LINE SMOOTH",
"21 273 OFFCURVE",
"11 285 OFFCURVE"
);
}
);
width = 435;
}
);
unicode = 00D0;
userData = {
com.fontlab.hintData = {
hhints = (
{
position = -60;
width = 188;
},
{
position = 800;
width = 192;
},
{
position = 1504;
width = 224;
}
);
vhints = (
{
position = 96;
width = 288;
},
{
position = 174;
width = 276;
},
{
position = 219;
width = 275;
},
{
position = 1184;
width = 224;
}
);
};
};
},
{
glyphname = E;
lastChange = "2016-07-11 09:12:57 +0000";
layers = (
{
layerId = "661C2B86-736D-4514-95EC-07E90A3E9BAC";
paths = (
{
closed = 1;
nodes = (
"120 133 CURVE SMOOTH",
"120 68 OFFCURVE",
"156 39 OFFCURVE",
"220 39 CURVE SMOOTH",
"332 39 OFFCURVE",
"427 90 OFFCURVE",
"498 177 CURVE",
"535 217 OFFCURVE",
"534 113 OFFCURVE",
"522 99 CURVE",
"456 25 OFFCURVE",
"350 -33 OFFCURVE",
"218 -33 CURVE SMOOTH",
"108 -33 OFFCURVE",
"22 15 OFFCURVE",
"22 124 CURVE SMOOTH",
"22 245 OFFCURVE",
"116 300 OFFCURVE",
"238 303 CURVE",
"149 303 OFFCURVE",
"89 351 OFFCURVE",
"89 438 CURVE SMOOTH",
"89 548 OFFCURVE",
"203 590 OFFCURVE",
"312 590 CURVE SMOOTH",
"414 590 OFFCURVE",
"541 548 OFFCURVE",
"524 450 CURVE SMOOTH",
"519 419 OFFCURVE",
"481 384 OFFCURVE",
"450 384 CURVE SMOOTH",
"445 384 OFFCURVE",
"443 388 OFFCURVE",
"443 397 CURVE",
"458 470 LINE",
"424 498 OFFCURVE",
"354 513 OFFCURVE",
"294 513 CURVE SMOOTH",
"232 513 OFFCURVE",
"178 494 OFFCURVE",
"178 433 CURVE SMOOTH",
"178 345 OFFCURVE",
"290 366 OFFCURVE",
"337 325 CURVE SMOOTH",
"349 314 OFFCURVE",
"350 298 OFFCURVE",
"350 277 CURVE SMOOTH",
"350 251 OFFCURVE",
"342 241 OFFCURVE",
"315 241 CURVE SMOOTH",
"302 241 OFFCURVE",
"281 243 OFFCURVE",
"268 243 CURVE SMOOTH",
"193 243 OFFCURVE",
"120 207 OFFCURVE"
);
}
);
width = 504;
}
);
unicode = 0045;
userData = {
com.fontlab.hintData = {
hhints = (
{
position = -96;
width = 210;
},
{
position = 710;
width = 177;
},
{
position = 1501;
width = 225;
}
);
vhints = (
{
position = 64;
width = 288;
},
{
position = 260;
width = 262;
}
);
};
};
},
{
glyphname = F;
lastChange = "2016-07-11 09:12:57 +0000";
layers = (
{
layerId = "661C2B86-736D-4514-95EC-07E90A3E9BAC";
paths = (
{
closed = 1;
nodes = (
"407 621 CURVE SMOOTH",
"467 621 OFFCURVE",
"664 631 OFFCURVE",
"664 574 CURVE SMOOTH",
"664 552 OFFCURVE",
"654 533 OFFCURVE",
"632 533 CURVE SMOOTH",
"580 533 OFFCURVE",
"522 548 OFFCURVE",
"461 548 CURVE SMOOTH",
"434 548 OFFCURVE",
"408 545 OFFCURVE",
"383 541 CURVE",
"375 472 OFFCURVE",
"353 348 OFFCURVE",
"350 328 CURVE",
"459 328 LINE SMOOTH",
"479 328 OFFCURVE",
"481 314 OFFCURVE",
"481 295 CURVE SMOOTH",
"481 279 OFFCURVE",
"473 263 OFFCURVE",
"459 263 CURVE SMOOTH",
"420 263 OFFCURVE",
"376 256 OFFCURVE",
"336 256 CURVE",
"301 66 OFFCURVE",
"283 -68 OFFCURVE",
"120 -68 CURVE SMOOTH",
"79 -68 OFFCURVE",
"13 -56 OFFCURVE",
"13 -16 CURVE SMOOTH",
"13 6 OFFCURVE",
"28 33 OFFCURVE",
"51 33 CURVE SMOOTH",
"89 33 OFFCURVE",
"115 9 OFFCURVE",
"156 9 CURVE SMOOTH",
"216 9 OFFCURVE",
"237 194 OFFCURVE",
"247 256 CURVE",
"205 256 LINE SMOOTH",
"185 256 OFFCURVE",
"156 264 OFFCURVE",
"156 284 CURVE SMOOTH",
"156 314 OFFCURVE",
"240 319 OFFCURVE",
"264 322 CURVE",
"280 397 OFFCURVE",
"288 463 OFFCURVE",
"302 538 CURVE",
"176 525 OFFCURVE",
"131 486 OFFCURVE",
"131 414 CURVE SMOOTH",
"131 395 OFFCURVE",
"115 388 OFFCURVE",
"94 388 CURVE SMOOTH",
"65 388 OFFCURVE",
"39 389 OFFCURVE",
"39 416 CURVE SMOOTH",
"39 589 OFFCURVE",
"233 621 OFFCURVE"
);
}
);
width = 470;
}
);
unicode = 0046;
userData = {
com.fontlab.hintData = {
hhints = (
{
position = -198;
width = 224;
},
{
position = 749;
width = 193;
},
{
position = 768;
width = 192;
},
{
position = 1604;
width = 214;
}
);
vhints = (
{
position = 113;
width = 271;
}
);
};
};
},
{
glyphname = G;
lastChange = "2016-07-11 09:12:57 +0000";
layers = (
{
layerId = "661C2B86-736D-4514-95EC-07E90A3E9BAC";
paths = (
{
closed = 1;
nodes = (
"416 220 CURVE SMOOTH",
"492 220 OFFCURVE",
"525 192 OFFCURVE",
"525 117 CURVE SMOOTH",
"525 -40 OFFCURVE",
"485 -183 OFFCURVE",
"379 -235 CURVE SMOOTH",
"358 -246 OFFCURVE",
"332 -252 OFFCURVE",
"304 -252 CURVE SMOOTH",
"263 -252 OFFCURVE",
"197 -240 OFFCURVE",
"197 -200 CURVE SMOOTH",
"197 -178 OFFCURVE",
"212 -151 OFFCURVE",
"234 -151 CURVE SMOOTH",
"270 -151 OFFCURVE",
"290 -175 OFFCURVE",
"328 -175 CURVE SMOOTH",
"390 -175 OFFCURVE",
"421 -44 OFFCURVE",
"434 9 CURVE",
"385 -36 OFFCURVE",
"329 -66 OFFCURVE",
"234 -66 CURVE SMOOTH",
"108 -66 OFFCURVE",
"33 38 OFFCURVE",
"33 165 CURVE SMOOTH",
"33 339 OFFCURVE",
"118 463 OFFCURVE",
"223 535 CURVE SMOOTH",
"269 565 OFFCURVE",
"327 591 OFFCURVE",
"396 591 CURVE SMOOTH",
"482 591 OFFCURVE",
"525 537 OFFCURVE",
"525 450 CURVE SMOOTH",
"525 412 OFFCURVE",
"504 363 OFFCURVE",
"469 363 CURVE SMOOTH",
"448 363 OFFCURVE",
"436 386 OFFCURVE",
"436 407 CURVE SMOOTH",
"436 427 OFFCURVE",
"448 438 OFFCURVE",
"448 458 CURVE SMOOTH",
"448 497 OFFCURVE",
"431 527 OFFCURVE",
"396 527 CURVE SMOOTH",
"318 527 OFFCURVE",
"260 475 OFFCURVE",
"221 429 CURVE SMOOTH",
"169 366 OFFCURVE",
"131 277 OFFCURVE",
"131 161 CURVE SMOOTH",
"131 75 OFFCURVE",
"171 22 OFFCURVE",
"256 22 CURVE SMOOTH",
"334 22 OFFCURVE",
"392 45 OFFCURVE",
"441 77 CURVE",
"444 89 OFFCURVE",
"448 101 OFFCURVE",
"448 114 CURVE SMOOTH",
"448 138 OFFCURVE",
"437 144 OFFCURVE",
"414 144 CURVE SMOOTH",
"386 144 OFFCURVE",
"361 157 OFFCURVE",
"361 183 CURVE SMOOTH",
"361 210 OFFCURVE",
"388 220 OFFCURVE"
);
}
);
width = 525;
}
);
unicode = 0047;
userData = {
com.fontlab.hintData = {
hhints = (
{
position = -736;
width = 224;
},
{
position = -192;
width = 256;
},
{
position = 420;
width = 224;
},
{
position = 1541;
width = 189;
}
);
vhints = (
{
position = 96;
width = 288;
},
{
position = 1311;
width = 225;
}
);
};
};
},
{
glyphname = H;
lastChange = "2016-07-11 09:12:57 +0000";
layers = (
{
layerId = "661C2B86-736D-4514-95EC-07E90A3E9BAC";
paths = (
{
closed = 1;
nodes = (
"132 527 CURVE SMOOTH",
"124 527 OFFCURVE",
"86 460 OFFCURVE",
"66 460 CURVE SMOOTH",
"58 460 OFFCURVE",
"52 470 OFFCURVE",
"52 497 CURVE SMOOTH",
"52 560 OFFCURVE",
"102 592 OFFCURVE",
"157 592 CURVE SMOOTH",
"226 592 OFFCURVE",
"305 540 OFFCURVE",
"305 433 CURVE SMOOTH",
"305 391 OFFCURVE",
"290 347 OFFCURVE",
"277 310 CURVE",
"327 309 OFFCURVE",
"391 309 OFFCURVE",
"444 309 CURVE",
"468 388 OFFCURVE",
"497 472 OFFCURVE",
"527 547 CURVE SMOOTH",
"536 568 OFFCURVE",
"551 590 OFFCURVE",
"578 590 CURVE SMOOTH",
"601 590 OFFCURVE",
"615 577 OFFCURVE",
"615 555 CURVE SMOOTH",
"615 503 OFFCURVE",
"589 462 OFFCURVE",
"574 419 CURVE SMOOTH",
"562 385 OFFCURVE",
"549 349 OFFCURVE",
"538 314 CURVE",
"567 318 OFFCURVE",
"592 326 OFFCURVE",
"617 326 CURVE SMOOTH",
"636 326 OFFCURVE",
"646 317 OFFCURVE",
"646 291 CURVE SMOOTH",
"646 253 OFFCURVE",
"556 259 OFFCURVE",
"521 256 CURVE",
"500 182 OFFCURVE",
"486 127 OFFCURVE",
"486 94 CURVE SMOOTH",
"486 71 OFFCURVE",
"493 58 OFFCURVE",
"510 58 CURVE SMOOTH",
"595 58 OFFCURVE",
"646 120 OFFCURVE",
"692 167 CURVE SMOOTH",
"696 171 OFFCURVE",
"701 173 OFFCURVE",
"707 173 CURVE SMOOTH",
"719 173 OFFCURVE",
"732 163 OFFCURVE",
"732 144 CURVE SMOOTH",
"732 129 OFFCURVE",
"727 108 OFFCURVE",
"704 85 CURVE SMOOTH",
"659 39 OFFCURVE",
"583 -22 OFFCURVE",
"497 -22 CURVE SMOOTH",
"438 -22 OFFCURVE",
"394 14 OFFCURVE",
"394 74 CURVE SMOOTH",
"394 136 OFFCURVE",
"413 202 OFFCURVE",
"426 254 CURVE",
"367 251 OFFCURVE",
"313 247 OFFCURVE",
"255 244 CURVE",
"227 180 OFFCURVE",
"199 116 OFFCURVE",
"169 55 CURVE SMOOTH",
"149 16 OFFCURVE",
"121 -32 OFFCURVE",
"77 -32 CURVE SMOOTH",
"56 -32 OFFCURVE",
"30 -18 OFFCURVE",
"30 -2 CURVE SMOOTH",
"30 1 OFFCURVE",
"31 4 OFFCURVE",
"33 7 CURVE SMOOTH",
"74 66 OFFCURVE",
"123 137 OFFCURVE",
"158 241 CURVE",
"93 241 OFFCURVE",
"35 264 OFFCURVE",
"35 320 CURVE SMOOTH",
"35 329 OFFCURVE",
"39 335 OFFCURVE",
"46 335 CURVE SMOOTH",
"60 335 OFFCURVE",
"70 318 OFFCURVE",
"80 305 CURVE",
"103 306 OFFCURVE",
"123 307 OFFCURVE",
"147 307 CURVE SMOOTH",
"180 307 LINE",
"198 337 OFFCURVE",
"212 382 OFFCURVE",
"212 422 CURVE SMOOTH",
"212 479 OFFCURVE",
"191 527 OFFCURVE"
);
}
);
width = 658;
}
);
unicode = 0048;
userData = {
com.fontlab.hintData = {
hhints = (
{
position = -64;
width = 235;
},
{
position = 705;
width = 192;
},
{
position = 744;
width = 160;
},
{
position = 750;
width = 204;
},
{
position = 959;
width = 20;
},
{
position = 1543;
width = 190;
}
);
vhints = (
{
position = 619;
width = 272;
},
{
position = 1152;
width = 270;
}
);
};
};
},
{
glyphname = I;
lastChange = "2016-07-11 09:12:57 +0000";
layers = (
{
layerId = "661C2B86-736D-4514-95EC-07E90A3E9BAC";
paths = (
{
closed = 1;
nodes = (
"225 507 CURVE",
"184 503 OFFCURVE",
"152 495 OFFCURVE",
"121 479 CURVE",
"119 479 OFFCURVE",
"119 514 OFFCURVE",
"119 524 CURVE SMOOTH",
"119 582 OFFCURVE",
"253 591 OFFCURVE",
"316 591 CURVE SMOOTH",
"321 591 LINE SMOOTH",
"364 591 OFFCURVE",
"412 591 OFFCURVE",
"412 553 CURVE SMOOTH",
"412 516 OFFCURVE",
"379 513 OFFCURVE",
"340 513 CURVE SMOOTH",
"333 513 OFFCURVE",
"325 513 OFFCURVE",
"318 514 CURVE",
"278 360 OFFCURVE",
"247 207 OFFCURVE",
"206 54 CURVE",
"234 54 OFFCURVE",
"293 44 OFFCURVE",
"293 17 CURVE SMOOTH",
"293 8 OFFCURVE",
"285 -2 OFFCURVE",
"269 -11 CURVE",
"162 -11 LINE SMOOTH",
"153 -11 OFFCURVE",
"113 -11 OFFCURVE",
"73 -11 CURVE SMOOTH",
"28 -11 OFFCURVE",
"-17 -11 OFFCURVE",
"-17 -9 CURVE SMOOTH",
"-17 -6 OFFCURVE",
"-1 6 OFFCURVE",
"1 10 CURVE SMOOTH",
"9 21 OFFCURVE",
"3 28 OFFCURVE",
"18 36 CURVE SMOOTH",
"41 46 OFFCURVE",
"76 53 OFFCURVE",
"107 56 CURVE",
"143 208 OFFCURVE",
"175 367 OFFCURVE"
);
}
);
width = 336;
}
);
unicode = 0049;
userData = {
com.fontlab.hintData = {
hhints = (
{
position = -32;
width = 189;
},
{
position = 1501;
width = 229;
}
);
};
};
},
{
glyphname = J;
lastChange = "2016-07-11 09:12:57 +0000";
layers = (
{
layerId = "661C2B86-736D-4514-95EC-07E90A3E9BAC";
paths = (
{
closed = 1;
nodes = (
"272 606 CURVE SMOOTH",
"206 606 OFFCURVE",
"161 515 OFFCURVE",
"161 446 CURVE SMOOTH",
"161 358 OFFCURVE",
"231 316 OFFCURVE",
"324 248 CURVE",
"332 314 OFFCURVE",
"336 383 OFFCURVE",
"336 459 CURVE SMOOTH",
"336 522 OFFCURVE",
"329 606 OFFCURVE"
);
},
{
closed = 1;
nodes = (
"52 -109 CURVE SMOOTH",
"52 -148 OFFCURVE",
"66 -180 OFFCURVE",
"101 -180 CURVE SMOOTH",
"148 -180 OFFCURVE",
"184 -136 OFFCURVE",
"210 -99 CURVE",
"258 -30 OFFCURVE",
"292 61 OFFCURVE",
"314 166 CURVE",
"311 166 LINE SMOOTH",
"181 166 OFFCURVE",
"52 16 OFFCURVE"
);
},
{
closed = 1;
nodes = (
"91 -260 CURVE SMOOTH",
"1 -260 OFFCURVE",
"-36 -180 OFFCURVE",
"-36 -88 CURVE SMOOTH",
"-36 96 OFFCURVE",
"122 196 OFFCURVE",
"257 212 CURVE",
"184 259 OFFCURVE",
"74 330 OFFCURVE",
"74 438 CURVE SMOOTH",
"74 553 OFFCURVE",
"134 641 OFFCURVE",
"219 671 CURVE SMOOTH",
"234 676 OFFCURVE",
"250 679 OFFCURVE",
"265 679 CURVE SMOOTH",
"392 679 OFFCURVE",
"424 528 OFFCURVE",
"424 394 CURVE SMOOTH",
"424 321 OFFCURVE",
"419 254 OFFCURVE",
"408 192 CURVE",
"449 166 OFFCURVE",
"504 146 OFFCURVE",
"539 112 CURVE SMOOTH",
"542 109 OFFCURVE",
"543 107 OFFCURVE",
"543 105 CURVE SMOOTH",
"543 92 OFFCURVE",
"519 81 OFFCURVE",
"505 81 CURVE",
"465 82 OFFCURVE",
"428 103 OFFCURVE",
"393 123 CURVE",
"360 -20 OFFCURVE",
"301 -146 OFFCURVE",
"202 -219 CURVE",
"172 -241 OFFCURVE",
"136 -260 OFFCURVE"
);
}
);
width = 466;
}
);
unicode = 004A;
userData = {
com.fontlab.hintData = {
hhints = (
{
position = -760;
width = 233;
},
{
position = 1772;
width = 215;
}
);
vhints = (
{
position = -104;
width = 256;
},
{
position = 216;
width = 254;
},
{
position = 984;
width = 256;
}
);
};
};
},
{
glyphname = K;
lastChange = "2016-07-11 09:12:57 +0000";
layers = (
{
layerId = "661C2B86-736D-4514-95EC-07E90A3E9BAC";
paths = (
{
closed = 1;
nodes = (
"524 -22 CURVE SMOOTH",
"371 -22 OFFCURVE",
"337 178 OFFCURVE",
"310 260 CURVE",
"278 127 OFFCURVE",
"225 -22 OFFCURVE",
"73 -22 CURVE SMOOTH",
"41 -22 OFFCURVE",
"-33 -17 OFFCURVE",
"-33 12 CURVE SMOOTH",
"-33 33 OFFCURVE",
"-11 67 OFFCURVE",
"11 67 CURVE SMOOTH",
"27 67 OFFCURVE",
"42 55 OFFCURVE",
"61 55 CURVE SMOOTH",
"168 55 OFFCURVE",
"203 205 OFFCURVE",
"223 295 CURVE SMOOTH",
"238 361 OFFCURVE",
"248 435 OFFCURVE",
"256 508 CURVE",
"260 536 LINE",
"161 536 OFFCURVE",
"89 472 OFFCURVE",
"89 375 CURVE SMOOTH",
"89 356 OFFCURVE",
"67 350 OFFCURVE",
"46 350 CURVE SMOOTH",
"19 350 OFFCURVE",
"-10 355 OFFCURVE",
"-10 380 CURVE SMOOTH",
"-10 383 LINE SMOOTH",
"-10 534 OFFCURVE",
"155 591 OFFCURVE",
"306 591 CURVE SMOOTH",
"331 591 OFFCURVE",
"349 582 OFFCURVE",
"349 558 CURVE SMOOTH",
"349 482 OFFCURVE",
"340 408 OFFCURVE",
"324 339 CURVE",
"447 414 OFFCURVE",
"502 455 OFFCURVE",
"562 525 CURVE SMOOTH",
"590 558 OFFCURVE",
"599 583 OFFCURVE",
"624 583 CURVE SMOOTH",
"649 583 OFFCURVE",
"671 567 OFFCURVE",
"671 543 CURVE SMOOTH",
"671 531 OFFCURVE",
"664 516 OFFCURVE",
"660 506 CURVE SMOOTH",
"632 446 OFFCURVE",
"552 371 OFFCURVE",
"376 294 CURVE",
"431 189 OFFCURVE",
"465 53 OFFCURVE",
"541 53 CURVE SMOOTH",
"541 53 LINE SMOOTH",
"584 53 OFFCURVE",
"623 84 OFFCURVE",
"649 105 CURVE SMOOTH",
"657 110 OFFCURVE",
"663 113 OFFCURVE",
"668 113 CURVE SMOOTH",
"686 113 OFFCURVE",
"692 85 OFFCURVE",
"692 65 CURVE SMOOTH",
"692 55 OFFCURVE",
"691 46 OFFCURVE",
"689 44 CURVE SMOOTH",
"645 5 OFFCURVE",
"592 -22 OFFCURVE"
);
}
);
width = 643;
}
);
unicode = 004B;
userData = {
com.fontlab.hintData = {
hhints = (
{
position = -64;
width = 220;
},
{
position = 1568;
width = 160;
}
);
vhints = (
{
position = -28;
width = 288;
}
);
};
};
},
{
glyphname = L;
lastChange = "2016-07-11 09:12:57 +0000";
layers = (
{
layerId = "661C2B86-736D-4514-95EC-07E90A3E9BAC";
paths = (
{
closed = 1;
nodes = (
"353 559 CURVE SMOOTH",
"353 578 OFFCURVE",
"349 596 OFFCURVE",
"333 596 CURVE SMOOTH",
"311 596 OFFCURVE",
"290 570 OFFCURVE",
"277 552 CURVE SMOOTH",
"223 481 OFFCURVE",
"178 347 OFFCURVE",
"168 232 CURVE",
"230 296 OFFCURVE",
"302 402 OFFCURVE",
"339 490 CURVE SMOOTH",
"349 514 OFFCURVE",
"353 531 OFFCURVE"
);
},
{
closed = 1;
nodes = (
"-4 44 CURVE SMOOTH",
"-23 44 OFFCURVE",
"-35 70 OFFCURVE",
"-35 89 CURVE SMOOTH",
"-35 117 OFFCURVE",
"-5 126 OFFCURVE",
"14 138 CURVE SMOOTH",
"34 152 OFFCURVE",
"58 168 OFFCURVE",
"78 183 CURVE",
"98 358 OFFCURVE",
"152 532 OFFCURVE",
"255 622 CURVE SMOOTH",
"283 647 OFFCURVE",
"318 671 OFFCURVE",
"361 671 CURVE SMOOTH",
"417 671 OFFCURVE",
"439 624 OFFCURVE",
"439 567 CURVE SMOOTH",
"439 481 OFFCURVE",
"398 413 OFFCURVE",
"360 359 CURVE SMOOTH",
"310 287 OFFCURVE",
"238 192 OFFCURVE",
"162 146 CURVE",
"161 104 OFFCURVE",
"160 80 OFFCURVE",
"160 44 CURVE SMOOTH",
"160 31 OFFCURVE",
"176 26 OFFCURVE",
"197 26 CURVE SMOOTH",
"228 26 OFFCURVE",
"269 33 OFFCURVE",
"292 35 CURVE SMOOTH",
"403 48 LINE SMOOTH",
"406 48 OFFCURVE",
"409 49 OFFCURVE",
"413 49 CURVE SMOOTH",
"435 49 OFFCURVE",
"446 31 OFFCURVE",
"446 10 CURVE SMOOTH",
"446 -12 OFFCURVE",
"433 -28 OFFCURVE",
"414 -31 CURVE SMOOTH",
"337 -45 OFFCURVE",
"258 -58 OFFCURVE",
"156 -58 CURVE SMOOTH",
"93 -58 OFFCURVE",
"72 4 OFFCURVE",
"72 91 CURVE",
"53 77 OFFCURVE",
"36 65 OFFCURVE",
"22 57 CURVE SMOOTH",
"9 48 OFFCURVE",
"0 44 OFFCURVE"
);
}
);
width = 383;
}
);
unicode = 004C;
userData = {
com.fontlab.hintData = {
hhints = (
{
position = -170;
width = 246;
},
{
position = 1744;
width = 218;
}
);
vhints = (
{
position = 211;
width = 257;
},
{
position = 1033;
width = 251;
}
);
};
};
},
{
glyphname = Lslash;
lastChange = "2016-07-11 09:12:57 +0000";
layers = (
{
layerId = "661C2B86-736D-4514-95EC-07E90A3E9BAC";
paths = (
{
closed = 1;
nodes = (
"319 528 CURVE SMOOTH",
"319 548 OFFCURVE",
"315 565 OFFCURVE",
"299 565 CURVE SMOOTH",
"276 565 OFFCURVE",
"256 539 OFFCURVE",
"243 521 CURVE SMOOTH",
"212 481 OFFCURVE",
"187 430 OFFCURVE",
"169 373 CURVE",
"203 380 OFFCURVE",
"238 388 OFFCURVE",
"272 395 CURVE",
"285 416 OFFCURVE",
"296 438 OFFCURVE",
"305 460 CURVE SMOOTH",
"314 483 OFFCURVE",
"319 500 OFFCURVE"
);
},
{
closed = 1;
nodes = (
"-31 44 CURVE SMOOTH",
"-50 44 OFFCURVE",
"-62 70 OFFCURVE",
"-62 89 CURVE SMOOTH",
"-62 117 OFFCURVE",
"-32 126 OFFCURVE",
"-13 138 CURVE SMOOTH",
"7 152 OFFCURVE",
"30 168 OFFCURVE",
"50 183 CURVE",
"53 206 LINE",
"56 232 OFFCURVE",
"59 258 OFFCURVE",
"64 283 CURVE",
"48 280 OFFCURVE",
"32 276 OFFCURVE",
"16 273 CURVE SMOOTH",
"12 272 OFFCURVE",
"9 272 OFFCURVE",
"6 272 CURVE SMOOTH",
"-14 272 OFFCURVE",
"-26 291 OFFCURVE",
"-26 310 CURVE SMOOTH",
"-26 345 OFFCURVE",
"47 347 OFFCURVE",
"79 354 CURVE SMOOTH",
"80 354 OFFCURVE",
"80 354 OFFCURVE",
"81 354 CURVE",
"109 452 OFFCURVE",
"156 534 OFFCURVE",
"221 591 CURVE SMOOTH",
"249 616 OFFCURVE",
"283 640 OFFCURVE",
"327 640 CURVE SMOOTH",
"382 640 OFFCURVE",
"405 593 OFFCURVE",
"405 536 CURVE SMOOTH",
"405 493 OFFCURVE",
"394 454 OFFCURVE",
"379 419 CURVE",
"413 427 OFFCURVE",
"446 434 OFFCURVE",
"479 441 CURVE SMOOTH",
"482 442 OFFCURVE",
"486 443 OFFCURVE",
"490 443 CURVE SMOOTH",
"509 443 OFFCURVE",
"517 430 OFFCURVE",
"517 410 CURVE SMOOTH",
"517 367 OFFCURVE",
"440 365 OFFCURVE",
"401 357 CURVE SMOOTH",
"379 352 OFFCURVE",
"358 347 OFFCURVE",
"336 342 CURVE",
"332 338 OFFCURVE",
"329 333 OFFCURVE",
"326 328 CURVE SMOOTH",
"276 256 OFFCURVE",
"210 192 OFFCURVE",
"135 146 CURVE",
"134 121 OFFCURVE",
"133 106 OFFCURVE",
"133 85 CURVE SMOOTH",
"133 82 LINE SMOOTH",
"133 69 OFFCURVE",
"148 69 OFFCURVE",
"162 69 CURVE SMOOTH",
"165 69 LINE SMOOTH",
"175 69 OFFCURVE",
"189 71 OFFCURVE",
"206 76 CURVE SMOOTH",
"321 109 LINE SMOOTH",
"324 110 OFFCURVE",
"327 110 OFFCURVE",
"331 110 CURVE SMOOTH",
"353 110 OFFCURVE",
"364 93 OFFCURVE",
"364 71 CURVE SMOOTH",
"364 49 OFFCURVE",
"351 33 OFFCURVE",
"332 30 CURVE",
"273 7 OFFCURVE",
"208 -17 OFFCURVE",
"129 -17 CURVE SMOOTH",
"65 -17 OFFCURVE",
"45 28 OFFCURVE",
"45 91 CURVE",
"25 77 OFFCURVE",
"9 65 OFFCURVE",
"-5 57 CURVE SMOOTH",
"-19 48 OFFCURVE",
"-28 44 OFFCURVE"
);
},
{
closed = 1;
nodes = (
"150 301 CURVE",
"146 279 OFFCURVE",
"143 256 OFFCURVE",
"141 232 CURVE",
"166 258 OFFCURVE",
"192 286 OFFCURVE",
"216 316 CURVE",
"194 311 OFFCURVE",
"172 306 OFFCURVE"
);
}
);
width = 339;
}
);
unicode = 0141;
userData = {
com.fontlab.hintData = {
hhints = (
{
position = -50;
width = 251;
},
{
position = 795;
width = 240;
},
{
position = 1654;
width = 218;
}
);
vhints = (
{
position = 933;
width = 251;
}
);
};
};
},
{
glyphname = M;
lastChange = "2016-07-11 09:12:57 +0000";
layers = (
{
layerId = "661C2B86-736D-4514-95EC-07E90A3E9BAC";
paths = (
{
closed = 1;
nodes = (
"566 101 CURVE SMOOTH",
"566 226 OFFCURVE",
"618 331 OFFCURVE",
"618 453 CURVE SMOOTH",
"618 479 OFFCURVE",
"613 503 OFFCURVE",
"588 503 CURVE SMOOTH",
"509 503 OFFCURVE",
"421 126 OFFCURVE",
"406 35 CURVE SMOOTH",
"402 9 OFFCURVE",
"382 -2 OFFCURVE",
"363 -2 CURVE SMOOTH",
"341 -2 OFFCURVE",
"314 14 OFFCURVE",
"314 41 CURVE SMOOTH",
"314 44 OFFCURVE",
"314 46 OFFCURVE",
"314 49 CURVE SMOOTH",
"331 141 OFFCURVE",
"371 347 OFFCURVE",
"371 426 CURVE SMOOTH",
"371 460 OFFCURVE",
"370 504 OFFCURVE",
"342 504 CURVE SMOOTH",
"280 504 OFFCURVE",
"177 201 OFFCURVE",
"157 104 CURVE SMOOTH",
"147 55 OFFCURVE",
"139 0 OFFCURVE",
"94 0 CURVE SMOOTH",
"71 0 OFFCURVE",
"44 8 OFFCURVE",
"44 27 CURVE SMOOTH",
"44 64 OFFCURVE",
"69 156 OFFCURVE",
"79 219 CURVE SMOOTH",
"82 241 OFFCURVE",
"103 388 OFFCURVE",
"103 468 CURVE SMOOTH",
"103 498 OFFCURVE",
"100 519 OFFCURVE",
"92 519 CURVE SMOOTH",
"70 519 OFFCURVE",
"39 452 OFFCURVE",
"13 389 CURVE",
"12 386 OFFCURVE",
"9 385 OFFCURVE",
"5 385 CURVE SMOOTH",
"-12 385 OFFCURVE",
"-44 411 OFFCURVE",
"-44 433 CURVE SMOOTH",
"-44 437 OFFCURVE",
"-43 442 OFFCURVE",
"-41 447 CURVE SMOOTH",
"-10 525 OFFCURVE",
"44 582 OFFCURVE",
"102 582 CURVE SMOOTH",
"162 582 OFFCURVE",
"174 531 OFFCURVE",
"174 471 CURVE SMOOTH",
"174 433 OFFCURVE",
"174 395 OFFCURVE",
"173 359 CURVE",
"200 442 OFFCURVE",
"265 589 OFFCURVE",
"365 589 CURVE SMOOTH",
"420 589 OFFCURVE",
"449 542 OFFCURVE",
"449 492 CURVE SMOOTH",
"449 473 OFFCURVE",
"429 356 OFFCURVE",
"429 356 CURVE",
"454 457 OFFCURVE",
"504 591 OFFCURVE",
"622 591 CURVE SMOOTH",
"677 591 OFFCURVE",
"709 535 OFFCURVE",
"709 470 CURVE SMOOTH",
"709 459 OFFCURVE",
"708 448 OFFCURVE",
"706 437 CURVE SMOOTH",
"687 332 OFFCURVE",
"674 245 OFFCURVE",
"658 153 CURVE SMOOTH",
"655 138 OFFCURVE",
"654 125 OFFCURVE",
"654 115 CURVE SMOOTH",
"654 91 OFFCURVE",
"661 77 OFFCURVE",
"682 77 CURVE SMOOTH",
"717 77 OFFCURVE",
"745 108 OFFCURVE",
"763 127 CURVE SMOOTH",
"778 142 OFFCURVE",
"793 157 OFFCURVE",
"806 177 CURVE SMOOTH",
"815 190 OFFCURVE",
"823 198 OFFCURVE",
"830 198 CURVE SMOOTH",
"837 198 OFFCURVE",
"843 191 OFFCURVE",
"843 176 CURVE SMOOTH",
"843 162 OFFCURVE",
"839 139 OFFCURVE",
"822 110 CURVE SMOOTH",
"792 55 OFFCURVE",
"744 0 OFFCURVE",
"663 0 CURVE SMOOTH",
"605 0 OFFCURVE",
"566 41 OFFCURVE"
);
}
);
width = 752;
}
);
unicode = 004D;
userData = {
com.fontlab.hintData = {
hhints = (
{
position = 0;
width = 224;
},
{
position = 1472;
width = 258;
},
{
position = 1518;
width = 184;
}
);
vhints = (
{
position = 302;
width = 208;
},
{
position = 918;
width = 270;
},
{
position = 1085;
width = 230;
},
{
position = 1656;
width = 256;
},
{
position = 1808;
width = 265;
}
);
};
};
},
{
glyphname = N;
lastChange = "2016-07-11 09:12:57 +0000";
layers = (
{
layerId = "661C2B86-736D-4514-95EC-07E90A3E9BAC";
paths = (
{
closed = 1;
nodes = (
"414 454 CURVE SMOOTH",
"414 476 OFFCURVE",
"410 504 OFFCURVE",
"383 504 CURVE SMOOTH",
"291 504 OFFCURVE",
"195 123 OFFCURVE",
"162 29 CURVE SMOOTH",
"154 8 OFFCURVE",
"138 -5 OFFCURVE",
"112 -5 CURVE SMOOTH",
"85 -5 OFFCURVE",
"65 18 OFFCURVE",
"65 44 CURVE SMOOTH",
"65 47 OFFCURVE",
"65 50 OFFCURVE",
"66 53 CURVE SMOOTH",
"94 200 OFFCURVE",
"122 318 OFFCURVE",
"133 475 CURVE",
"133 483 LINE SMOOTH",
"133 493 OFFCURVE",
"131 503 OFFCURVE",
"121 503 CURVE SMOOTH",
"99 503 OFFCURVE",
"81 471 OFFCURVE",
"72 458 CURVE SMOOTH",
"62 442 OFFCURVE",
"50 409 OFFCURVE",
"27 409 CURVE SMOOTH",
"15 409 OFFCURVE",
"-1 424 OFFCURVE",
"-1 436 CURVE SMOOTH",
"-1 498 OFFCURVE",
"63 580 OFFCURVE",
"123 580 CURVE SMOOTH",
"186 580 OFFCURVE",
"210 542 OFFCURVE",
"210 479 CURVE SMOOTH",
"210 401 OFFCURVE",
"181 251 OFFCURVE",
"184 250 CURVE",
"221 377 OFFCURVE",
"268 591 OFFCURVE",
"418 591 CURVE SMOOTH",
"478 591 OFFCURVE",
"503 539 OFFCURVE",
"503 488 CURVE SMOOTH",
"503 372 OFFCURVE",
"448 279 OFFCURVE",
"448 160 CURVE SMOOTH",
"448 116 OFFCURVE",
"455 65 OFFCURVE",
"499 65 CURVE SMOOTH",
"564 65 OFFCURVE",
"620 133 OFFCURVE",
"650 169 CURVE SMOOTH",
"655 174 OFFCURVE",
"657 177 OFFCURVE",
"657 178 CURVE SMOOTH",
"678 104 LINE",
"637 49 OFFCURVE",
"568 -14 OFFCURVE",
"477 -14 CURVE SMOOTH",
"394 -14 OFFCURVE",
"356 57 OFFCURVE",
"356 141 CURVE SMOOTH",
"356 248 OFFCURVE",
"393 327 OFFCURVE",
"410 413 CURVE SMOOTH",
"413 427 OFFCURVE",
"414 441 OFFCURVE"
);
}
);
width = 579;
}
);
unicode = 004E;
userData = {
com.fontlab.hintData = {
hhints = (
{
position = -41;
width = 232;
},
{
position = 1471;
width = 225;
},
{
position = 1474;
width = 254;
}
);
vhints = (
{
position = 189;
width = 284;
},
{
position = 390;
width = 224;
},
{
position = 1041;
width = 271;
},
{
position = 1212;
width = 261;
}
);
};
};
},
{
glyphname = O;
lastChange = "2016-07-11 09:12:57 +0000";
layers = (
{
layerId = "661C2B86-736D-4514-95EC-07E90A3E9BAC";
paths = (
{
closed = 1;
nodes = (
"490 354 CURVE SMOOTH",
"490 443 OFFCURVE",
"456 516 OFFCURVE",
"365 516 CURVE SMOOTH",
"212 516 OFFCURVE",
"140 331 OFFCURVE",
"140 201 CURVE SMOOTH",
"140 122 OFFCURVE",
"186 54 OFFCURVE",
"282 54 CURVE SMOOTH",
"433 54 OFFCURVE",
"490 233 OFFCURVE"
);
},
{
closed = 1;
nodes = (
"53 201 CURVE SMOOTH",
"53 401 OFFCURVE",
"169 591 OFFCURVE",
"360 591 CURVE SMOOTH",
"504 591 OFFCURVE",
"578 485 OFFCURVE",
"578 341 CURVE SMOOTH",
"578 169 OFFCURVE",
"475 -23 OFFCURVE",
"274 -23 CURVE SMOOTH",
"129 -23 OFFCURVE",
"53 79 OFFCURVE"
);
}
);
width = 581;
}
);
unicode = 004F;
userData = {
com.fontlab.hintData = {
hhints = (
{
position = -66;
width = 225;
},
{
position = 1509;
width = 221;
}
);
vhints = (
{
position = 154;
width = 257;
},
{
position = 1435;
width = 256;
}
);
};
};
},
{
glyphname = Oslash;
lastChange = "2016-07-11 09:12:57 +0000";
layers = (
{
layerId = "661C2B86-736D-4514-95EC-07E90A3E9BAC";
paths = (
{
closed = 1;
nodes = (
"213 31 CURVE",
"286 292 LINE SMOOTH",
"312 383 OFFCURVE",
"339 479 OFFCURVE",
"364 568 CURVE",
"238 558 OFFCURVE",
"172 393 OFFCURVE",
"149 278 CURVE SMOOTH",
"143 251 OFFCURVE",
"140 224 OFFCURVE",
"140 199 CURVE SMOOTH",
"140 122 OFFCURVE",
"166 63 OFFCURVE"
);
},
{
closed = 1;
nodes = (
"423 556 CURVE",
"375 376 OFFCURVE",
"324 191 OFFCURVE",
"273 11 CURVE",
"274 11 OFFCURVE",
"276 11 OFFCURVE",
"278 11 CURVE SMOOTH",
"282 11 LINE SMOOTH",
"436 11 OFFCURVE",
"490 245 OFFCURVE",
"490 394 CURVE SMOOTH",
"490 467 OFFCURVE",
"470 529 OFFCURVE"
);
},
{
closed = 1;
nodes = (
"441 620 CURVE",
"529 583 OFFCURVE",
"578 492 OFFCURVE",
"578 367 CURVE SMOOTH",
"578 179 OFFCURVE",
"494 14 OFFCURVE",
"364 -46 CURVE SMOOTH",
"336 -59 OFFCURVE",
"306 -66 OFFCURVE",
"274 -66 CURVE SMOOTH",
"266 -66 OFFCURVE",
"258 -65 OFFCURVE",
"251 -64 CURVE",
"237 -112 LINE",
"231 -130 OFFCURVE",
"224 -151 OFFCURVE",
"202 -151 CURVE SMOOTH",
"182 -151 OFFCURVE",
"178 -139 OFFCURVE",
"178 -118 CURVE SMOOTH",
"178 -93 OFFCURVE",
"184 -72 OFFCURVE",
"190 -49 CURVE",
"102 -9 OFFCURVE",
"53 88 OFFCURVE",
"53 216 CURVE SMOOTH",
"53 403 OFFCURVE",
"135 559 OFFCURVE",
"267 616 CURVE SMOOTH",
"295 628 OFFCURVE",
"326 634 OFFCURVE",
"360 634 CURVE SMOOTH",
"368 634 OFFCURVE",
"375 634 OFFCURVE",
"382 633 CURVE",
"391 665 LINE SMOOTH",
"398 689 OFFCURVE",
"413 721 OFFCURVE",
"443 721 CURVE SMOOTH",
"456 721 OFFCURVE",
"457 711 OFFCURVE",
"457 699 CURVE SMOOTH",
"457 694 LINE SMOOTH",
"457 670 OFFCURVE",
"447 640 OFFCURVE"
);
}
);
width = 588;
}
);
unicode = 00D8;
userData = {
com.fontlab.hintData = {
hhints = (
{
position = -192;
width = 224;
},
{
position = 1663;
width = 193;
}
);
vhints = (
{
position = 155;
width = 256;
},
{
position = 521;
width = 173;
},
{
position = 1435;
width = 256;
}
);
};
};
},
{
glyphname = OE;
lastChange = "2016-07-11 09:12:57 +0000";
layers = (
{
layerId = "661C2B86-736D-4514-95EC-07E90A3E9BAC";
paths = (
{
closed = 1;
nodes = (
"120 199 CURVE SMOOTH",
"120 100 OFFCURVE",
"164 11 OFFCURVE",
"262 11 CURVE SMOOTH",
"337 11 OFFCURVE",
"378 70 OFFCURVE",
"405 120 CURVE",
"470 438 LINE",
"462 508 OFFCURVE",
"430 569 OFFCURVE",
"353 569 CURVE SMOOTH",
"272 569 OFFCURVE",
"221 497 OFFCURVE",
"190 442 CURVE SMOOTH",
"153 378 OFFCURVE",
"120 295 OFFCURVE"
);
},
{
closed = 1;
nodes = (
"501 133 CURVE SMOOTH",
"501 71 OFFCURVE",
"535 44 OFFCURVE",
"596 44 CURVE SMOOTH",
"695 44 OFFCURVE",
"783 86 OFFCURVE",
"836 134 CURVE SMOOTH",
"847 144 OFFCURVE",
"856 153 OFFCURVE",
"862 163 CURVE",
"885 85 LINE",
"823 19 OFFCURVE",
"723 -33 OFFCURVE",
"598 -33 CURVE SMOOTH",
"526 -33 OFFCURVE",
"469 -9 OFFCURVE",
"438 33 CURVE",
"406 -21 OFFCURVE",
"337 -66 OFFCURVE",
"254 -66 CURVE SMOOTH",
"102 -66 OFFCURVE",
"33 64 OFFCURVE",
"33 216 CURVE SMOOTH",
"33 403 OFFCURVE",
"116 559 OFFCURVE",
"247 616 CURVE SMOOTH",
"275 628 OFFCURVE",
"306 634 OFFCURVE",
"340 634 CURVE SMOOTH",
"429 634 OFFCURVE",
"495 585 OFFCURVE",
"525 525 CURVE",
"558 572 OFFCURVE",
"606 605 OFFCURVE",
"678 605 CURVE SMOOTH",
"754 605 OFFCURVE",
"815 572 OFFCURVE",
"864 536 CURVE",
"831 470 LINE",
"797 504 OFFCURVE",
"748 532 OFFCURVE",
"683 532 CURVE SMOOTH",
"614 532 OFFCURVE",
"569 497 OFFCURVE",
"558 438 CURVE SMOOTH",
"536 317 LINE",
"711 317 LINE SMOOTH",
"727 317 OFFCURVE",
"738 302 OFFCURVE",
"738 286 CURVE SMOOTH",
"738 263 OFFCURVE",
"719 252 OFFCURVE",
"695 252 CURVE SMOOTH",
"525 252 LINE",
"515 213 OFFCURVE",
"501 175 OFFCURVE"
);
}
);
width = 788;
}
);
unicode = 0152;
userData = {
com.fontlab.hintData = {
hhints = (
{
position = -192;
width = 224;
},
{
position = -96;
width = 224;
},
{
position = 736;
width = 192;
},
{
position = 1557;
width = 213;
},
{
position = 1664;
width = 192;
}
);
vhints = (
{
position = 96;
width = 256;
}
);
};
};
},
{
glyphname = P;
lastChange = "2016-07-11 09:12:57 +0000";
layers = (
{
layerId = "661C2B86-736D-4514-95EC-07E90A3E9BAC";
paths = (
{
closed = 1;
nodes = (
"536 445 CURVE SMOOTH",
"536 534 OFFCURVE",
"446 563 OFFCURVE",
"337 563 CURVE SMOOTH",
"187 563 OFFCURVE",
"133 401 OFFCURVE",
"133 257 CURVE SMOOTH",
"133 166 OFFCURVE",
"128 -7 OFFCURVE",
"191 -7 CURVE SMOOTH",
"266 -7 OFFCURVE",
"255 117 OFFCURVE",
"267 214 CURVE SMOOTH",
"272 251 LINE",
"233 266 OFFCURVE",
"190 276 OFFCURVE",
"190 324 CURVE SMOOTH",
"190 339 OFFCURVE",
"190 357 OFFCURVE",
"205 357 CURVE SMOOTH",
"226 357 OFFCURVE",
"248 336 OFFCURVE",
"268 332 CURVE",
"268 399 OFFCURVE",
"278 484 OFFCURVE",
"346 484 CURVE SMOOTH",
"366 484 OFFCURVE",
"383 476 OFFCURVE",
"383 456 CURVE SMOOTH",
"383 453 OFFCURVE",
"382 453 OFFCURVE",
"382 450 CURVE",
"362 362 LINE",
"359 335 LINE",
"446 345 OFFCURVE",
"536 376 OFFCURVE"
);
},
{
closed = 1;
nodes = (
"41 248 CURVE SMOOTH",
"41 451 OFFCURVE",
"141 644 OFFCURVE",
"345 644 CURVE SMOOTH",
"496 644 OFFCURVE",
"616 580 OFFCURVE",
"616 450 CURVE SMOOTH",
"616 333 OFFCURVE",
"488 271 OFFCURVE",
"356 255 CURVE",
"357 255 OFFCURVE",
"350 162 OFFCURVE",
"346 127 CURVE SMOOTH",
"332 8 OFFCURVE",
"292 -87 OFFCURVE",
"183 -87 CURVE SMOOTH",
"65 -87 OFFCURVE",
"41 118 OFFCURVE"
);
}
);
width = 530;
}
);
unicode = 0050;
userData = {
com.fontlab.hintData = {
hhints = (
{
position = -255;
width = 234;
},
{
position = 1648;
width = 235;
}
);
vhints = (
{
position = 120;
width = 268;
},
{
position = 1567;
width = 235;
}
);
};
};
},
{
glyphname = Thorn;
lastChange = "2016-07-11 09:12:57 +0000";
layers = (
{
layerId = "661C2B86-736D-4514-95EC-07E90A3E9BAC";
paths = (
{
closed = 1;
nodes = (
"312 215 LINE",
"362 220 OFFCURVE",
"441 232 OFFCURVE",
"441 282 CURVE SMOOTH",
"441 348 OFFCURVE",
"391 381 OFFCURVE",
"331 391 CURVE"
);
},
{
closed = 1;
nodes = (
"247 391 CURVE",
"159 369 OFFCURVE",
"124 274 OFFCURVE",
"124 165 CURVE SMOOTH",
"124 115 LINE SMOOTH",
"124 63 OFFCURVE",
"125 -41 OFFCURVE",
"154 -41 CURVE SMOOTH",
"211 -41 OFFCURVE",
"225 83 OFFCURVE",
"225 137 CURVE",
"202 147 OFFCURVE",
"178 153 OFFCURVE",
"178 183 CURVE SMOOTH",
"178 198 OFFCURVE",
"178 216 OFFCURVE",
"192 216 CURVE SMOOTH",
"203 216 OFFCURVE",
"216 208 OFFCURVE",
"230 208 CURVE",
"230 267 OFFCURVE",
"241 332 OFFCURVE"
);
},
{
closed = 1;
nodes = (
"339 472 LINE",
"438 458 OFFCURVE",
"522 398 OFFCURVE",
"522 290 CURVE SMOOTH",
"522 186 OFFCURVE",
"406 146 OFFCURVE",
"310 134 CURVE",
"293 10 OFFCURVE",
"283 -121 OFFCURVE",
"147 -121 CURVE SMOOTH",
"48 -121 OFFCURVE",
"32 57 OFFCURVE",
"32 156 CURVE SMOOTH",
"32 325 OFFCURVE",
"108 453 OFFCURVE",
"255 473 CURVE",
"257 487 OFFCURVE",
"258 498 OFFCURVE",
"258 509 CURVE",
"260 571 OFFCURVE",
"276 668 OFFCURVE",
"339 668 CURVE SMOOTH",
"358 668 OFFCURVE",
"369 658 OFFCURVE",
"369 640 CURVE SMOOTH",
"369 636 OFFCURVE",
"369 636 OFFCURVE",
"369 634 CURVE",
"345 518 LINE"
);
}
);
width = 416;
}
);
unicode = 00DE;
userData = {
com.fontlab.hintData = {
hhints = (
{
position = -355;
width = 234;
},
{
position = 393;
width = 235;
},
{
position = 1143;
width = 240;
}
);
vhints = (
{
position = 94;
width = 268;
},
{
position = 1291;
width = 235;
}
);
};
};
},
{
glyphname = Q;
lastChange = "2016-07-11 09:12:57 +0000";
layers = (
{
layerId = "661C2B86-736D-4514-95EC-07E90A3E9BAC";
paths = (
{
closed = 1;
nodes = (
"131 197 CURVE SMOOTH",
"131 106 OFFCURVE",
"175 22 OFFCURVE",
"262 22 CURVE SMOOTH",
"408 22 OFFCURVE",
"459 245 OFFCURVE",
"459 387 CURVE SMOOTH",
"459 477 OFFCURVE",
"434 569 OFFCURVE",
"347 569 CURVE SMOOTH",
"203 569 OFFCURVE",
"131 347 OFFCURVE"
);
},
{
closed = 1;
nodes = (
"340 634 CURVE SMOOTH",
"490 634 OFFCURVE",
"558 515 OFFCURVE",
"558 364 CURVE SMOOTH",
"558 170 OFFCURVE",
"470 -27 OFFCURVE",
"297 -47 CURVE",
"325 -77 OFFCURVE",
"348 -135 OFFCURVE",
"398 -135 CURVE SMOOTH",
"437 -135 OFFCURVE",
"467 -102 OFFCURVE",
"486 -80 CURVE",
"490 -77 OFFCURVE",
"494 -76 OFFCURVE",
"499 -76 CURVE SMOOTH",
"521 -76 OFFCURVE",
"530 -125 OFFCURVE",
"530 -125 CURVE",
"489 -184 OFFCURVE",
"421 -223 OFFCURVE",
"366 -223 CURVE SMOOTH",
"283 -223 OFFCURVE",
"263 -146 OFFCURVE",
"243 -86 CURVE SMOOTH",
"232 -53 LINE",
"100 -31 OFFCURVE",
"33 68 OFFCURVE",
"33 215 CURVE SMOOTH",
"33 422 OFFCURVE",
"150 634 OFFCURVE"
);
}
);
width = 551;
}
);
unicode = 0051;
userData = {
com.fontlab.hintData = {
hhints = (
{
position = -653;
width = 259;
},
{
position = 1664;
width = 192;
}
);
vhints = (
{
position = 96;
width = 287;
},
{
position = 1344;
width = 288;
}
);
};
};
},
{
glyphname = R;
lastChange = "2016-07-11 09:12:57 +0000";
layers = (
{
layerId = "661C2B86-736D-4514-95EC-07E90A3E9BAC";
paths = (
{
closed = 1;
nodes = (
"277 334 CURVE",
"279 379 OFFCURVE",
"287 438 OFFCURVE",
"337 438 CURVE SMOOTH",
"359 438 OFFCURVE",
"367 428 OFFCURVE",
"367 409 CURVE SMOOTH",
"367 406 LINE",
"367 380 OFFCURVE",
"360 353 OFFCURVE",
"357 325 CURVE",
"446 327 OFFCURVE",
"542 348 OFFCURVE",
"542 428 CURVE SMOOTH",
"542 486 OFFCURVE",
"482 511 OFFCURVE",
"418 511 CURVE SMOOTH",
"220 511 OFFCURVE",
"116 360 OFFCURVE",
"116 167 CURVE SMOOTH",
"116 99 OFFCURVE",
"135 14 OFFCURVE",
"201 14 CURVE SMOOTH",
"265 14 OFFCURVE",
"267 196 OFFCURVE",
"267 261 CURVE",
"243 272 OFFCURVE",
"212 284 OFFCURVE",
"212 311 CURVE SMOOTH",
"212 323 OFFCURVE",
"215 339 OFFCURVE",
"230 339 CURVE SMOOTH",
"245 339 OFFCURVE",
"263 334 OFFCURVE"
);
},
{
closed = 1;
nodes = (
"707 32 LINE",
"662 3 OFFCURVE",
"607 -33 OFFCURVE",
"533 -33 CURVE SMOOTH",
"405 -33 OFFCURVE",
"435 172 OFFCURVE",
"384 241 CURVE SMOOTH",
"378 249 OFFCURVE",
"372 253 OFFCURVE",
"363 253 CURVE SMOOTH",
"343 253 LINE",
"333 138 OFFCURVE",
"322 13 OFFCURVE",
"255 -43 CURVE SMOOTH",
"238 -58 OFFCURVE",
"217 -66 OFFCURVE",
"192 -66 CURVE SMOOTH",
"72 -66 OFFCURVE",
"25 69 OFFCURVE",
"25 185 CURVE SMOOTH",
"25 390 OFFCURVE",
"153 528 OFFCURVE",
"314 575 CURVE SMOOTH",
"349 585 OFFCURVE",
"386 591 OFFCURVE",
"425 591 CURVE SMOOTH",
"533 591 OFFCURVE",
"634 537 OFFCURVE",
"634 431 CURVE SMOOTH",
"634 322 OFFCURVE",
"522 273 OFFCURVE",
"418 265 CURVE",
"482 238 OFFCURVE",
"500 177 OFFCURVE",
"515 104 CURVE SMOOTH",
"521 78 OFFCURVE",
"528 47 OFFCURVE",
"555 47 CURVE SMOOTH",
"602 47 OFFCURVE",
"640 78 OFFCURVE",
"665 102 CURVE"
);
}
);
width = 622;
}
);
unicode = 0052;
userData = {
com.fontlab.hintData = {
hhints = (
{
position = -192;
width = 234;
},
{
position = -96;
width = 234;
},
{
position = 739;
width = 211;
},
{
position = 1494;
width = 234;
}
);
vhints = (
{
position = 74;
width = 266;
},
{
position = 809;
width = 266;
},
{
position = 1586;
width = 268;
}
);
};
};
},
{
glyphname = S;
lastChange = "2016-07-11 09:12:57 +0000";
layers = (
{
layerId = "661C2B86-736D-4514-95EC-07E90A3E9BAC";
paths = (
{
closed = 1;
nodes = (
"126 125 CURVE SMOOTH",
"126 53 OFFCURVE",
"196 29 OFFCURVE",
"268 29 CURVE SMOOTH",
"344 29 OFFCURVE",
"422 62 OFFCURVE",
"422 125 CURVE SMOOTH",
"422 207 OFFCURVE",
"322 241 OFFCURVE",
"267 270 CURVE",
"204 305 OFFCURVE",
"115 347 OFFCURVE",
"115 446 CURVE SMOOTH",
"115 554 OFFCURVE",
"226 602 OFFCURVE",
"338 602 CURVE SMOOTH",
"433 602 OFFCURVE",
"527 548 OFFCURVE",
"527 455 CURVE SMOOTH",
"527 412 OFFCURVE",
"496 353 OFFCURVE",
"454 353 CURVE SMOOTH",
"440 353 OFFCURVE",
"431 362 OFFCURVE",
"431 377 CURVE SMOOTH",
"431 407 OFFCURVE",
"450 424 OFFCURVE",
"450 455 CURVE SMOOTH",
"450 515 OFFCURVE",
"383 530 OFFCURVE",
"324 530 CURVE SMOOTH",
"266 530 OFFCURVE",
"203 508 OFFCURVE",
"203 453 CURVE SMOOTH",
"203 379 OFFCURVE",
"305 349 OFFCURVE",
"356 323 CURVE",
"424 286 OFFCURVE",
"510 240 OFFCURVE",
"510 132 CURVE SMOOTH",
"510 11 OFFCURVE",
"390 -44 OFFCURVE",
"263 -44 CURVE SMOOTH",
"146 -44 OFFCURVE",
"39 9 OFFCURVE",
"39 125 CURVE SMOOTH",
"39 170 OFFCURVE",
"66 213 OFFCURVE",
"109 213 CURVE SMOOTH",
"124 213 OFFCURVE",
"135 205 OFFCURVE",
"135 189 CURVE SMOOTH",
"135 167 OFFCURVE",
"126 150 OFFCURVE"
);
}
);
width = 533;
}
);
unicode = 0053;
userData = {
com.fontlab.hintData = {
hhints = (
{
position = -128;
width = 213;
},
{
position = 1551;
width = 209;
}
);
vhints = (
{
position = 114;
width = 255;
},
{
position = 336;
width = 257;
},
{
position = 1236;
width = 256;
},
{
position = 1317;
width = 225;
}
);
};
};
},
{
glyphname = T;
lastChange = "2016-07-11 09:12:57 +0000";
layers = (
{
layerId = "661C2B86-736D-4514-95EC-07E90A3E9BAC";
paths = (
{
closed = 1;
nodes = (
"50 421 CURVE SMOOTH",
"18 421 OFFCURVE",
"-5 436 OFFCURVE",
"-5 465 CURVE SMOOTH",
"-5 598 OFFCURVE",
"183 601 OFFCURVE",
"319 601 CURVE SMOOTH",
"428 601 OFFCURVE",
"528 595 OFFCURVE",
"627 579 CURVE SMOOTH",
"645 576 OFFCURVE",
"657 565 OFFCURVE",
"657 547 CURVE SMOOTH",
"657 527 OFFCURVE",
"640 507 OFFCURVE",
"619 509 CURVE SMOOTH",
"525 521 OFFCURVE",
"433 526 OFFCURVE",
"336 530 CURVE",
"292 329 OFFCURVE",
"260 190 OFFCURVE",
"223 28 CURVE SMOOTH",
"217 5 OFFCURVE",
"198 -25 OFFCURVE",
"170 -25 CURVE SMOOTH",
"144 -25 OFFCURVE",
"125 -13 OFFCURVE",
"125 14 CURVE SMOOTH",
"125 18 OFFCURVE",
"126 23 OFFCURVE",
"127 28 CURVE SMOOTH",
"165 173 OFFCURVE",
"211 341 OFFCURVE",
"260 530 CURVE",
"203 526 OFFCURVE",
"105 524 OFFCURVE",
"105 465 CURVE SMOOTH",
"105 436 OFFCURVE",
"82 421 OFFCURVE"
);
}
);
width = 467;
}
);
unicode = 0054;
userData = {
com.fontlab.hintData = {
hhints = (
{
position = 1551;
width = 207;
}
);
vhints = (
{
position = -14;
width = 321;
}
);
};
};
},
{
glyphname = U;
lastChange = "2016-07-11 09:12:57 +0000";
layers = (
{
layerId = "661C2B86-736D-4514-95EC-07E90A3E9BAC";
paths = (
{
closed = 1;
nodes = (
"151 198 CURVE SMOOTH",
"151 60 OFFCURVE",
"188 22 OFFCURVE",
"250 22 CURVE SMOOTH",
"414 22 OFFCURVE",
"446 384 OFFCURVE",
"454 536 CURVE SMOOTH",
"456 573 OFFCURVE",
"475 591 OFFCURVE",
"514 591 CURVE SMOOTH",
"543 591 OFFCURVE",
"552 575 OFFCURVE",
"552 544 CURVE SMOOTH",
"552 321 OFFCURVE",
"507 127 OFFCURVE",
"396 16 CURVE SMOOTH",
"358 -22 OFFCURVE",
"308 -55 OFFCURVE",
"239 -55 CURVE SMOOTH",
"101 -55 OFFCURVE",
"60 63 OFFCURVE",
"60 201 CURVE SMOOTH",
"60 315 OFFCURVE",
"88 418 OFFCURVE",
"118 503 CURVE SMOOTH",
"128 532 OFFCURVE",
"136 558 OFFCURVE",
"171 558 CURVE SMOOTH",
"201 558 OFFCURVE",
"225 555 OFFCURVE",
"225 525 CURVE SMOOTH",
"225 523 LINE",
"206 419 OFFCURVE",
"151 324 OFFCURVE"
);
}
);
width = 544;
}
);
unicode = 0055;
userData = {
com.fontlab.hintData = {
hhints = (
{
position = -160;
width = 224;
}
);
vhints = (
{
position = 176;
width = 266;
},
{
position = 346;
width = 311;
},
{
position = 1328;
width = 288;
}
);
};
};
},
{
glyphname = V;
lastChange = "2016-07-11 09:12:57 +0000";
layers = (
{
layerId = "661C2B86-736D-4514-95EC-07E90A3E9BAC";
paths = (
{
closed = 1;
nodes = (
"137 -11 CURVE SMOOTH",
"67 -11 OFFCURVE",
"62 57 OFFCURVE",
"62 124 CURVE SMOOTH",
"62 138 OFFCURVE",
"62 151 OFFCURVE",
"62 164 CURVE SMOOTH",
"62 269 OFFCURVE",
"41 380 OFFCURVE",
"41 491 CURVE SMOOTH",
"41 528 OFFCURVE",
"54 547 OFFCURVE",
"90 547 CURVE SMOOTH",
"122 547 OFFCURVE",
"130 528 OFFCURVE",
"131 495 CURVE SMOOTH",
"146 89 LINE",
"368 516 LINE",
"375 539 OFFCURVE",
"400 557 OFFCURVE",
"429 557 CURVE SMOOTH",
"448 557 OFFCURVE",
"456 538 OFFCURVE",
"456 518 CURVE SMOOTH",
"456 471 OFFCURVE",
"425 422 OFFCURVE",
"407 384 CURVE SMOOTH",
"378 325 OFFCURVE",
"346 264 OFFCURVE",
"315 208 CURVE SMOOTH",
"310 199 OFFCURVE",
"307 187 OFFCURVE",
"307 174 CURVE SMOOTH",
"307 127 OFFCURVE",
"346 106 OFFCURVE",
"395 106 CURVE SMOOTH",
"417 106 OFFCURVE",
"436 124 OFFCURVE",
"450 134 CURVE",
"461 143 OFFCURVE",
"472 152 OFFCURVE",
"484 162 CURVE",
"476 92 LINE",
"447 69 OFFCURVE",
"410 42 OFFCURVE",
"367 42 CURVE SMOOTH",
"308 42 OFFCURVE",
"269 73 OFFCURVE",
"269 131 CURVE SMOOTH",
"269 138 OFFCURVE",
"270 145 OFFCURVE",
"271 153 CURVE",
"245 92 OFFCURVE",
"219 24 OFFCURVE",
"168 -3 CURVE SMOOTH",
"158 -9 OFFCURVE",
"147 -11 OFFCURVE"
);
}
);
width = 422;
}
);
unicode = 0056;
userData = {
com.fontlab.hintData = {
hhints = (
{
position = -33;
width = 21;
},
{
position = 123;
width = 188;
}
);
vhints = (
{
position = 121;
width = 262;
},
{
position = 180;
width = 247;
},
{
position = 788;
width = 110;
}
);
};
};
},
{
glyphname = W;
lastChange = "2016-07-11 09:12:57 +0000";
layers = (
{
layerId = "661C2B86-736D-4514-95EC-07E90A3E9BAC";
paths = (
{
closed = 1;
nodes = (
"697 188 CURVE SMOOTH",
"697 162 OFFCURVE",
"703 136 OFFCURVE",
"728 136 CURVE SMOOTH",
"755 136 OFFCURVE",
"803 174 OFFCURVE",
"825 197 CURVE SMOOTH",
"832 204 OFFCURVE",
"837 207 OFFCURVE",
"841 207 CURVE SMOOTH",
"847 207 OFFCURVE",
"849 200 OFFCURVE",
"849 189 CURVE SMOOTH",
"849 168 OFFCURVE",
"841 136 OFFCURVE",
"841 136 CURVE SMOOTH",
"818 108 OFFCURVE",
"754 57 OFFCURVE",
"708 57 CURVE SMOOTH",
"675 57 OFFCURVE",
"655 63 OFFCURVE",
"649 92 CURVE",
"616 30 OFFCURVE",
"568 -33 OFFCURVE",
"478 -33 CURVE SMOOTH",
"388 -33 OFFCURVE",
"363 63 OFFCURVE",
"359 157 CURVE",
"332 56 OFFCURVE",
"280 -35 OFFCURVE",
"180 -35 CURVE SMOOTH",
"69 -35 OFFCURVE",
"39 50 OFFCURVE",
"39 158 CURVE SMOOTH",
"39 281 OFFCURVE",
"87 435 OFFCURVE",
"110 489 CURVE SMOOTH",
"123 523 OFFCURVE",
"133 558 OFFCURVE",
"177 558 CURVE SMOOTH",
"198 558 OFFCURVE",
"214 552 OFFCURVE",
"214 536 CURVE SMOOTH",
"214 533 OFFCURVE",
"214 530 OFFCURVE",
"213 528 CURVE SMOOTH",
"201 478 OFFCURVE",
"185 423 OFFCURVE",
"172 376 CURVE SMOOTH",
"162 344 OFFCURVE",
"132 231 OFFCURVE",
"132 146 CURVE SMOOTH",
"132 89 OFFCURVE",
"149 44 OFFCURVE",
"188 44 CURVE SMOOTH",
"268 44 OFFCURVE",
"304 202 OFFCURVE",
"323 263 CURVE SMOOTH",
"342 324 OFFCURVE",
"359 393 OFFCURVE",
"374 471 CURVE SMOOTH",
"381 509 OFFCURVE",
"394 536 OFFCURVE",
"440 536 CURVE SMOOTH",
"465 536 OFFCURVE",
"483 529 OFFCURVE",
"483 504 CURVE SMOOTH",
"483 466 OFFCURVE",
"470 419 OFFCURVE",
"464 377 CURVE SMOOTH",
"455 310 OFFCURVE",
"445 237 OFFCURVE",
"445 163 CURVE SMOOTH",
"445 113 OFFCURVE",
"446 46 OFFCURVE",
"490 46 CURVE SMOOTH",
"601 46 OFFCURVE",
"643 476 OFFCURVE",
"650 525 CURVE SMOOTH",
"656 563 OFFCURVE",
"668 569 OFFCURVE",
"708 569 CURVE SMOOTH",
"733 569 OFFCURVE",
"746 557 OFFCURVE",
"746 533 CURVE SMOOTH",
"746 467 OFFCURVE",
"723 328 OFFCURVE",
"703 237 CURVE SMOOTH",
"700 223 OFFCURVE",
"697 205 OFFCURVE"
);
}
);
width = 765;
}
);
unicode = 0057;
userData = {
com.fontlab.hintData = {
hhints = (
{
position = -96;
width = 232;
},
{
position = 168;
width = 229;
}
);
vhints = (
{
position = 115;
width = 271;
},
{
position = 1051;
width = 252;
},
{
position = 1902;
width = 280;
}
);
};
};
},
{
glyphname = X;
lastChange = "2016-07-11 09:12:57 +0000";
layers = (
{
layerId = "661C2B86-736D-4514-95EC-07E90A3E9BAC";
paths = (
{
closed = 1;
nodes = (
"48 -36 CURVE SMOOTH",
"21 -36 OFFCURVE",
"1 -26 OFFCURVE",
"1 -2 CURVE SMOOTH",
"1 23 OFFCURVE",
"22 44 OFFCURVE",
"38 63 CURVE SMOOTH",
"103 144 OFFCURVE",
"173 229 OFFCURVE",
"238 309 CURVE",
"235 319 LINE",
"225 389 OFFCURVE",
"211 503 OFFCURVE",
"133 503 CURVE SMOOTH",
"112 503 OFFCURVE",
"80 442 OFFCURVE",
"71 425 CURVE SMOOTH",
"67 418 OFFCURVE",
"64 415 OFFCURVE",
"61 415 CURVE SMOOTH",
"45 415 OFFCURVE",
"39 472 OFFCURVE",
"39 491 CURVE SMOOTH",
"39 552 OFFCURVE",
"70 591 OFFCURVE",
"130 591 CURVE SMOOTH",
"255 591 OFFCURVE",
"294 488 OFFCURVE",
"316 381 CURVE",
"358 445 OFFCURVE",
"408 508 OFFCURVE",
"465 554 CURVE SMOOTH",
"481 567 OFFCURVE",
"501 584 OFFCURVE",
"523 584 CURVE SMOOTH",
"558 584 OFFCURVE",
"571 532 OFFCURVE",
"571 496 CURVE SMOOTH",
"571 454 OFFCURVE",
"547 430 OFFCURVE",
"506 430 CURVE SMOOTH",
"500 430 OFFCURVE",
"499 441 OFFCURVE",
"499 453 CURVE SMOOTH",
"499 461 LINE SMOOTH",
"499 473 OFFCURVE",
"499 483 OFFCURVE",
"493 483 CURVE SMOOTH",
"469 483 OFFCURVE",
"443 444 OFFCURVE",
"429 427 CURVE SMOOTH",
"399 391 OFFCURVE",
"369 348 OFFCURVE",
"342 308 CURVE",
"359 244 OFFCURVE",
"368 181 OFFCURVE",
"384 120 CURVE SMOOTH",
"392 87 OFFCURVE",
"404 54 OFFCURVE",
"443 54 CURVE SMOOTH",
"488 54 OFFCURVE",
"520 103 OFFCURVE",
"545 142 CURVE",
"549 146 OFFCURVE",
"552 147 OFFCURVE",
"557 147 CURVE SMOOTH",
"575 147 OFFCURVE",
"589 124 OFFCURVE",
"589 106 CURVE SMOOTH",
"589 99 OFFCURVE",
"586 93 OFFCURVE",
"582 88 CURVE SMOOTH",
"546 46 OFFCURVE",
"504 4 OFFCURVE",
"449 -15 CURVE SMOOTH",
"436 -20 OFFCURVE",
"423 -22 OFFCURVE",
"413 -22 CURVE SMOOTH",
"321 -22 OFFCURVE",
"305 62 OFFCURVE",
"286 137 CURVE SMOOTH",
"279 163 OFFCURVE",
"272 194 OFFCURVE",
"265 229 CURVE",
"196 126 LINE SMOOTH",
"165 81 OFFCURVE",
"134 32 OFFCURVE",
"103 -11 CURVE SMOOTH",
"93 -25 OFFCURVE",
"71 -36 OFFCURVE"
);
}
);
width = 525;
}
);
unicode = 0058;
userData = {
com.fontlab.hintData = {
hhints = (
{
position = -64;
width = 223;
},
{
position = 1412;
width = 298;
},
{
position = 1472;
width = 256;
}
);
vhints = (
{
position = 1461;
width = 210;
}
);
};
};
},
{
glyphname = Y;
lastChange = "2016-07-11 09:12:57 +0000";
layers = (
{
layerId = "661C2B86-736D-4514-95EC-07E90A3E9BAC";
paths = (
{
closed = 1;
nodes = (
"6 393 CURVE SMOOTH",
"4 393 OFFCURVE",
"-35 423 OFFCURVE",
"-35 462 CURVE SMOOTH",
"-35 512 OFFCURVE",
"23 561 OFFCURVE",
"79 561 CURVE SMOOTH",
"226 561 OFFCURVE",
"276 465 OFFCURVE",
"310 379 CURVE SMOOTH",
"350 279 LINE",
"394 368 OFFCURVE",
"435 462 OFFCURVE",
"479 549 CURVE SMOOTH",
"484 561 OFFCURVE",
"503 568 OFFCURVE",
"520 568 CURVE SMOOTH",
"544 568 OFFCURVE",
"558 554 OFFCURVE",
"558 530 CURVE SMOOTH",
"558 500 OFFCURVE",
"540 476 OFFCURVE",
"527 448 CURVE SMOOTH",
"454 284 OFFCURVE",
"365 92 OFFCURVE",
"245 -21 CURVE SMOOTH",
"223 -42 OFFCURVE",
"199 -56 OFFCURVE",
"158 -56 CURVE SMOOTH",
"117 -56 OFFCURVE",
"57 -23 OFFCURVE",
"57 12 CURVE SMOOTH",
"57 32 OFFCURVE",
"73 45 OFFCURVE",
"93 45 CURVE SMOOTH",
"117 45 OFFCURVE",
"125 0 OFFCURVE",
"150 0 CURVE SMOOTH",
"194 0 OFFCURVE",
"266 124 OFFCURVE",
"298 204 CURVE",
"257 288 OFFCURVE",
"172 488 OFFCURVE",
"62 488 CURVE SMOOTH",
"37 488 OFFCURVE",
"21 459 OFFCURVE",
"21 443 CURVE SMOOTH",
"21 440 OFFCURVE",
"22 438 OFFCURVE",
"22 433 CURVE SMOOTH",
"22 418 OFFCURVE",
"17 393 OFFCURVE"
);
}
);
width = 499;
}
);
unicode = 0059;
userData = {
com.fontlab.hintData = {
hhints = (
{
position = -163;
width = 164;
},
{
position = 1427;
width = 215;
}
);
vhints = (
{
position = -101;
width = 163;
}
);
};
};
},
{
glyphname = Z;
lastChange = "2016-07-11 09:12:57 +0000";
layers = (
{
layerId = "661C2B86-736D-4514-95EC-07E90A3E9BAC";
paths = (
{
closed = 1;
nodes = (
"327 448 LINE",
"317 448 OFFCURVE",
"305 448 OFFCURVE",
"294 448 CURVE SMOOTH",
"239 448 OFFCURVE",
"200 460 OFFCURVE",
"161 470 CURVE SMOOTH",
"155 472 OFFCURVE",
"150 472 OFFCURVE",
"145 472 CURVE SMOOTH",
"96 472 OFFCURVE",
"103 378 OFFCURVE",
"58 378 CURVE SMOOTH",
"48 378 OFFCURVE",
"46 389 OFFCURVE",
"46 399 CURVE SMOOTH",
"46 473 OFFCURVE",
"79 558 OFFCURVE",
"148 558 CURVE SMOOTH",
"208 558 OFFCURVE",
"245 530 OFFCURVE",
"306 529 CURVE SMOOTH",
"314 528 OFFCURVE",
"322 528 OFFCURVE",
"329 528 CURVE SMOOTH",
"351 528 LINE SMOOTH",
"389 528 OFFCURVE",
"417 533 OFFCURVE",
"446 533 CURVE SMOOTH",
"466 533 OFFCURVE",
"473 517 OFFCURVE",
"473 497 CURVE SMOOTH",
"473 474 OFFCURVE",
"468 467 OFFCURVE",
"452 458 CURVE",
"341 364 OFFCURVE",
"253 256 OFFCURVE",
"174 138 CURVE SMOOTH",
"167 127 OFFCURVE",
"163 120 OFFCURVE",
"160 117 CURVE",
"158 109 LINE",
"188 109 OFFCURVE",
"224 73 OFFCURVE",
"260 73 CURVE SMOOTH",
"341 73 OFFCURVE",
"386 97 OFFCURVE",
"436 117 CURVE SMOOTH",
"442 120 OFFCURVE",
"446 122 OFFCURVE",
"452 122 CURVE SMOOTH",
"473 122 OFFCURVE",
"490 99 OFFCURVE",
"490 78 CURVE SMOOTH",
"490 70 OFFCURVE",
"489 63 OFFCURVE",
"484 59 CURVE SMOOTH",
"434 26 OFFCURVE",
"355 -10 OFFCURVE",
"264 -10 CURVE SMOOTH",
"233 -10 OFFCURVE",
"202 7 OFFCURVE",
"173 19 CURVE SMOOTH",
"156 26 OFFCURVE",
"135 36 OFFCURVE",
"112 46 CURVE",
"94 31 OFFCURVE",
"73 17 OFFCURVE",
"46 17 CURVE SMOOTH",
"22 17 OFFCURVE",
"4 30 OFFCURVE",
"4 53 CURVE SMOOTH",
"4 81 OFFCURVE",
"25 100 OFFCURVE",
"42 120 CURVE SMOOTH"
);
}
);
width = 432;
}
);
unicode = 005A;
userData = {
com.fontlab.hintData = {
hhints = (
{
position = -30;
width = 243;
},
{
position = 1312;
width = 234;
},
{
position = 1382;
width = 251;
}
);
};
};
},
{
glyphname = K.alt;
lastChange = "2016-07-11 09:53:09 +0000";
layers = (
{
layerId = "661C2B86-736D-4514-95EC-07E90A3E9BAC";
paths = (
{
closed = 1;
nodes = (
"346 558 CURVE SMOOTH",
"346 482 OFFCURVE",
"334 412 OFFCURVE",
"329 339 CURVE",
"480 339 OFFCURVE",
"528 411 OFFCURVE",
"548 525 CURVE SMOOTH",
"556 569 OFFCURVE",
"551 580 OFFCURVE",
"592 580 CURVE SMOOTH",
"625 580 OFFCURVE",
"637 563 OFFCURVE",
"637 538 CURVE SMOOTH",
"637 533 OFFCURVE",
"637 526 OFFCURVE",
"636 520 CURVE SMOOTH",
"612 379 OFFCURVE",
"564 273 OFFCURVE",
"381 273 CURVE",
"436 132 OFFCURVE",
"492 -64 OFFCURVE",
"632 -64 CURVE SMOOTH",
"684 -64 OFFCURVE",
"729 -55 OFFCURVE",
"758 -44 CURVE SMOOTH",
"769 -41 OFFCURVE",
"777 -37 OFFCURVE",
"784 -37 CURVE SMOOTH",
"803 -37 OFFCURVE",
"810 -54 OFFCURVE",
"810 -72 CURVE SMOOTH",
"810 -90 OFFCURVE",
"804 -110 OFFCURVE",
"798 -111 CURVE SMOOTH",
"753 -125 OFFCURVE",
"697 -140 OFFCURVE",
"623 -140 CURVE SMOOTH",
"417 -140 OFFCURVE",
"365 88 OFFCURVE",
"308 241 CURVE",
"280 133 OFFCURVE",
"237 32 OFFCURVE",
"146 -7 CURVE SMOOTH",
"123 -17 OFFCURVE",
"99 -22 OFFCURVE",
"73 -22 CURVE SMOOTH",
"41 -22 OFFCURVE",
"-33 -17 OFFCURVE",
"-33 12 CURVE SMOOTH",
"-33 33 OFFCURVE",
"-11 67 OFFCURVE",
"11 67 CURVE SMOOTH",
"27 67 OFFCURVE",
"42 55 OFFCURVE",
"61 55 CURVE SMOOTH",
"168 55 OFFCURVE",
"203 205 OFFCURVE",
"223 295 CURVE SMOOTH",
"238 361 OFFCURVE",
"248 435 OFFCURVE",
"256 508 CURVE",
"260 536 LINE",
"161 536 OFFCURVE",
"89 472 OFFCURVE",
"89 375 CURVE SMOOTH",
"89 356 OFFCURVE",
"67 350 OFFCURVE",
"46 350 CURVE SMOOTH",
"19 350 OFFCURVE",
"-10 355 OFFCURVE",
"-10 380 CURVE SMOOTH",
"-10 383 LINE SMOOTH",
"-10 534 OFFCURVE",
"153 591 OFFCURVE",
"302 591 CURVE SMOOTH",
"327 591 OFFCURVE",
"346 582 OFFCURVE"
);
}
);
width = 622;
}
);
userData = {
com.fontlab.hintData = {
hhints = (
{
position = -410;
width = 224;
},
{
position = -64;
width = 224;
},
{
position = 800;
width = 192;
},
{
position = 1568;
width = 160;
}
);
vhints = (
{
position = -28;
width = 288;
}
);
};
};
},
{
glyphname = a;
lastChange = "2016-07-11 09:12:57 +0000";
layers = (
{
layerId = "661C2B86-736D-4514-95EC-07E90A3E9BAC";
paths = (
{
closed = 1;
nodes = (
"109 111 CURVE SMOOTH",
"109 89 OFFCURVE",
"114 66 OFFCURVE",
"136 66 CURVE SMOOTH",
"173 66 OFFCURVE",
"188 130 OFFCURVE",
"195 162 CURVE SMOOTH",
"216 263 LINE",
"152 263 OFFCURVE",
"109 174 OFFCURVE"
);
},
{
closed = 1;
nodes = (
"273 111 CURVE SMOOTH",
"273 94 OFFCURVE",
"274 77 OFFCURVE",
"289 77 CURVE SMOOTH",
"321 77 OFFCURVE",
"347 115 OFFCURVE",
"363 136 CURVE SMOOTH",
"368 142 OFFCURVE",
"373 145 OFFCURVE",
"377 145 CURVE SMOOTH",
"391 145 OFFCURVE",
"399 117 OFFCURVE",
"399 98 CURVE SMOOTH",
"399 93 OFFCURVE",
"399 88 OFFCURVE",
"397 85 CURVE",
"374 51 OFFCURVE",
"332 0 OFFCURVE",
"278 0 CURVE SMOOTH",
"242 0 OFFCURVE",
"226 25 OFFCURVE",
"214 55 CURVE",
"192 29 OFFCURVE",
"154 0 OFFCURVE",
"108 0 CURVE SMOOTH",
"55 0 OFFCURVE",
"22 42 OFFCURVE",
"22 96 CURVE SMOOTH",
"22 199 OFFCURVE",
"88 285 OFFCURVE",
"160 317 CURVE SMOOTH",
"175 324 OFFCURVE",
"190 327 OFFCURVE",
"206 327 CURVE SMOOTH",
"231 327 OFFCURVE",
"227 301 OFFCURVE",
"255 301 CURVE SMOOTH",
"260 301 OFFCURVE",
"266 302 OFFCURVE",
"271 302 CURVE SMOOTH",
"290 302 OFFCURVE",
"295 290 OFFCURVE",
"295 270 CURVE SMOOTH",
"295 214 OFFCURVE",
"273 167 OFFCURVE"
);
}
);
width = 317;
}
);
unicode = 0061;
userData = {
com.fontlab.hintData = {
hhints = (
{
position = 0;
width = 224;
},
{
position = 0;
width = 192;
},
{
position = 768;
width = 190;
}
);
vhints = (
{
position = 64;
width = 256;
}
);
};
};
},
{
glyphname = ae;
lastChange = "2016-07-11 09:12:57 +0000";
layers = (
{
layerId = "661C2B86-736D-4514-95EC-07E90A3E9BAC";
paths = (
{
closed = 1;
nodes = (
"109 111 CURVE SMOOTH",
"109 94 OFFCURVE",
"114 72 OFFCURVE",
"131 72 CURVE SMOOTH",
"166 72 OFFCURVE",
"189 133 OFFCURVE",
"195 162 CURVE SMOOTH",
"216 263 LINE",
"152 263 OFFCURVE",
"109 174 OFFCURVE"
);
},
{
closed = 1;
nodes = (
"289 99 CURVE",
"295 79 OFFCURVE",
"307 66 OFFCURVE",
"332 66 CURVE SMOOTH",
"396 66 OFFCURVE",
"448 114 OFFCURVE",
"481 147 CURVE SMOOTH",
"485 150 OFFCURVE",
"489 151 OFFCURVE",
"493 151 CURVE SMOOTH",
"508 151 OFFCURVE",
"524 133 OFFCURVE",
"524 117 CURVE SMOOTH",
"524 110 OFFCURVE",
"521 105 OFFCURVE",
"516 99 CURVE SMOOTH",
"472 53 OFFCURVE",
"412 0 OFFCURVE",
"326 0 CURVE SMOOTH",
"277 0 OFFCURVE",
"241 27 OFFCURVE",
"221 72 CURVE",
"206 37 OFFCURVE",
"160 0 OFFCURVE",
"108 0 CURVE SMOOTH",
"55 0 OFFCURVE",
"22 45 OFFCURVE",
"22 103 CURVE SMOOTH",
"22 207 OFFCURVE",
"101 327 OFFCURVE",
"206 327 CURVE SMOOTH",
"230 327 OFFCURVE",
"226 311 OFFCURVE",
"255 288 CURVE",
"278 313 OFFCURVE",
"305 328 OFFCURVE",
"337 328 CURVE SMOOTH",
"390 328 OFFCURVE",
"427 295 OFFCURVE",
"427 242 CURVE SMOOTH",
"427 166 OFFCURVE",
"351 116 OFFCURVE"
);
},
{
closed = 1;
nodes = (
"366 232 CURVE SMOOTH",
"366 250 OFFCURVE",
"358 264 OFFCURVE",
"341 264 CURVE SMOOTH",
"297 264 OFFCURVE",
"281 196 OFFCURVE",
"281 149 CURVE",
"309 161 OFFCURVE",
"366 191 OFFCURVE"
);
}
);
width = 434;
}
);
unicode = 00E6;
userData = {
com.fontlab.hintData = {
hhints = (
{
position = 0;
width = 210;
},
{
position = 0;
width = 192;
},
{
position = 771;
width = 188;
}
);
vhints = (
{
position = 64;
width = 256;
},
{
position = 1072;
width = 178;
}
);
};
};
},
{
glyphname = b;
lastChange = "2016-07-11 09:12:57 +0000";
layers = (
{
layerId = "661C2B86-736D-4514-95EC-07E90A3E9BAC";
paths = (
{
closed = 1;
nodes = (
"118 306 CURVE",
"159 383 OFFCURVE",
"228 455 OFFCURVE",
"228 563 CURVE SMOOTH",
"228 575 OFFCURVE",
"223 591 OFFCURVE",
"210 591 CURVE SMOOTH",
"156 591 OFFCURVE",
"126 348 OFFCURVE"
);
},
{
closed = 1;
nodes = (
"239 207 CURVE SMOOTH",
"239 237 OFFCURVE",
"224 250 OFFCURVE",
"194 250 CURVE SMOOTH",
"118 250 OFFCURVE",
"113 147 OFFCURVE",
"107 77 CURVE",
"126 71 OFFCURVE",
"148 66 OFFCURVE",
"172 66 CURVE SMOOTH",
"223 66 OFFCURVE",
"239 154 OFFCURVE"
);
},
{
closed = 1;
nodes = (
"293 544 CURVE SMOOTH",
"293 432 OFFCURVE",
"211 344 OFFCURVE",
"158 279 CURVE",
"163 275 LINE",
"180 296 OFFCURVE",
"201 328 OFFCURVE",
"230 328 CURVE SMOOTH",
"292 328 OFFCURVE",
"316 273 OFFCURVE",
"316 211 CURVE SMOOTH",
"316 165 OFFCURVE",
"304 124 OFFCURVE",
"282 98 CURVE",
"321 120 OFFCURVE",
"357 139 OFFCURVE",
"389 170 CURVE",
"392 171 OFFCURVE",
"395 172 OFFCURVE",
"398 172 CURVE SMOOTH",
"412 172 OFFCURVE",
"422 156 OFFCURVE",
"422 139 CURVE SMOOTH",
"422 130 OFFCURVE",
"419 120 OFFCURVE",
"412 113 CURVE",
"365 76 OFFCURVE",
"318 49 OFFCURVE",
"250 33 CURVE",
"228 13 OFFCURVE",
"202 1 OFFCURVE",
"165 1 CURVE SMOOTH",
"108 1 OFFCURVE",
"60 24 OFFCURVE",
"26 47 CURVE SMOOTH",
"22 50 OFFCURVE",
"20 51 OFFCURVE",
"20 52 CURVE",
"26 218 OFFCURVE",
"56 384 OFFCURVE",
"103 517 CURVE SMOOTH",
"120 568 OFFCURVE",
"151 656 OFFCURVE",
"213 656 CURVE SMOOTH",
"280 656 OFFCURVE",
"293 610 OFFCURVE"
);
}
);
width = 329;
}
);
unicode = 0062;
userData = {
com.fontlab.hintData = {
hhints = (
{
position = 2;
width = 190;
},
{
position = 732;
width = 228;
},
{
position = 1728;
width = 192;
}
);
vhints = (
{
position = 666;
width = 192;
},
{
position = 698;
width = 226;
}
);
};
};
},
{
glyphname = c;
lastChange = "2016-07-11 09:12:57 +0000";
layers = (
{
layerId = "661C2B86-736D-4514-95EC-07E90A3E9BAC";
paths = (
{
closed = 1;
nodes = (
"162 328 CURVE SMOOTH",
"216 328 OFFCURVE",
"263 300 OFFCURVE",
"263 253 CURVE SMOOTH",
"263 233 OFFCURVE",
"248 222 OFFCURVE",
"232 222 CURVE SMOOTH",
"198 222 OFFCURVE",
"202 268 OFFCURVE",
"159 268 CURVE SMOOTH",
"138 268 OFFCURVE",
"109 233 OFFCURVE",
"109 142 CURVE SMOOTH",
"109 101 OFFCURVE",
"123 66 OFFCURVE",
"164 66 CURVE SMOOTH",
"225 66 OFFCURVE",
"264 117 OFFCURVE",
"292 153 CURVE SMOOTH",
"298 160 OFFCURVE",
"304 163 OFFCURVE",
"308 163 CURVE SMOOTH",
"317 163 OFFCURVE",
"325 143 OFFCURVE",
"325 130 CURVE SMOOTH",
"325 121 OFFCURVE",
"323 112 OFFCURVE",
"319 106 CURVE SMOOTH",
"293 68 OFFCURVE",
"234 0 OFFCURVE",
"149 0 CURVE SMOOTH",
"68 0 OFFCURVE",
"22 60 OFFCURVE",
"22 141 CURVE SMOOTH",
"22 233 OFFCURVE",
"71 328 OFFCURVE"
);
}
);
width = 258;
}
);
unicode = 0063;
userData = {
com.fontlab.hintData = {
hhints = (
{
position = 0;
width = 192;
},
{
position = 784;
width = 176;
}
);
vhints = (
{
position = 64;
width = 256;
}
);
};
};
},
{
glyphname = d;
lastChange = "2016-07-11 09:12:57 +0000";
layers = (
{
layerId = "661C2B86-736D-4514-95EC-07E90A3E9BAC";
paths = (
{
closed = 1;
nodes = (
"350 544 CURVE SMOOTH",
"350 561 OFFCURVE",
"350 577 OFFCURVE",
"338 577 CURVE SMOOTH",
"273 577 OFFCURVE",
"270 321 OFFCURVE",
"270 261 CURVE SMOOTH",
"270 244 LINE",
"306 327 OFFCURVE",
"350 429 OFFCURVE"
);
},
{
closed = 1;
nodes = (
"285 134 CURVE SMOOTH",
"285 101 OFFCURVE",
"291 71 OFFCURVE",
"325 71 CURVE SMOOTH",
"357 71 OFFCURVE",
"393 106 OFFCURVE",
"414 125 CURVE SMOOTH",
"425 133 OFFCURVE",
"432 138 OFFCURVE",
"439 138 CURVE SMOOTH",
"450 138 OFFCURVE",
"456 116 OFFCURVE",
"456 98 CURVE SMOOTH",
"456 88 OFFCURVE",
"454 80 OFFCURVE",
"450 76 CURVE SMOOTH",
"408 37 OFFCURVE",
"356 0 OFFCURVE",
"293 0 CURVE SMOOTH",
"255 0 OFFCURVE",
"229 31 OFFCURVE",
"217 61 CURVE",
"189 34 OFFCURVE",
"151 0 OFFCURVE",
"99 0 CURVE SMOOTH",
"39 0 OFFCURVE",
"12 53 OFFCURVE",
"12 113 CURVE SMOOTH",
"12 219 OFFCURVE",
"90 300 OFFCURVE",
"186 309 CURVE",
"189 444 OFFCURVE",
"227 588 OFFCURVE",
"311 643 CURVE SMOOTH",
"324 651 OFFCURVE",
"338 656 OFFCURVE",
"353 656 CURVE SMOOTH",
"400 656 OFFCURVE",
"412 604 OFFCURVE",
"412 556 CURVE SMOOTH",
"412 407 OFFCURVE",
"340 301 OFFCURVE",
"295 193 CURVE SMOOTH",
"288 177 OFFCURVE",
"285 155 OFFCURVE"
);
},
{
closed = 1;
nodes = (
"94 105 CURVE SMOOTH",
"94 82 OFFCURVE",
"101 65 OFFCURVE",
"121 65 CURVE SMOOTH",
"153 65 OFFCURVE",
"178 94 OFFCURVE",
"193 112 CURVE",
"191 122 OFFCURVE",
"188 258 OFFCURVE",
"188 258 CURVE",
"139 235 OFFCURVE",
"94 174 OFFCURVE"
);
}
);
width = 392;
}
);
unicode = 0064;
userData = {
com.fontlab.hintData = {
hhints = (
{
position = 0;
width = 191;
},
{
position = 1;
width = 206;
},
{
position = 1688;
width = 232;
}
);
vhints = (
{
position = 35;
width = 240;
},
{
position = 549;
width = 240;
},
{
position = 564;
width = 269;
},
{
position = 1025;
width = 180;
}
);
};
};
},
{
glyphname = eth;
lastChange = "2016-07-11 09:12:57 +0000";
layers = (
{
layerId = "661C2B86-736D-4514-95EC-07E90A3E9BAC";
paths = (
{
closed = 1;
nodes = (
"99 142 CURVE SMOOTH",
"99 91 OFFCURVE",
"133 66 OFFCURVE",
"185 66 CURVE SMOOTH",
"251 66 OFFCURVE",
"279 191 OFFCURVE",
"290 249 CURVE",
"272 257 OFFCURVE",
"253 262 OFFCURVE",
"226 262 CURVE SMOOTH",
"161 262 OFFCURVE",
"99 207 OFFCURVE"
);
},
{
closed = 1;
nodes = (
"254 473 LINE",
"229 499 OFFCURVE",
"194 515 OFFCURVE",
"146 515 CURVE SMOOTH",
"129 515 OFFCURVE",
"118 536 OFFCURVE",
"118 553 CURVE SMOOTH",
"118 580 OFFCURVE",
"140 591 OFFCURVE",
"168 591 CURVE SMOOTH",
"247 591 OFFCURVE",
"298 553 OFFCURVE",
"332 507 CURVE",
"388 531 LINE SMOOTH",
"393 534 OFFCURVE",
"399 536 OFFCURVE",
"406 536 CURVE SMOOTH",
"423 536 OFFCURVE",
"433 520 OFFCURVE",
"433 501 CURVE SMOOTH",
"433 483 OFFCURVE",
"420 474 OFFCURVE",
"404 467 CURVE SMOOTH",
"363 449 LINE",
"377 415 OFFCURVE",
"385 374 OFFCURVE",
"385 327 CURVE SMOOTH",
"385 182 OFFCURVE",
"335 55 OFFCURVE",
"233 12 CURVE SMOOTH",
"215 4 OFFCURVE",
"195 0 OFFCURVE",
"174 0 CURVE SMOOTH",
"86 0 OFFCURVE",
"22 52 OFFCURVE",
"22 142 CURVE SMOOTH",
"22 237 OFFCURVE",
"102 306 OFFCURVE",
"173 331 CURVE SMOOTH",
"189 336 OFFCURVE",
"205 339 OFFCURVE",
"220 339 CURVE SMOOTH",
"251 339 OFFCURVE",
"276 335 OFFCURVE",
"298 328 CURVE",
"298 331 LINE SMOOTH",
"298 363 OFFCURVE",
"294 391 OFFCURVE",
"286 416 CURVE",
"265 407 OFFCURVE",
"244 398 OFFCURVE",
"223 388 CURVE SMOOTH",
"218 386 OFFCURVE",
"213 385 OFFCURVE",
"208 385 CURVE SMOOTH",
"189 385 OFFCURVE",
"175 404 OFFCURVE",
"175 422 CURVE SMOOTH",
"175 436 OFFCURVE",
"185 443 OFFCURVE",
"197 449 CURVE SMOOTH"
);
}
);
width = 372;
}
);
unicode = 00F0;
userData = {
com.fontlab.hintData = {
hhints = (
{
position = 0;
width = 192;
},
{
position = 767;
width = 224;
},
{
position = 1506;
width = 223;
}
);
vhints = (
{
position = 64;
width = 226;
},
{
position = 872;
width = 254;
}
);
};
};
},
{
glyphname = e;
lastChange = "2016-07-11 09:12:57 +0000";
layers = (
{
layerId = "661C2B86-736D-4514-95EC-07E90A3E9BAC";
paths = (
{
closed = 1;
nodes = (
"186 232 CURVE SMOOTH",
"186 250 OFFCURVE",
"177 264 OFFCURVE",
"161 264 CURVE SMOOTH",
"117 264 OFFCURVE",
"100 196 OFFCURVE",
"100 149 CURVE",
"128 161 OFFCURVE",
"186 191 OFFCURVE"
);
},
{
closed = 1;
nodes = (
"268 62 CURVE",
"227 28 OFFCURVE",
"175 7 OFFCURVE",
"129 7 CURVE SMOOTH",
"68 7 OFFCURVE",
"17 45 OFFCURVE",
"17 143 CURVE",
"17 235 OFFCURVE",
"65 328 OFFCURVE",
"157 328 CURVE SMOOTH",
"209 328 OFFCURVE",
"246 295 OFFCURVE",
"246 242 CURVE SMOOTH",
"246 166 OFFCURVE",
"170 116 OFFCURVE",
"108 99 CURVE",
"116 74 OFFCURVE",
"132 65 OFFCURVE",
"151 65 CURVE SMOOTH",
"190 65 OFFCURVE",
"242 102 OFFCURVE",
"261 117 CURVE",
"268 123 OFFCURVE",
"275 126 OFFCURVE",
"280 126 CURVE SMOOTH",
"289 126 OFFCURVE",
"295 119 OFFCURVE",
"295 108 CURVE SMOOTH",
"295 96 OFFCURVE",
"287 79 OFFCURVE"
);
}
);
width = 253;
}
);
unicode = 0065;
userData = {
com.fontlab.hintData = {
hhints = (
{
position = 21;
width = 168;
},
{
position = 771;
width = 188;
}
);
vhints = (
{
position = 50;
width = 244;
},
{
position = 543;
width = 178;
}
);
};
};
},
{
glyphname = f;
lastChange = "2016-07-11 09:12:57 +0000";
layers = (
{
layerId = "661C2B86-736D-4514-95EC-07E90A3E9BAC";
paths = (
{
closed = 1;
nodes = (
"272 523 CURVE SMOOTH",
"272 541 OFFCURVE",
"269 557 OFFCURVE",
"255 557 CURVE SMOOTH",
"176 557 OFFCURVE",
"122 265 OFFCURVE",
"113 234 CURVE",
"166 300 OFFCURVE",
"272 433 OFFCURVE"
);
},
{
closed = 1;
nodes = (
"103 -130 CURVE SMOOTH",
"144 -130 OFFCURVE",
"144 -59 OFFCURVE",
"144 -21 CURVE SMOOTH",
"144 -19 LINE SMOOTH",
"144 64 OFFCURVE",
"122 131 OFFCURVE",
"98 178 CURVE",
"95 113 OFFCURVE",
"89 49 OFFCURVE",
"89 -16 CURVE SMOOTH",
"89 -64 OFFCURVE",
"90 -130 OFFCURVE"
);
},
{
closed = 1;
nodes = (
"338 223 CURVE SMOOTH",
"338 155 OFFCURVE",
"245 148 OFFCURVE",
"176 146 CURVE",
"195 104 OFFCURVE",
"216 53 OFFCURVE",
"216 -10 CURVE SMOOTH",
"216 -91 OFFCURVE",
"181 -206 OFFCURVE",
"92 -206 CURVE SMOOTH",
"21 -206 OFFCURVE",
"12 -94 OFFCURVE",
"12 -13 CURVE SMOOTH",
"12 178 OFFCURVE",
"77 634 OFFCURVE",
"267 634 CURVE SMOOTH",
"310 634 OFFCURVE",
"336 602 OFFCURVE",
"336 555 CURVE SMOOTH",
"336 425 OFFCURVE",
"219 285 OFFCURVE",
"152 206 CURVE",
"162 203 OFFCURVE",
"178 201 OFFCURVE",
"191 201 CURVE SMOOTH",
"248 201 OFFCURVE",
"273 218 OFFCURVE",
"320 244 CURVE SMOOTH",
"322 246 OFFCURVE",
"324 246 OFFCURVE",
"326 246 CURVE SMOOTH",
"334 246 OFFCURVE",
"338 236 OFFCURVE"
);
}
);
width = 235;
}
);
unicode = 0066;
userData = {
com.fontlab.hintData = {
hhints = (
{
position = -604;
width = 225;
},
{
position = 427;
width = 160;
},
{
position = 1631;
width = 225;
}
);
vhints = (
{
position = 34;
width = 225;
},
{
position = 422;
width = 211;
},
{
position = 795;
width = 187;
}
);
};
};
},
{
glyphname = g;
lastChange = "2016-07-11 09:12:57 +0000";
layers = (
{
layerId = "661C2B86-736D-4514-95EC-07E90A3E9BAC";
paths = (
{
closed = 1;
nodes = (
"43 -252 CURVE SMOOTH",
"110 -252 OFFCURVE",
"137 -143 OFFCURVE",
"148 -88 CURVE",
"103 -118 OFFCURVE",
"57 -167 OFFCURVE",
"35 -219 CURVE SMOOTH",
"31 -227 OFFCURVE",
"29 -234 OFFCURVE",
"29 -239 CURVE SMOOTH",
"29 -247 OFFCURVE",
"34 -252 OFFCURVE"
);
},
{
closed = 1;
nodes = (
"94 111 CURVE SMOOTH",
"94 89 OFFCURVE",
"98 66 OFFCURVE",
"120 66 CURVE SMOOTH",
"157 66 OFFCURVE",
"173 130 OFFCURVE",
"179 162 CURVE SMOOTH",
"200 263 LINE",
"136 263 OFFCURVE",
"94 174 OFFCURVE"
);
},
{
closed = 1;
nodes = (
"39 -317 CURVE SMOOTH",
"-8 -317 OFFCURVE",
"-38 -297 OFFCURVE",
"-38 -249 CURVE SMOOTH",
"-38 -201 OFFCURVE",
"0 -159 OFFCURVE",
"24 -129 CURVE SMOOTH",
"64 -81 OFFCURVE",
"111 -36 OFFCURVE",
"160 4 CURVE",
"169 36 LINE",
"150 19 OFFCURVE",
"123 -1 OFFCURVE",
"92 -1 CURVE SMOOTH",
"39 -1 OFFCURVE",
"6 42 OFFCURVE",
"6 96 CURVE SMOOTH",
"6 199 OFFCURVE",
"72 285 OFFCURVE",
"144 317 CURVE SMOOTH",
"159 324 OFFCURVE",
"175 327 OFFCURVE",
"190 327 CURVE SMOOTH",
"215 327 OFFCURVE",
"211 301 OFFCURVE",
"240 301 CURVE SMOOTH",
"245 301 OFFCURVE",
"250 302 OFFCURVE",
"255 302 CURVE SMOOTH",
"274 302 OFFCURVE",
"280 290 OFFCURVE",
"280 270 CURVE SMOOTH",
"280 192 OFFCURVE",
"260 122 OFFCURVE",
"247 49 CURVE",
"293 76 OFFCURVE",
"324 117 OFFCURVE",
"355 163 CURVE SMOOTH",
"357 165 OFFCURVE",
"359 166 OFFCURVE",
"360 166 CURVE SMOOTH",
"369 166 OFFCURVE",
"382 144 OFFCURVE",
"382 120 CURVE SMOOTH",
"382 109 OFFCURVE",
"379 97 OFFCURVE",
"372 87 CURVE SMOOTH",
"337 42 OFFCURVE",
"285 3 OFFCURVE",
"236 -27 CURVE",
"216 -144 OFFCURVE",
"184 -267 OFFCURVE",
"93 -307 CURVE SMOOTH",
"77 -314 OFFCURVE",
"58 -317 OFFCURVE"
);
}
);
width = 297;
}
);
unicode = 0067;
userData = {
com.fontlab.hintData = {
hhints = (
{
position = -928;
width = 192;
},
{
position = -2;
width = 194;
},
{
position = 768;
width = 190;
}
);
vhints = (
{
position = -110;
width = 196;
},
{
position = 18;
width = 256;
}
);
};
};
},
{
glyphname = h;
lastChange = "2016-07-11 09:12:57 +0000";
layers = (
{
layerId = "661C2B86-736D-4514-95EC-07E90A3E9BAC";
paths = (
{
closed = 1;
nodes = (
"107 243 CURVE",
"147 336 OFFCURVE",
"213 443 OFFCURVE",
"213 565 CURVE SMOOTH",
"213 582 OFFCURVE",
"210 591 OFFCURVE",
"206 591 CURVE SMOOTH",
"179 591 OFFCURVE",
"161 515 OFFCURVE",
"149 477 CURVE SMOOTH",
"127 408 OFFCURVE",
"114 325 OFFCURVE"
);
},
{
closed = 1;
nodes = (
"294 81 CURVE SMOOTH",
"340 81 OFFCURVE",
"364 139 OFFCURVE",
"402 139 CURVE SMOOTH",
"415 139 OFFCURVE",
"419 126 OFFCURVE",
"419 111 CURVE SMOOTH",
"419 94 OFFCURVE",
"414 75 OFFCURVE",
"411 72 CURVE SMOOTH",
"377 45 OFFCURVE",
"328 0 OFFCURVE",
"270 0 CURVE SMOOTH",
"226 0 OFFCURVE",
"197 34 OFFCURVE",
"197 77 CURVE SMOOTH",
"197 131 OFFCURVE",
"217 183 OFFCURVE",
"235 221 CURVE SMOOTH",
"237 227 OFFCURVE",
"239 230 OFFCURVE",
"239 230 CURVE",
"232 231 LINE",
"164 187 OFFCURVE",
"134 85 OFFCURVE",
"90 15 CURVE SMOOTH",
"84 6 OFFCURVE",
"79 0 OFFCURVE",
"66 0 CURVE SMOOTH",
"33 0 OFFCURVE",
"32 43 OFFCURVE",
"32 76 CURVE SMOOTH",
"32 264 OFFCURVE",
"45 464 OFFCURVE",
"117 583 CURVE SMOOTH",
"139 621 OFFCURVE",
"173 656 OFFCURVE",
"227 656 CURVE SMOOTH",
"269 656 OFFCURVE",
"282 628 OFFCURVE",
"282 581 CURVE SMOOTH",
"282 433 OFFCURVE",
"202 314 OFFCURVE",
"147 217 CURVE",
"154 213 LINE",
"183 251 OFFCURVE",
"218 296 OFFCURVE",
"259 322 CURVE SMOOTH",
"271 330 OFFCURVE",
"283 334 OFFCURVE",
"294 334 CURVE SMOOTH",
"314 334 OFFCURVE",
"324 318 OFFCURVE",
"324 297 CURVE SMOOTH",
"324 230 OFFCURVE",
"283 172 OFFCURVE",
"283 103 CURVE SMOOTH",
"283 92 OFFCURVE",
"284 81 OFFCURVE"
);
}
);
width = 341;
}
);
unicode = 0068;
userData = {
com.fontlab.hintData = {
hhints = (
{
position = 0;
width = 236;
},
{
position = 958;
width = 20;
},
{
position = 1729;
width = 191;
}
);
vhints = (
{
position = 577;
width = 250;
},
{
position = 622;
width = 204;
}
);
};
};
},
{
glyphname = i;
lastChange = "2016-07-11 09:12:57 +0000";
layers = (
{
layerId = "661C2B86-736D-4514-95EC-07E90A3E9BAC";
paths = (
{
closed = 1;
nodes = (
"153 372 CURVE SMOOTH",
"117 372 OFFCURVE",
"94 390 OFFCURVE",
"94 424 CURVE SMOOTH",
"94 460 OFFCURVE",
"124 481 OFFCURVE",
"161 481 CURVE SMOOTH",
"193 481 OFFCURVE",
"216 467 OFFCURVE",
"216 433 CURVE SMOOTH",
"216 395 OFFCURVE",
"191 372 OFFCURVE"
);
},
{
closed = 1;
nodes = (
"112 99 CURVE SMOOTH",
"112 82 OFFCURVE",
"113 66 OFFCURVE",
"129 66 CURVE SMOOTH",
"174 66 OFFCURVE",
"217 120 OFFCURVE",
"244 142 CURVE SMOOTH",
"248 146 OFFCURVE",
"251 148 OFFCURVE",
"254 148 CURVE SMOOTH",
"259 148 OFFCURVE",
"261 140 OFFCURVE",
"261 131 CURVE SMOOTH",
"261 111 OFFCURVE",
"252 80 OFFCURVE",
"244 73 CURVE SMOOTH",
"210 42 OFFCURVE",
"154 0 OFFCURVE",
"94 0 CURVE SMOOTH",
"49 0 OFFCURVE",
"30 24 OFFCURVE",
"30 69 CURVE SMOOTH",
"30 150 OFFCURVE",
"64 226 OFFCURVE",
"83 295 CURVE SMOOTH",
"88 317 OFFCURVE",
"112 328 OFFCURVE",
"134 328 CURVE SMOOTH",
"150 328 OFFCURVE",
"158 323 OFFCURVE",
"158 309 CURVE SMOOTH",
"158 238 OFFCURVE",
"112 176 OFFCURVE"
);
}
);
width = 182;
}
);
unicode = 0069;
userData = {
com.fontlab.hintData = {
hhints = (
{
position = 0;
width = 192;
},
{
position = 940;
width = 20;
},
{
position = 1089;
width = 319;
}
);
vhints = (
{
position = 88;
width = 239;
},
{
position = 276;
width = 356;
}
);
};
};
},
{
glyphname = idotless;
lastChange = "2016-07-11 09:53:09 +0000";
layers = (
{
layerId = "661C2B86-736D-4514-95EC-07E90A3E9BAC";
paths = (
{
closed = 1;
nodes = (
"120 99 CURVE SMOOTH",
"120 82 OFFCURVE",
"122 66 OFFCURVE",
"138 66 CURVE SMOOTH",
"183 66 OFFCURVE",
"225 120 OFFCURVE",
"252 142 CURVE",
"252 73 LINE",
"217 41 OFFCURVE",
"159 0 OFFCURVE",
"96 0 CURVE SMOOTH",
"52 0 OFFCURVE",
"33 24 OFFCURVE",
"33 69 CURVE SMOOTH",
"33 150 OFFCURVE",
"62 226 OFFCURVE",
"79 295 CURVE SMOOTH",
"85 317 OFFCURVE",
"115 328 OFFCURVE",
"142 328 CURVE SMOOTH",
"158 328 OFFCURVE",
"166 323 OFFCURVE",
"166 309 CURVE SMOOTH",
"166 238 OFFCURVE",
"120 176 OFFCURVE"
);
}
);
width = 184;
}
);
unicode = 0131;
userData = {
com.fontlab.hintData = {
hhints = (
{
position = 0;
width = 192;
},
{
position = 213;
width = 203;
},
{
position = 940;
width = 20;
}
);
vhints = (
{
position = 96;
width = 256;
}
);
};
};
},
{
glyphname = j;
lastChange = "2016-07-11 09:12:57 +0000";
layers = (
{
layerId = "661C2B86-736D-4514-95EC-07E90A3E9BAC";
paths = (
{
closed = 1;
nodes = (
"141 372 CURVE SMOOTH",
"105 372 OFFCURVE",
"82 390 OFFCURVE",
"82 424 CURVE SMOOTH",
"82 460 OFFCURVE",
"112 481 OFFCURVE",
"149 481 CURVE SMOOTH",
"183 481 OFFCURVE",
"207 467 OFFCURVE",
"207 433 CURVE SMOOTH",
"207 395 OFFCURVE",
"181 372 OFFCURVE"
);
},
{
closed = 1;
nodes = (
"105 -131 CURVE SMOOTH",
"136 -131 OFFCURVE",
"138 -64 OFFCURVE",
"138 -23 CURVE SMOOTH",
"138 -11 LINE SMOOTH",
"138 50 OFFCURVE",
"119 102 OFFCURVE",
"104 153 CURVE",
"93 84 OFFCURVE",
"83 13 OFFCURVE",
"83 -66 CURVE SMOOTH",
"83 -88 OFFCURVE",
"87 -131 OFFCURVE"
);
},
{
closed = 1;
nodes = (
"173 131 CURVE",
"189 91 OFFCURVE",
"203 44 OFFCURVE",
"203 -11 CURVE SMOOTH",
"203 -96 OFFCURVE",
"180 -208 OFFCURVE",
"94 -208 CURVE SMOOTH",
"11 -208 OFFCURVE",
"6 -88 OFFCURVE",
"6 0 CURVE SMOOTH",
"6 95 OFFCURVE",
"32 202 OFFCURVE",
"58 280 CURVE SMOOTH",
"70 315 OFFCURVE",
"82 328 OFFCURVE",
"127 328 CURVE SMOOTH",
"141 328 OFFCURVE",
"150 319 OFFCURVE",
"150 306 CURVE SMOOTH",
"150 284 OFFCURVE",
"140 258 OFFCURVE",
"134 241 CURVE SMOOTH",
"115 186 LINE",
"189 198 OFFCURVE",
"241 203 OFFCURVE",
"302 230 CURVE SMOOTH",
"305 231 OFFCURVE",
"307 231 OFFCURVE",
"309 231 CURVE SMOOTH",
"318 231 OFFCURVE",
"322 223 OFFCURVE",
"322 211 CURVE SMOOTH",
"322 146 OFFCURVE",
"234 132 OFFCURVE"
);
}
);
width = 196;
}
);
unicode = 006A;
userData = {
com.fontlab.hintData = {
hhints = (
{
position = -608;
width = 224;
},
{
position = 940;
width = 20;
},
{
position = 1089;
width = 319;
}
);
vhints = (
{
position = 19;
width = 224;
},
{
position = 241;
width = 366;
},
{
position = 403;
width = 192;
}
);
};
};
},
{
glyphname = k;
lastChange = "2016-07-11 09:12:57 +0000";
layers = (
{
layerId = "661C2B86-736D-4514-95EC-07E90A3E9BAC";
paths = (
{
closed = 1;
nodes = (
"216 564 CURVE SMOOTH",
"216 573 OFFCURVE",
"211 576 OFFCURVE",
"203 576 CURVE SMOOTH",
"156 576 OFFCURVE",
"116 379 OFFCURVE",
"109 302 CURVE",
"145 400 OFFCURVE",
"172 426 OFFCURVE",
"206 521 CURVE SMOOTH",
"211 534 OFFCURVE",
"216 549 OFFCURVE"
);
},
{
closed = 1;
nodes = (
"65 -4 CURVE SMOOTH",
"34 -4 OFFCURVE",
"28 45 OFFCURVE",
"28 79 CURVE SMOOTH",
"28 265 OFFCURVE",
"50 460 OFFCURVE",
"122 580 CURVE SMOOTH",
"142 615 OFFCURVE",
"173 652 OFFCURVE",
"226 652 CURVE SMOOTH",
"271 652 OFFCURVE",
"284 621 OFFCURVE",
"284 576 CURVE SMOOTH",
"284 451 OFFCURVE",
"204 378 OFFCURVE",
"157 295 CURVE",
"111 230 LINE",
"100 136 LINE",
"139 214 OFFCURVE",
"199 322 OFFCURVE",
"280 322 CURVE SMOOTH",
"324 322 OFFCURVE",
"360 293 OFFCURVE",
"360 248 CURVE SMOOTH",
"360 185 OFFCURVE",
"315 140 OFFCURVE",
"261 109 CURVE SMOOTH",
"247 101 OFFCURVE",
"239 89 OFFCURVE",
"239 79 CURVE SMOOTH",
"239 70 OFFCURVE",
"245 63 OFFCURVE",
"260 63 CURVE SMOOTH",
"317 63 OFFCURVE",
"375 125 OFFCURVE",
"400 146 CURVE SMOOTH",
"401 147 OFFCURVE",
"402 147 OFFCURVE",
"403 147 CURVE SMOOTH",
"408 147 OFFCURVE",
"415 119 OFFCURVE",
"415 98 CURVE SMOOTH",
"415 90 OFFCURVE",
"414 83 OFFCURVE",
"410 79 CURVE SMOOTH",
"372 43 OFFCURVE",
"326 0 OFFCURVE",
"250 0 CURVE SMOOTH",
"209 0 OFFCURVE",
"165 26 OFFCURVE",
"165 67 CURVE SMOOTH",
"165 130 OFFCURVE",
"227 155 OFFCURVE",
"266 187 CURVE SMOOTH",
"279 198 OFFCURVE",
"284 210 OFFCURVE",
"284 219 CURVE SMOOTH",
"284 232 OFFCURVE",
"275 242 OFFCURVE",
"260 242 CURVE SMOOTH",
"227 242 OFFCURVE",
"194 188 OFFCURVE",
"181 166 CURVE SMOOTH",
"155 121 OFFCURVE",
"102 -4 OFFCURVE"
);
}
);
width = 341;
}
);
unicode = 006B;
userData = {
com.fontlab.hintData = {
hhints = (
{
position = -1;
width = 185;
},
{
position = 707;
width = 234;
},
{
position = 1685;
width = 222;
}
);
vhints = (
{
position = 482;
width = 217;
},
{
position = 631;
width = 201;
},
{
position = 831;
width = 222;
}
);
};
};
},
{
glyphname = l;
lastChange = "2016-07-11 09:12:57 +0000";
layers = (
{
layerId = "661C2B86-736D-4514-95EC-07E90A3E9BAC";
paths = (
{
closed = 1;
nodes = (
"239 544 CURVE SMOOTH",
"239 554 OFFCURVE",
"235 561 OFFCURVE",
"228 561 CURVE SMOOTH",
"151 561 OFFCURVE",
"122 333 OFFCURVE",
"122 253 CURVE",
"164 326 OFFCURVE",
"206 409 OFFCURVE",
"230 499 CURVE SMOOTH",
"235 515 OFFCURVE",
"239 530 OFFCURVE"
);
},
{
closed = 1;
nodes = (
"292 102 CURVE",
"271 45 OFFCURVE",
"190 0 OFFCURVE",
"125 0 CURVE SMOOTH",
"60 0 OFFCURVE",
"38 109 OFFCURVE",
"38 177 CURVE SMOOTH",
"38 341 OFFCURVE",
"77 504 OFFCURVE",
"150 597 CURVE SMOOTH",
"174 628 OFFCURVE",
"206 656 OFFCURVE",
"254 656 CURVE SMOOTH",
"293 656 OFFCURVE",
"303 619 OFFCURVE",
"303 579 CURVE SMOOTH",
"303 415 OFFCURVE",
"207 287 OFFCURVE",
"132 193 CURVE SMOOTH",
"127 187 OFFCURVE",
"126 170 OFFCURVE",
"126 158 CURVE SMOOTH",
"126 126 OFFCURVE",
"130 73 OFFCURVE",
"163 73 CURVE SMOOTH",
"196 73 OFFCURVE",
"236 114 OFFCURVE",
"260 139 CURVE",
"267 143 OFFCURVE",
"273 145 OFFCURVE",
"278 145 CURVE SMOOTH",
"286 145 OFFCURVE",
"292 127 OFFCURVE",
"292 111 CURVE SMOOTH",
"292 108 OFFCURVE",
"292 105 OFFCURVE"
);
}
);
width = 201;
}
);
unicode = 006C;
userData = {
com.fontlab.hintData = {
hhints = (
{
position = 0;
width = 214;
},
{
position = 1641;
width = 279;
}
);
vhints = (
{
position = 110;
width = 258;
},
{
position = 699;
width = 188;
}
);
};
};
},
{
glyphname = lslash;
lastChange = "2016-07-11 09:12:57 +0000";
layers = (
{
layerId = "661C2B86-736D-4514-95EC-07E90A3E9BAC";
paths = (
{
closed = 1;
nodes = (
"233 544 CURVE SMOOTH",
"233 554 OFFCURVE",
"230 561 OFFCURVE",
"223 561 CURVE SMOOTH",
"187 561 OFFCURVE",
"161 511 OFFCURVE",
"144 450 CURVE",
"167 455 OFFCURVE",
"191 460 OFFCURVE",
"215 465 CURVE",
"222 487 OFFCURVE",
"233 520 OFFCURVE"
);
},
{
closed = 1;
nodes = (
"120 158 CURVE SMOOTH",
"120 136 OFFCURVE",
"124 83 OFFCURVE",
"143 83 CURVE SMOOTH",
"171 83 OFFCURVE",
"196 104 OFFCURVE",
"214 116 CURVE SMOOTH",
"228 126 OFFCURVE",
"243 137 OFFCURVE",
"259 149 CURVE",
"287 78 LINE",
"244 47 OFFCURVE",
"202 17 OFFCURVE",
"145 3 CURVE SMOOTH",
"136 1 OFFCURVE",
"128 0 OFFCURVE",
"120 0 CURVE SMOOTH",
"55 0 OFFCURVE",
"32 109 OFFCURVE",
"32 177 CURVE SMOOTH",
"32 240 OFFCURVE",
"38 304 OFFCURVE",
"49 362 CURVE",
"35 359 OFFCURVE",
"21 356 OFFCURVE",
"8 353 CURVE SMOOTH",
"4 353 OFFCURVE",
"1 352 OFFCURVE",
"-2 352 CURVE SMOOTH",
"-22 352 OFFCURVE",
"-34 372 OFFCURVE",
"-34 391 CURVE SMOOTH",
"-34 423 OFFCURVE",
"30 428 OFFCURVE",
"66 434 CURVE",
"85 499 OFFCURVE",
"111 555 OFFCURVE",
"145 597 CURVE SMOOTH",
"169 628 OFFCURVE",
"201 656 OFFCURVE",
"248 656 CURVE SMOOTH",
"288 656 OFFCURVE",
"298 619 OFFCURVE",
"298 579 CURVE SMOOTH",
"298 544 OFFCURVE",
"293 511 OFFCURVE",
"285 480 CURVE",
"298 483 OFFCURVE",
"311 486 OFFCURVE",
"324 489 CURVE",
"327 490 OFFCURVE",
"331 490 OFFCURVE",
"335 490 CURVE SMOOTH",
"354 490 OFFCURVE",
"362 477 OFFCURVE",
"362 457 CURVE SMOOTH",
"362 423 OFFCURVE",
"324 422 OFFCURVE",
"293 415 CURVE SMOOTH",
"260 408 LINE",
"240 360 OFFCURVE",
"214 318 OFFCURVE",
"190 281 CURVE SMOOTH",
"170 249 OFFCURVE",
"148 220 OFFCURVE",
"126 193 CURVE SMOOTH",
"121 187 OFFCURVE",
"120 170 OFFCURVE"
);
},
{
closed = 1;
nodes = (
"129 379 CURVE",
"121 330 OFFCURVE",
"117 282 OFFCURVE",
"117 253 CURVE",
"142 296 OFFCURVE",
"166 342 OFFCURVE",
"187 392 CURVE",
"167 388 OFFCURVE",
"148 383 OFFCURVE"
);
}
);
width = 197;
}
);
unicode = 0142;
userData = {
com.fontlab.hintData = {
hhints = (
{
position = 0;
width = 244;
},
{
position = 1641;
width = 279;
}
);
vhints = (
{
position = 94;
width = 258;
},
{
position = 683;
width = 188;
}
);
};
};
},
{
glyphname = m;
lastChange = "2016-07-11 09:12:57 +0000";
layers = (
{
layerId = "661C2B86-736D-4514-95EC-07E90A3E9BAC";
paths = (
{
closed = 1;
nodes = (
"281 298 CURVE SMOOTH",
"281 279 OFFCURVE",
"262 179 OFFCURVE",
"262 178 CURVE",
"268 171 LINE",
"292 227 OFFCURVE",
"322 282 OFFCURVE",
"358 319 CURVE SMOOTH",
"363 325 OFFCURVE",
"371 328 OFFCURVE",
"380 328 CURVE SMOOTH",
"400 328 OFFCURVE",
"416 318 OFFCURVE",
"416 298 CURVE SMOOTH",
"416 268 OFFCURVE",
"400 147 OFFCURVE",
"400 108 CURVE SMOOTH",
"400 91 OFFCURVE",
"401 66 OFFCURVE",
"419 66 CURVE SMOOTH",
"439 66 OFFCURVE",
"470 97 OFFCURVE",
"488 119 CURVE SMOOTH",
"497 130 OFFCURVE",
"503 133 OFFCURVE",
"507 133 CURVE SMOOTH",
"515 133 OFFCURVE",
"518 114 OFFCURVE",
"518 95 CURVE SMOOTH",
"518 86 OFFCURVE",
"517 79 OFFCURVE",
"517 75 CURVE",
"483 44 OFFCURVE",
"448 4 OFFCURVE",
"388 4 CURVE SMOOTH",
"337 4 OFFCURVE",
"329 38 OFFCURVE",
"329 83 CURVE SMOOTH",
"329 136 OFFCURVE",
"335 187 OFFCURVE",
"350 236 CURVE",
"315 171 OFFCURVE",
"284 99 OFFCURVE",
"261 27 CURVE SMOOTH",
"256 10 OFFCURVE",
"243 4 OFFCURVE",
"222 4 CURVE SMOOTH",
"196 4 OFFCURVE",
"191 36 OFFCURVE",
"191 66 CURVE SMOOTH",
"191 124 OFFCURVE",
"206 176 OFFCURVE",
"217 231 CURVE",
"173 165 OFFCURVE",
"145 103 OFFCURVE",
"115 27 CURVE SMOOTH",
"108 12 OFFCURVE",
"99 4 OFFCURVE",
"80 4 CURVE SMOOTH",
"45 4 OFFCURVE",
"39 36 OFFCURVE",
"39 73 CURVE SMOOTH",
"39 152 OFFCURVE",
"54 233 OFFCURVE",
"75 296 CURVE SMOOTH",
"80 314 OFFCURVE",
"95 329 OFFCURVE",
"116 329 CURVE SMOOTH",
"134 329 OFFCURVE",
"147 318 OFFCURVE",
"147 299 CURVE SMOOTH",
"147 297 OFFCURVE",
"147 294 OFFCURVE",
"147 293 CURVE SMOOTH",
"137 251 OFFCURVE",
"125 206 OFFCURVE",
"120 178 CURVE",
"126 171 LINE",
"150 224 OFFCURVE",
"183 285 OFFCURVE",
"224 319 CURVE SMOOTH",
"231 325 OFFCURVE",
"239 328 OFFCURVE",
"248 328 CURVE SMOOTH",
"267 328 OFFCURVE",
"281 317 OFFCURVE"
);
}
);
width = 448;
}
);
unicode = 006D;
userData = {
com.fontlab.hintData = {
hhints = (
{
position = 11;
width = 183;
},
{
position = 940;
width = 20;
}
);
vhints = (
{
position = 218;
width = 212;
},
{
position = 559;
width = 206;
},
{
position = 963;
width = 208;
}
);
};
};
},
{
glyphname = n;
lastChange = "2016-07-11 09:12:57 +0000";
layers = (
{
layerId = "661C2B86-736D-4514-95EC-07E90A3E9BAC";
paths = (
{
closed = 1;
nodes = (
"342 57 CURVE SMOOTH",
"342 23 OFFCURVE",
"304 -4 OFFCURVE",
"271 -4 CURVE SMOOTH",
"221 -4 OFFCURVE",
"202 36 OFFCURVE",
"202 90 CURVE SMOOTH",
"202 129 OFFCURVE",
"207 166 OFFCURVE",
"213 202 CURVE",
"118 24 LINE",
"110 9 OFFCURVE",
"102 0 OFFCURVE",
"82 0 CURVE SMOOTH",
"45 0 OFFCURVE",
"39 34 OFFCURVE",
"39 71 CURVE SMOOTH",
"39 143 OFFCURVE",
"43 328 OFFCURVE",
"111 328 CURVE SMOOTH",
"125 328 OFFCURVE",
"135 317 OFFCURVE",
"135 299 CURVE SMOOTH",
"135 256 OFFCURVE",
"119 187 OFFCURVE",
"113 159 CURVE",
"140 209 OFFCURVE",
"182 328 OFFCURVE",
"253 328 CURVE SMOOTH",
"279 328 OFFCURVE",
"290 303 OFFCURVE",
"290 274 CURVE SMOOTH",
"290 212 OFFCURVE",
"271 141 OFFCURVE",
"271 103 CURVE SMOOTH",
"271 77 OFFCURVE",
"278 64 OFFCURVE",
"289 64 CURVE SMOOTH",
"304 64 OFFCURVE",
"310 73 OFFCURVE",
"324 73 CURVE SMOOTH",
"333 73 OFFCURVE",
"342 69 OFFCURVE"
);
}
);
width = 324;
}
);
unicode = 006E;
userData = {
com.fontlab.hintData = {
hhints = (
{
position = -12;
width = 199;
},
{
position = 940;
width = 20;
}
);
vhints = (
{
position = 592;
width = 201;
}
);
};
};
},
{
glyphname = o;
lastChange = "2016-07-11 09:12:57 +0000";
layers = (
{
layerId = "661C2B86-736D-4514-95EC-07E90A3E9BAC";
paths = (
{
closed = 1;
nodes = (
"153 219 CURVE SMOOTH",
"153 238 OFFCURVE",
"174 248 OFFCURVE",
"174 260 CURVE SMOOTH",
"174 262 OFFCURVE",
"172 263 OFFCURVE",
"169 263 CURVE SMOOTH",
"121 263 OFFCURVE",
"89 201 OFFCURVE",
"89 152 CURVE SMOOTH",
"89 107 OFFCURVE",
"104 66 OFFCURVE",
"149 66 CURVE SMOOTH",
"186 66 OFFCURVE",
"209 120 OFFCURVE",
"209 158 CURVE",
"186 170 OFFCURVE",
"153 188 OFFCURVE"
);
},
{
closed = 1;
nodes = (
"281 198 CURVE SMOOTH",
"296 198 OFFCURVE",
"307 252 OFFCURVE",
"327 252 CURVE SMOOTH",
"337 252 OFFCURVE",
"347 244 OFFCURVE",
"347 234 CURVE SMOOTH",
"347 190 OFFCURVE",
"305 139 OFFCURVE",
"269 139 CURVE",
"269 85 OFFCURVE",
"228 0 OFFCURVE",
"136 0 CURVE SMOOTH",
"57 0 OFFCURVE",
"23 70 OFFCURVE",
"23 149 CURVE SMOOTH",
"23 242 OFFCURVE",
"81 330 OFFCURVE",
"171 330 CURVE SMOOTH",
"229 330 OFFCURVE",
"272 283 OFFCURVE",
"272 211 CURVE SMOOTH",
"272 202 OFFCURVE",
"276 198 OFFCURVE"
);
}
);
width = 278;
}
);
unicode = 006F;
userData = {
com.fontlab.hintData = {
hhints = (
{
position = 0;
width = 192;
},
{
position = 407;
width = 172;
},
{
position = 768;
width = 197;
}
);
vhints = (
{
position = 67;
width = 194;
},
{
position = 611;
width = 177;
}
);
};
};
},
{
glyphname = oslash;
lastChange = "2016-07-11 09:12:57 +0000";
layers = (
{
layerId = "661C2B86-736D-4514-95EC-07E90A3E9BAC";
paths = (
{
closed = 1;
nodes = (
"154 66 CURVE",
"194 74 OFFCURVE",
"218 140 OFFCURVE",
"218 188 CURVE SMOOTH",
"218 212 OFFCURVE",
"213 233 OFFCURVE",
"203 246 CURVE",
"187 187 OFFCURVE",
"171 127 OFFCURVE"
);
},
{
closed = 1;
nodes = (
"157 261 LINE",
"116 249 OFFCURVE",
"88 188 OFFCURVE",
"88 135 CURVE SMOOTH",
"88 112 OFFCURVE",
"94 93 OFFCURVE",
"106 81 CURVE"
);
},
{
closed = 1;
nodes = (
"223 324 LINE",
"297 309 OFFCURVE",
"346 257 OFFCURVE",
"385 207 CURVE",
"379 159 LINE",
"349 198 OFFCURVE",
"297 232 OFFCURVE",
"256 260 CURVE",
"254 256 LINE",
"265 233 OFFCURVE",
"273 203 OFFCURVE",
"273 172 CURVE SMOOTH",
"273 84 OFFCURVE",
"221 0 OFFCURVE",
"135 0 CURVE",
"123 -37 LINE",
"118 -50 OFFCURVE",
"112 -62 OFFCURVE",
"95 -62 CURVE SMOOTH",
"81 -62 OFFCURVE",
"77 -54 OFFCURVE",
"77 -39 CURVE SMOOTH",
"77 -20 OFFCURVE",
"81 -8 OFFCURVE",
"87 11 CURVE",
"44 33 OFFCURVE",
"22 85 OFFCURVE",
"22 149 CURVE SMOOTH",
"22 250 OFFCURVE",
"80 323 OFFCURVE",
"176 328 CURVE",
"184 360 OFFCURVE",
"191 416 OFFCURVE",
"230 416 CURVE SMOOTH",
"241 416 OFFCURVE",
"241 402 OFFCURVE",
"241 391 CURVE SMOOTH",
"241 380 OFFCURVE",
"235 366 OFFCURVE",
"232 356 CURVE SMOOTH"
);
}
);
width = 298;
}
);
unicode = 00F8;
userData = {
com.fontlab.hintData = {
vhints = (
{
position = 64;
width = 194;
},
{
position = 224;
width = 136;
},
{
position = 638;
width = 162;
}
);
};
};
},
{
glyphname = oe;
lastChange = "2016-07-11 09:12:57 +0000";
layers = (
{
layerId = "661C2B86-736D-4514-95EC-07E90A3E9BAC";
paths = (
{
closed = 1;
nodes = (
"373 227 CURVE SMOOTH",
"373 243 OFFCURVE",
"367 263 OFFCURVE",
"353 263 CURVE SMOOTH",
"302 263 OFFCURVE",
"290 211 OFFCURVE",
"290 161 CURVE",
"323 161 OFFCURVE",
"373 194 OFFCURVE"
);
},
{
closed = 1;
nodes = (
"98 135 CURVE SMOOTH",
"98 98 OFFCURVE",
"111 66 OFFCURVE",
"148 66 CURVE SMOOTH",
"188 66 OFFCURVE",
"208 145 OFFCURVE",
"208 188 CURVE SMOOTH",
"208 222 OFFCURVE",
"201 263 OFFCURVE",
"168 263 CURVE SMOOTH",
"122 263 OFFCURVE",
"98 184 OFFCURVE"
);
},
{
closed = 1;
nodes = (
"340 72 CURVE SMOOTH",
"406 72 OFFCURVE",
"466 121 OFFCURVE",
"501 156 CURVE",
"545 110 LINE",
"496 59 OFFCURVE",
"430 0 OFFCURVE",
"335 0 CURVE SMOOTH",
"283 0 OFFCURVE",
"251 35 OFFCURVE",
"241 77 CURVE",
"223 41 OFFCURVE",
"186 0 OFFCURVE",
"135 0 CURVE SMOOTH",
"56 0 OFFCURVE",
"22 70 OFFCURVE",
"22 149 CURVE SMOOTH",
"22 230 OFFCURVE",
"72 296 OFFCURVE",
"130 320 CURVE SMOOTH",
"141 325 OFFCURVE",
"153 327 OFFCURVE",
"164 327 CURVE SMOOTH",
"208 327 OFFCURVE",
"233 297 OFFCURVE",
"252 263 CURVE",
"273 306 OFFCURVE",
"305 328 OFFCURVE",
"346 328 CURVE SMOOTH",
"399 328 OFFCURVE",
"436 295 OFFCURVE",
"436 242 CURVE SMOOTH",
"436 166 OFFCURVE",
"359 121 OFFCURVE",
"297 104 CURVE",
"307 87 OFFCURVE",
"316 72 OFFCURVE"
);
}
);
width = 445;
}
);
unicode = 0153;
userData = {
com.fontlab.hintData = {
hhints = (
{
position = 0;
width = 212;
},
{
position = 0;
width = 192;
},
{
position = 768;
width = 190;
}
);
vhints = (
{
position = 64;
width = 224;
},
{
position = 608;
width = 239;
},
{
position = 1091;
width = 184;
}
);
};
};
},
{
glyphname = p;
lastChange = "2016-07-11 09:12:57 +0000";
layers = (
{
layerId = "661C2B86-736D-4514-95EC-07E90A3E9BAC";
paths = (
{
closed = 1;
nodes = (
"162 83 CURVE",
"170 65 OFFCURVE",
"184 62 OFFCURVE",
"203 62 CURVE SMOOTH",
"274 62 OFFCURVE",
"319 125 OFFCURVE",
"344 163 CURVE SMOOTH",
"346 167 OFFCURVE",
"349 169 OFFCURVE",
"352 169 CURVE SMOOTH",
"365 169 OFFCURVE",
"381 137 OFFCURVE",
"381 119 CURVE SMOOTH",
"381 111 OFFCURVE",
"377 105 OFFCURVE",
"374 99 CURVE SMOOTH",
"325 18 OFFCURVE",
"268 9 OFFCURVE",
"200 9 CURVE SMOOTH",
"164 9 OFFCURVE",
"122 21 OFFCURVE",
"97 52 CURVE",
"90 18 OFFCURVE",
"70 -102 OFFCURVE",
"60 -136 CURVE",
"57 -152 OFFCURVE",
"26 -171 OFFCURVE",
"6 -171 CURVE SMOOTH",
"-5 -171 OFFCURVE",
"-13 -165 OFFCURVE",
"-13 -149 CURVE SMOOTH",
"-13 -148 OFFCURVE",
"-13 -147 OFFCURVE",
"-13 -145 CURVE SMOOTH",
"-3 -53 OFFCURVE",
"28 69 OFFCURVE",
"31 90 CURVE SMOOTH",
"40 194 OFFCURVE",
"76 328 OFFCURVE",
"208 328 CURVE SMOOTH",
"275 328 OFFCURVE",
"309 295 OFFCURVE",
"309 237 CURVE SMOOTH",
"309 161 OFFCURVE",
"248 111 OFFCURVE"
);
},
{
closed = 1;
nodes = (
"105 112 CURVE",
"166 132 OFFCURVE",
"242 173 OFFCURVE",
"242 231 CURVE SMOOTH",
"242 250 OFFCURVE",
"229 265 OFFCURVE",
"200 265 CURVE SMOOTH",
"123 265 OFFCURVE",
"110 167 OFFCURVE"
);
}
);
width = 307;
}
);
unicode = 0070;
userData = {
com.fontlab.hintData = {
hhints = (
{
position = 27;
width = 155;
},
{
position = 774;
width = 186;
}
);
vhints = (
{
position = 708;
width = 195;
}
);
};
};
},
{
glyphname = thorn;
lastChange = "2016-07-11 09:12:57 +0000";
layers = (
{
layerId = "661C2B86-736D-4514-95EC-07E90A3E9BAC";
paths = (
{
closed = 1;
nodes = (
"236 207 CURVE SMOOTH",
"236 237 OFFCURVE",
"221 250 OFFCURVE",
"192 250 CURVE SMOOTH",
"116 250 OFFCURVE",
"111 147 OFFCURVE",
"105 77 CURVE",
"124 71 OFFCURVE",
"146 66 OFFCURVE",
"169 66 CURVE SMOOTH",
"221 66 OFFCURVE",
"236 154 OFFCURVE"
);
},
{
closed = 1;
nodes = (
"125 534 CURVE SMOOTH",
"150 534 OFFCURVE",
"197 506 OFFCURVE",
"197 481 CURVE SMOOTH",
"197 475 OFFCURVE",
"167 475 OFFCURVE",
"166 470 CURVE SMOOTH",
"134 275 LINE",
"160 298 OFFCURVE",
"189 328 OFFCURVE",
"228 328 CURVE SMOOTH",
"283 328 OFFCURVE",
"313 278 OFFCURVE",
"313 222 CURVE SMOOTH",
"313 168 OFFCURVE",
"301 132 OFFCURVE",
"280 98 CURVE",
"318 120 OFFCURVE",
"352 139 OFFCURVE",
"383 170 CURVE",
"409 113 LINE",
"365 73 OFFCURVE",
"315 49 OFFCURVE",
"247 33 CURVE",
"232 18 OFFCURVE",
"208 8 OFFCURVE",
"187 0 CURVE",
"178 0 LINE SMOOTH",
"147 0 OFFCURVE",
"116 8 OFFCURVE",
"92 17 CURVE",
"49 -210 LINE",
"45 -227 OFFCURVE",
"38 -237 OFFCURVE",
"18 -237 CURVE SMOOTH",
"14 -237 OFFCURVE",
"11 -237 OFFCURVE",
"7 -237 CURVE SMOOTH",
"-13 -237 OFFCURVE",
"-23 -213 OFFCURVE",
"-23 -192 CURVE SMOOTH",
"-23 -57 OFFCURVE",
"16 66 OFFCURVE",
"38 191 CURVE SMOOTH",
"42 216 OFFCURVE",
"46 244 OFFCURVE",
"52 277 CURVE SMOOTH",
"62 331 OFFCURVE",
"76 391 OFFCURVE",
"88 448 CURVE SMOOTH",
"98 503 LINE SMOOTH",
"102 520 OFFCURVE",
"109 534 OFFCURVE"
);
}
);
width = 350;
}
);
unicode = 00FE;
userData = {
com.fontlab.hintData = {
hhints = (
{
position = 0;
width = 192;
},
{
position = 732;
width = 228;
}
);
vhints = (
{
position = 691;
width = 224;
}
);
};
};
},
{
glyphname = q;
lastChange = "2016-07-11 09:12:57 +0000";
layers = (
{
layerId = "661C2B86-736D-4514-95EC-07E90A3E9BAC";
paths = (
{
closed = 1;
nodes = (
"158 -186 CURVE SMOOTH",
"199 -186 OFFCURVE",
"205 -130 OFFCURVE",
"205 -88 CURVE SMOOTH",
"205 -54 OFFCURVE",
"202 -16 OFFCURVE",
"194 11 CURVE",
"193 8 OFFCURVE",
"191 2 OFFCURVE",
"189 -7 CURVE SMOOTH",
"179 -38 LINE SMOOTH",
"167 -77 OFFCURVE",
"146 -126 OFFCURVE",
"146 -170 CURVE SMOOTH",
"146 -179 OFFCURVE",
"150 -186 OFFCURVE"
);
},
{
closed = 1;
nodes = (
"173 263 CURVE SMOOTH",
"127 263 OFFCURVE",
"96 220 OFFCURVE",
"96 175 CURVE SMOOTH",
"96 134 OFFCURVE",
"112 102 OFFCURVE",
"151 98 CURVE",
"171 148 OFFCURVE",
"179 198 OFFCURVE",
"194 252 CURVE",
"190 256 OFFCURVE",
"182 263 OFFCURVE"
);
},
{
closed = 1;
nodes = (
"230 88 CURVE SMOOTH",
"230 77 OFFCURVE",
"235 66 OFFCURVE",
"249 66 CURVE SMOOTH",
"294 66 OFFCURVE",
"339 116 OFFCURVE",
"366 135 CURVE SMOOTH",
"376 143 OFFCURVE",
"383 145 OFFCURVE",
"388 145 CURVE SMOOTH",
"394 145 OFFCURVE",
"396 140 OFFCURVE",
"396 134 CURVE SMOOTH",
"396 113 OFFCURVE",
"374 70 OFFCURVE",
"369 66 CURVE SMOOTH",
"339 36 OFFCURVE",
"302 10 OFFCURVE",
"248 2 CURVE",
"254 -30 OFFCURVE",
"260 -72 OFFCURVE",
"260 -109 CURVE SMOOTH",
"260 -189 OFFCURVE",
"230 -252 OFFCURVE",
"151 -252 CURVE SMOOTH",
"110 -252 OFFCURVE",
"85 -216 OFFCURVE",
"85 -175 CURVE SMOOTH",
"85 -92 OFFCURVE",
"120 -16 OFFCURVE",
"140 55 CURVE",
"135 54 OFFCURVE",
"130 53 OFFCURVE",
"124 53 CURVE SMOOTH",
"59 53 OFFCURVE",
"19 110 OFFCURVE",
"19 175 CURVE SMOOTH",
"19 260 OFFCURVE",
"88 328 OFFCURVE",
"173 328 CURVE SMOOTH",
"232 328 OFFCURVE",
"270 297 OFFCURVE",
"270 239 CURVE SMOOTH",
"270 189 OFFCURVE",
"245 139 OFFCURVE",
"232 95 CURVE SMOOTH",
"231 91 OFFCURVE",
"230 88 OFFCURVE"
);
}
);
width = 279;
}
);
unicode = 0071;
userData = {
com.fontlab.hintData = {
hhints = (
{
position = -736;
width = 192;
},
{
position = 6;
width = 186;
},
{
position = 156;
width = 132;
},
{
position = 768;
width = 192;
}
);
vhints = (
{
position = 57;
width = 224;
},
{
position = 249;
width = 177;
},
{
position = 601;
width = 160;
}
);
};
};
},
{
glyphname = r;
lastChange = "2016-07-11 09:12:57 +0000";
layers = (
{
layerId = "661C2B86-736D-4514-95EC-07E90A3E9BAC";
paths = (
{
closed = 1;
nodes = (
"80 0 CURVE SMOOTH",
"43 0 OFFCURVE",
"37 34 OFFCURVE",
"37 71 CURVE SMOOTH",
"37 153 OFFCURVE",
"52 242 OFFCURVE",
"76 305 CURVE SMOOTH",
"83 321 OFFCURVE",
"88 328 OFFCURVE",
"110 328 CURVE SMOOTH",
"134 328 OFFCURVE",
"135 321 OFFCURVE",
"135 297 CURVE SMOOTH",
"135 267 LINE SMOOTH",
"135 255 OFFCURVE",
"135 243 OFFCURVE",
"135 231 CURVE",
"139 231 LINE",
"157 268 OFFCURVE",
"180 328 OFFCURVE",
"233 328 CURVE SMOOTH",
"253 328 OFFCURVE",
"267 315 OFFCURVE",
"267 296 CURVE SMOOTH",
"267 279 OFFCURVE",
"256 238 OFFCURVE",
"256 206 CURVE SMOOTH",
"256 179 OFFCURVE",
"269 169 OFFCURVE",
"285 169 CURVE SMOOTH",
"306 169 OFFCURVE",
"333 188 OFFCURVE",
"348 200 CURVE SMOOTH",
"352 204 OFFCURVE",
"357 205 OFFCURVE",
"361 205 CURVE SMOOTH",
"368 205 OFFCURVE",
"371 194 OFFCURVE",
"371 183 CURVE SMOOTH",
"371 162 OFFCURVE",
"358 136 OFFCURVE",
"358 136 CURVE",
"336 121 OFFCURVE",
"309 98 OFFCURVE",
"273 98 CURVE SMOOTH",
"205 98 OFFCURVE",
"193 157 OFFCURVE",
"186 217 CURVE",
"180 217 LINE",
"119 46 LINE SMOOTH",
"112 26 OFFCURVE",
"105 0 OFFCURVE"
);
}
);
width = 275;
}
);
unicode = 0072;
userData = {
com.fontlab.hintData = {
hhints = (
{
position = 288;
width = 207;
},
{
position = 940;
width = 20;
}
);
vhints = (
{
position = 223;
width = 171;
},
{
position = 543;
width = 206;
}
);
};
};
},
{
glyphname = s;
lastChange = "2016-07-11 09:12:57 +0000";
layers = (
{
layerId = "661C2B86-736D-4514-95EC-07E90A3E9BAC";
paths = (
{
closed = 1;
nodes = (
"82 84 LINE",
"100 84 OFFCURVE",
"110 52 OFFCURVE",
"134 52 CURVE SMOOTH",
"151 52 OFFCURVE",
"157 73 OFFCURVE",
"157 100 CURVE SMOOTH",
"157 126 OFFCURVE",
"146 157 OFFCURVE",
"138 175 CURVE"
);
},
{
closed = 1;
nodes = (
"142 -6 CURVE SMOOTH",
"89 -6 OFFCURVE",
"54 14 OFFCURVE",
"46 62 CURVE",
"40 60 OFFCURVE",
"34 60 OFFCURVE",
"27 60 CURVE SMOOTH",
"7 60 OFFCURVE",
"0 69 OFFCURVE",
"0 81 CURVE SMOOTH",
"0 95 OFFCURVE",
"13 110 OFFCURVE",
"21 121 CURVE SMOOTH",
"57 172 OFFCURVE",
"96 235 OFFCURVE",
"132 295 CURVE SMOOTH",
"141 312 OFFCURVE",
"157 328 OFFCURVE",
"183 328 CURVE SMOOTH",
"216 328 OFFCURVE",
"227 318 OFFCURVE",
"227 305 CURVE SMOOTH",
"227 290 OFFCURVE",
"213 270 OFFCURVE",
"205 255 CURVE SMOOTH",
"191 230 LINE",
"202 208 OFFCURVE",
"232 166 OFFCURVE",
"232 122 CURVE SMOOTH",
"232 106 OFFCURVE",
"228 90 OFFCURVE",
"217 74 CURVE",
"273 99 OFFCURVE",
"308 126 OFFCURVE",
"341 153 CURVE SMOOTH",
"345 155 OFFCURVE",
"347 156 OFFCURVE",
"350 156 CURVE SMOOTH",
"359 156 OFFCURVE",
"363 142 OFFCURVE",
"363 125 CURVE SMOOTH",
"363 106 OFFCURVE",
"360 97 OFFCURVE",
"352 90 CURVE SMOOTH",
"295 39 OFFCURVE",
"212 -6 OFFCURVE"
);
}
);
width = 261;
}
);
unicode = 0073;
userData = {
com.fontlab.hintData = {
hhints = (
{
position = -19;
width = 170;
},
{
position = 940;
width = 20;
}
);
vhints = (
{
position = 458;
width = 220;
}
);
};
};
},
{
glyphname = germandbls;
lastChange = "2016-07-11 09:12:57 +0000";
layers = (
{
layerId = "661C2B86-736D-4514-95EC-07E90A3E9BAC";
paths = (
{
closed = 1;
nodes = (
"113 54 CURVE SMOOTH",
"113 30 OFFCURVE",
"113 9 OFFCURVE",
"113 -13 CURVE SMOOTH",
"113 -40 OFFCURVE",
"92 -54 OFFCURVE",
"65 -54 CURVE SMOOTH",
"43 -54 OFFCURVE",
"22 -44 OFFCURVE",
"22 -23 CURVE SMOOTH",
"22 208 OFFCURVE",
"42 465 OFFCURVE",
"209 533 CURVE SMOOTH",
"232 542 OFFCURVE",
"257 546 OFFCURVE",
"285 546 CURVE SMOOTH",
"368 546 OFFCURVE",
"442 503 OFFCURVE",
"442 424 CURVE SMOOTH",
"442 336 OFFCURVE",
"371 291 OFFCURVE",
"282 289 CURVE",
"369 289 OFFCURVE",
"431 240 OFFCURVE",
"431 155 CURVE SMOOTH",
"431 55 OFFCURVE",
"338 1 OFFCURVE",
"234 1 CURVE SMOOTH",
"203 1 OFFCURVE",
"176 9 OFFCURVE",
"151 18 CURVE",
"160 80 LINE",
"177 75 OFFCURVE",
"196 72 OFFCURVE",
"216 72 CURVE SMOOTH",
"287 72 OFFCURVE",
"354 96 OFFCURVE",
"354 167 CURVE SMOOTH",
"354 247 OFFCURVE",
"284 230 OFFCURVE",
"228 255 CURVE SMOOTH",
"215 261 OFFCURVE",
"205 270 OFFCURVE",
"205 288 CURVE SMOOTH",
"205 318 OFFCURVE",
"211 328 OFFCURVE",
"240 328 CURVE SMOOTH",
"306 328 OFFCURVE",
"365 356 OFFCURVE",
"365 421 CURVE SMOOTH",
"365 463 OFFCURVE",
"328 480 OFFCURVE",
"286 480 CURVE SMOOTH",
"115 480 OFFCURVE",
"113 222 OFFCURVE"
);
}
);
width = 438;
}
);
unicode = 00DF;
userData = {
com.fontlab.hintData = {
hhints = (
{
position = 3;
width = 208;
},
{
position = 846;
width = 115;
},
{
position = 1404;
width = 194;
}
);
vhints = (
{
position = 64;
width = 266;
},
{
position = 600;
width = 224;
},
{
position = 1037;
width = 224;
},
{
position = 1069;
width = 224;
}
);
};
};
},
{
glyphname = t;
lastChange = "2016-07-11 09:12:57 +0000";
layers = (
{
layerId = "661C2B86-736D-4514-95EC-07E90A3E9BAC";
paths = (
{
closed = 1;
nodes = (
"160 369 CURVE",
"182 405 OFFCURVE",
"222 459 OFFCURVE",
"222 509 CURVE SMOOTH",
"222 524 OFFCURVE",
"219 536 OFFCURVE",
"204 536 CURVE SMOOTH",
"167 536 OFFCURVE",
"147 403 OFFCURVE",
"139 369 CURVE",
"147 369 OFFCURVE",
"153 369 OFFCURVE"
);
},
{
closed = 1;
nodes = (
"46 166 CURVE SMOOTH",
"46 214 OFFCURVE",
"53 272 OFFCURVE",
"65 315 CURVE",
"21 315 OFFCURVE",
"-6 331 OFFCURVE",
"-6 348 CURVE SMOOTH",
"-6 366 OFFCURVE",
"12 369 OFFCURVE",
"37 369 CURVE SMOOTH",
"74 369 LINE",
"91 453 OFFCURVE",
"119 543 OFFCURVE",
"168 592 CURVE SMOOTH",
"182 606 OFFCURVE",
"196 613 OFFCURVE",
"212 613 CURVE SMOOTH",
"257 613 OFFCURVE",
"277 560 OFFCURVE",
"277 512 CURVE SMOOTH",
"277 454 OFFCURVE",
"242 407 OFFCURVE",
"216 369 CURVE",
"220 369 OFFCURVE",
"225 369 OFFCURVE",
"232 369 CURVE SMOOTH",
"282 369 LINE SMOOTH",
"313 369 OFFCURVE",
"332 367 OFFCURVE",
"332 342 CURVE SMOOTH",
"332 328 OFFCURVE",
"322 315 OFFCURVE",
"310 315 CURVE SMOOTH",
"178 315 LINE",
"142 256 OFFCURVE",
"129 236 OFFCURVE",
"129 166 CURVE SMOOTH",
"129 93 OFFCURVE",
"159 70 OFFCURVE",
"190 70 CURVE SMOOTH",
"240 70 OFFCURVE",
"281 123 OFFCURVE",
"308 150 CURVE SMOOTH",
"310 153 OFFCURVE",
"314 155 OFFCURVE",
"318 155 CURVE SMOOTH",
"329 155 OFFCURVE",
"343 144 OFFCURVE",
"343 126 CURVE SMOOTH",
"343 119 OFFCURVE",
"341 111 OFFCURVE",
"335 103 CURVE SMOOTH",
"295 46 OFFCURVE",
"246 -3 OFFCURVE",
"184 -3 CURVE SMOOTH",
"89 -3 OFFCURVE",
"46 78 OFFCURVE"
);
}
);
width = 248;
}
);
unicode = 0074;
userData = {
com.fontlab.hintData = {
hhints = (
{
position = -9;
width = 213;
},
{
position = 922;
width = 158;
},
{
position = 1568;
width = 224;
}
);
vhints = (
{
position = 135;
width = 241;
},
{
position = 217;
width = 191;
},
{
position = 650;
width = 160;
}
);
};
};
},
{
glyphname = u;
lastChange = "2016-07-11 09:12:57 +0000";
layers = (
{
layerId = "661C2B86-736D-4514-95EC-07E90A3E9BAC";
paths = (
{
closed = 1;
nodes = (
"298 306 CURVE SMOOTH",
"298 259 OFFCURVE",
"266 131 OFFCURVE",
"266 95 CURVE SMOOTH",
"266 70 OFFCURVE",
"272 60 OFFCURVE",
"282 60 CURVE SMOOTH",
"304 60 OFFCURVE",
"342 115 OFFCURVE",
"352 125 CURVE SMOOTH",
"360 133 OFFCURVE",
"367 137 OFFCURVE",
"375 137 CURVE SMOOTH",
"391 137 OFFCURVE",
"404 118 OFFCURVE",
"404 90 CURVE",
"383 47 OFFCURVE",
"324 0 OFFCURVE",
"269 0 CURVE SMOOTH",
"241 0 OFFCURVE",
"201 19 OFFCURVE",
"198 71 CURVE",
"198 71 OFFCURVE",
"167 0 OFFCURVE",
"102 0 CURVE SMOOTH",
"45 0 OFFCURVE",
"26 44 OFFCURVE",
"26 109 CURVE SMOOTH",
"26 171 OFFCURVE",
"48 328 OFFCURVE",
"113 328 CURVE SMOOTH",
"127 328 OFFCURVE",
"144 321 OFFCURVE",
"144 298 CURVE SMOOTH",
"144 296 OFFCURVE",
"145 295 OFFCURVE",
"144 293 CURVE SMOOTH",
"120 225 OFFCURVE",
"107 170 OFFCURVE",
"107 112 CURVE SMOOTH",
"107 95 OFFCURVE",
"114 77 OFFCURVE",
"134 77 CURVE SMOOTH",
"164 77 OFFCURVE",
"180 109 OFFCURVE",
"185 135 CURVE SMOOTH",
"219 308 LINE SMOOTH",
"221 321 OFFCURVE",
"243 328 OFFCURVE",
"260 328 CURVE SMOOTH",
"278 328 OFFCURVE",
"298 322 OFFCURVE"
);
}
);
width = 317;
}
);
unicode = 0075;
userData = {
com.fontlab.hintData = {
hhints = (
{
position = 0;
width = 225;
},
{
position = 0;
width = 177;
},
{
position = 939;
width = 20;
}
);
vhints = (
{
position = 77;
width = 237;
},
{
position = 640;
width = 232;
}
);
};
};
},
{
glyphname = v;
lastChange = "2016-07-11 09:12:57 +0000";
layers = (
{
layerId = "661C2B86-736D-4514-95EC-07E90A3E9BAC";
paths = (
{
closed = 1;
nodes = (
"289 72 CURVE SMOOTH",
"252 72 OFFCURVE",
"223 83 OFFCURVE",
"205 117 CURVE",
"187 78 OFFCURVE",
"158 33 OFFCURVE",
"126 8 CURVE SMOOTH",
"118 0 OFFCURVE",
"109 -4 OFFCURVE",
"101 -4 CURVE SMOOTH",
"45 -4 OFFCURVE",
"37 86 OFFCURVE",
"37 169 CURVE SMOOTH",
"37 206 OFFCURVE",
"38 241 OFFCURVE",
"38 266 CURVE SMOOTH",
"38 300 OFFCURVE",
"52 329 OFFCURVE",
"84 329 CURVE SMOOTH",
"110 329 OFFCURVE",
"128 311 OFFCURVE",
"128 286 CURVE SMOOTH",
"128 282 LINE",
"115 89 LINE",
"119 90 LINE",
"209 304 LINE",
"212 319 OFFCURVE",
"230 328 OFFCURVE",
"249 328 CURVE SMOOTH",
"268 328 OFFCURVE",
"294 320 OFFCURVE",
"294 305 CURVE SMOOTH",
"294 304 OFFCURVE",
"294 301 OFFCURVE",
"293 299 CURVE SMOOTH",
"279 268 OFFCURVE",
"256 221 OFFCURVE",
"256 180 CURVE SMOOTH",
"256 146 OFFCURVE",
"269 125 OFFCURVE",
"302 125 CURVE SMOOTH",
"327 125 OFFCURVE",
"356 140 OFFCURVE",
"374 151 CURVE SMOOTH",
"377 153 OFFCURVE",
"380 154 OFFCURVE",
"383 154 CURVE SMOOTH",
"392 154 OFFCURVE",
"397 144 OFFCURVE",
"397 132 CURVE SMOOTH",
"397 121 OFFCURVE",
"392 108 OFFCURVE",
"381 102 CURVE SMOOTH",
"360 89 OFFCURVE",
"319 72 OFFCURVE"
);
}
);
width = 310;
}
);
unicode = 0076;
userData = {
com.fontlab.hintData = {
hhints = (
{
position = 211;
width = 154;
},
{
position = 942;
width = 20;
}
);
vhints = (
{
position = 107;
width = 267;
},
{
position = 107;
width = 228;
}
);
};
};
},
{
glyphname = w;
lastChange = "2016-07-11 09:12:57 +0000";
layers = (
{
layerId = "661C2B86-736D-4514-95EC-07E90A3E9BAC";
paths = (
{
closed = 1;
nodes = (
"23 108 CURVE SMOOTH",
"23 131 LINE SMOOTH",
"23 208 OFFCURVE",
"25 328 OFFCURVE",
"73 328 CURVE",
"82 328 LINE",
"82 328 LINE SMOOTH",
"98 328 OFFCURVE",
"112 322 OFFCURVE",
"112 309 CURVE SMOOTH",
"112 307 LINE",
"88 107 LINE",
"94 121 LINE",
"117 176 OFFCURVE",
"134 229 OFFCURVE",
"159 278 CURVE SMOOTH",
"173 306 OFFCURVE",
"190 328 OFFCURVE",
"230 328 CURVE SMOOTH",
"246 328 OFFCURVE",
"260 322 OFFCURVE",
"260 310 CURVE SMOOTH",
"260 309 OFFCURVE",
"260 308 OFFCURVE",
"260 307 CURVE SMOOTH",
"235 121 LINE",
"233 101 LINE",
"320 305 LINE SMOOTH",
"326 318 OFFCURVE",
"347 328 OFFCURVE",
"369 328 CURVE SMOOTH",
"382 328 OFFCURVE",
"399 319 OFFCURVE",
"399 302 CURVE SMOOTH",
"399 300 OFFCURVE",
"398 299 OFFCURVE",
"397 297 CURVE SMOOTH",
"384 254 OFFCURVE",
"366 214 OFFCURVE",
"366 152 CURVE SMOOTH",
"366 129 OFFCURVE",
"375 111 OFFCURVE",
"400 111 CURVE SMOOTH",
"425 111 OFFCURVE",
"464 141 OFFCURVE",
"486 157 CURVE SMOOTH",
"493 162 OFFCURVE",
"498 164 OFFCURVE",
"502 164 CURVE SMOOTH",
"509 164 OFFCURVE",
"517 153 OFFCURVE",
"517 141 CURVE SMOOTH",
"517 137 OFFCURVE",
"516 133 OFFCURVE",
"514 130 CURVE",
"483 93 OFFCURVE",
"444 50 OFFCURVE",
"387 50 CURVE SMOOTH",
"341 50 OFFCURVE",
"315 87 OFFCURVE",
"314 149 CURVE",
"298 106 OFFCURVE",
"260 1 OFFCURVE",
"227 1 CURVE SMOOTH",
"189 1 OFFCURVE",
"188 63 OFFCURVE",
"188 119 CURVE SMOOTH",
"188 151 OFFCURVE",
"187 206 OFFCURVE",
"187 206 CURVE",
"176 171 LINE",
"160 109 OFFCURVE",
"134 46 OFFCURVE",
"93 13 CURVE SMOOTH",
"84 6 OFFCURVE",
"77 1 OFFCURVE",
"68 1 CURVE SMOOTH",
"30 1 OFFCURVE",
"23 49 OFFCURVE"
);
}
);
width = 427;
}
);
unicode = 0077;
userData = {
com.fontlab.hintData = {
hhints = (
{
position = 145;
width = 179;
},
{
position = 941;
width = 18;
}
);
vhints = (
{
position = 919;
width = 151;
}
);
};
};
},
{
glyphname = x;
lastChange = "2016-07-11 09:12:57 +0000";
layers = (
{
layerId = "661C2B86-736D-4514-95EC-07E90A3E9BAC";
paths = (
{
closed = 1;
nodes = (
"170 80 CURVE",
"149 56 OFFCURVE",
"115 0 OFFCURVE",
"77 0 CURVE SMOOTH",
"26 0 OFFCURVE",
"10 45 OFFCURVE",
"8 93 CURVE",
"57 122 LINE",
"59 110 OFFCURVE",
"65 83 OFFCURVE",
"80 83 CURVE SMOOTH",
"100 83 OFFCURVE",
"125 130 OFFCURVE",
"137 147 CURVE",
"121 183 OFFCURVE",
"108 221 OFFCURVE",
"96 264 CURVE SMOOTH",
"96 265 OFFCURVE",
"95 266 OFFCURVE",
"95 267 CURVE SMOOTH",
"95 287 OFFCURVE",
"128 306 OFFCURVE",
"149 306 CURVE SMOOTH",
"177 306 OFFCURVE",
"189 247 OFFCURVE",
"199 223 CURVE",
"224 250 OFFCURVE",
"252 274 OFFCURVE",
"284 295 CURVE SMOOTH",
"293 301 OFFCURVE",
"302 306 OFFCURVE",
"314 306 CURVE SMOOTH",
"335 306 OFFCURVE",
"346 288 OFFCURVE",
"346 267 CURVE SMOOTH",
"346 250 OFFCURVE",
"339 237 OFFCURVE",
"328 230 CURVE SMOOTH",
"293 207 OFFCURVE",
"261 179 OFFCURVE",
"232 149 CURVE",
"242 129 OFFCURVE",
"264 76 OFFCURVE",
"289 76 CURVE SMOOTH",
"331 76 OFFCURVE",
"377 122 OFFCURVE",
"398 145 CURVE SMOOTH",
"406 154 OFFCURVE",
"413 158 OFFCURVE",
"418 158 CURVE SMOOTH",
"426 158 OFFCURVE",
"429 147 OFFCURVE",
"429 133 CURVE SMOOTH",
"429 113 OFFCURVE",
"422 86 OFFCURVE",
"416 80 CURVE SMOOTH",
"379 45 OFFCURVE",
"321 0 OFFCURVE",
"252 0 CURVE SMOOTH",
"217 0 OFFCURVE",
"189 47 OFFCURVE"
);
}
);
width = 350;
}
);
unicode = 0078;
userData = {
com.fontlab.hintData = {
hhints = (
{
position = 0;
width = 242;
},
{
position = 0;
width = 223;
},
{
position = 876;
width = 20;
}
);
};
};
},
{
glyphname = y;
lastChange = "2016-07-11 09:12:57 +0000";
layers = (
{
layerId = "661C2B86-736D-4514-95EC-07E90A3E9BAC";
paths = (
{
closed = 1;
nodes = (
"59 -252 CURVE SMOOTH",
"126 -252 OFFCURVE",
"153 -143 OFFCURVE",
"164 -88 CURVE",
"119 -118 OFFCURVE",
"72 -167 OFFCURVE",
"50 -219 CURVE SMOOTH",
"47 -227 OFFCURVE",
"45 -234 OFFCURVE",
"45 -239 CURVE SMOOTH",
"45 -247 OFFCURVE",
"50 -252 OFFCURVE"
);
},
{
closed = 1;
nodes = (
"109 111 CURVE SMOOTH",
"109 89 OFFCURVE",
"114 66 OFFCURVE",
"136 66 CURVE SMOOTH",
"173 66 OFFCURVE",
"187 130 OFFCURVE",
"195 162 CURVE SMOOTH",
"219 263 LINE SMOOTH",
"225 289 OFFCURVE",
"251 311 OFFCURVE",
"282 311 CURVE SMOOTH",
"296 311 OFFCURVE",
"307 305 OFFCURVE",
"307 292 CURVE SMOOTH",
"307 245 OFFCURVE",
"288 189 OFFCURVE",
"280 141 CURVE SMOOTH",
"274 107 OFFCURVE",
"268 78 OFFCURVE",
"263 39 CURVE",
"295 66 OFFCURVE",
"344 107 OFFCURVE",
"378 139 CURVE SMOOTH",
"380 141 OFFCURVE",
"383 141 OFFCURVE",
"386 141 CURVE SMOOTH",
"402 141 OFFCURVE",
"418 119 OFFCURVE",
"418 97 CURVE SMOOTH",
"418 83 OFFCURVE",
"409 75 OFFCURVE",
"394 63 CURVE SMOOTH",
"351 30 OFFCURVE",
"285 -13 OFFCURVE",
"252 -37 CURVE",
"230 -157 OFFCURVE",
"193 -317 OFFCURVE",
"55 -317 CURVE SMOOTH",
"8 -317 OFFCURVE",
"-22 -297 OFFCURVE",
"-22 -249 CURVE SMOOTH",
"-22 -201 OFFCURVE",
"15 -159 OFFCURVE",
"40 -129 CURVE SMOOTH",
"79 -81 OFFCURVE",
"127 -46 OFFCURVE",
"176 -6 CURVE",
"185 36 LINE",
"166 19 OFFCURVE",
"139 -1 OFFCURVE",
"108 -1 CURVE SMOOTH",
"55 -1 OFFCURVE",
"22 42 OFFCURVE",
"22 96 CURVE SMOOTH",
"22 175 OFFCURVE",
"40 231 OFFCURVE",
"66 284 CURVE SMOOTH",
"74 301 OFFCURVE",
"94 316 OFFCURVE",
"117 316 CURVE SMOOTH",
"133 316 OFFCURVE",
"146 308 OFFCURVE",
"146 291 CURVE SMOOTH",
"146 271 OFFCURVE",
"136 257 OFFCURVE",
"130 237 CURVE SMOOTH",
"120 200 OFFCURVE",
"109 155 OFFCURVE"
);
}
);
width = 317;
}
);
unicode = 0079;
userData = {
com.fontlab.hintData = {
hhints = (
{
position = -928;
width = 192;
},
{
position = -2;
width = 194;
},
{
position = 889;
width = 35;
}
);
vhints = (
{
position = -64;
width = 196;
},
{
position = 64;
width = 256;
},
{
position = 192;
width = 235;
},
{
position = 640;
width = 259;
}
);
};
};
},
{
glyphname = z;
lastChange = "2016-07-11 09:12:57 +0000";
layers = (
{
layerId = "661C2B86-736D-4514-95EC-07E90A3E9BAC";
paths = (
{
closed = 1;
nodes = (
"57 -1 CURVE SMOOTH",
"31 -1 OFFCURVE",
"17 17 OFFCURVE",
"17 43 CURVE SMOOTH",
"17 66 OFFCURVE",
"39 72 OFFCURVE",
"49 86 CURVE SMOOTH",
"165 249 LINE",
"151 252 OFFCURVE",
"137 254 OFFCURVE",
"126 254 CURVE SMOOTH",
"96 254 OFFCURVE",
"79 241 OFFCURVE",
"53 241 CURVE SMOOTH",
"44 241 OFFCURVE",
"43 250 OFFCURVE",
"43 259 CURVE SMOOTH",
"43 301 OFFCURVE",
"51 336 OFFCURVE",
"91 336 CURVE SMOOTH",
"133 336 OFFCURVE",
"159 312 OFFCURVE",
"202 312 CURVE SMOOTH",
"220 312 OFFCURVE",
"239 316 OFFCURVE",
"255 316 CURVE SMOOTH",
"276 316 OFFCURVE",
"283 305 OFFCURVE",
"283 284 CURVE SMOOTH",
"283 260 OFFCURVE",
"275 255 OFFCURVE",
"254 249 CURVE",
"220 192 OFFCURVE",
"165 137 OFFCURVE",
"123 87 CURVE",
"121 80 LINE",
"144 80 OFFCURVE",
"173 65 OFFCURVE",
"200 65 CURVE SMOOTH",
"244 65 OFFCURVE",
"270 89 OFFCURVE",
"297 105 CURVE SMOOTH",
"306 110 OFFCURVE",
"314 112 OFFCURVE",
"323 112 CURVE SMOOTH",
"336 112 OFFCURVE",
"344 102 OFFCURVE",
"344 89 CURVE SMOOTH",
"344 33 OFFCURVE",
"234 -1 OFFCURVE",
"179 -1 CURVE SMOOTH",
"149 -1 OFFCURVE",
"118 13 OFFCURVE",
"93 24 CURVE",
"84 16 OFFCURVE",
"70 -1 OFFCURVE"
);
}
);
width = 254;
}
);
unicode = 007A;
userData = {
com.fontlab.hintData = {
hhints = (
{
position = -2;
width = 192;
},
{
position = 729;
width = 195;
},
{
position = 742;
width = 242;
}
);
};
};
},
{
glyphname = s.fin2;
lastChange = "2016-07-11 09:53:09 +0000";
layers = (
{
layerId = "661C2B86-736D-4514-95EC-07E90A3E9BAC";
paths = (
{
closed = 1;
nodes = (
"145 56 CURVE SMOOTH",
"144 53 OFFCURVE",
"152 52 OFFCURVE",
"156 52 CURVE SMOOTH",
"176 52 OFFCURVE",
"206 77 OFFCURVE",
"206 96 CURVE SMOOTH",
"206 104 OFFCURVE",
"204 113 OFFCURVE",
"200 121 CURVE",
"175 109 OFFCURVE",
"155 89 OFFCURVE"
);
},
{
closed = 1;
nodes = (
"231 191 CURVE",
"260 204 OFFCURVE",
"290 212 OFFCURVE",
"316 212 CURVE SMOOTH",
"342 212 OFFCURVE",
"361 186 OFFCURVE",
"388 162 CURVE",
"391 160 OFFCURVE",
"392 157 OFFCURVE",
"392 152 CURVE SMOOTH",
"392 142 OFFCURVE",
"383 127 OFFCURVE",
"378 127 CURVE SMOOTH",
"350 127 OFFCURVE",
"333 141 OFFCURVE",
"309 141 CURVE SMOOTH",
"295 141 OFFCURVE",
"279 140 OFFCURVE",
"262 138 CURVE",
"268 124 OFFCURVE",
"271 110 OFFCURVE",
"271 95 CURVE SMOOTH",
"271 39 OFFCURVE",
"235 -3 OFFCURVE",
"152 -3 CURVE SMOOTH",
"129 -3 OFFCURVE",
"100 10 OFFCURVE",
"100 41 CURVE SMOOTH",
"100 83 OFFCURVE",
"132 126 OFFCURVE",
"176 159 CURVE",
"167 169 OFFCURVE",
"158 178 OFFCURVE",
"150 185 CURVE",
"88 92 LINE",
"88 92 OFFCURVE",
"73 68 OFFCURVE",
"40 68 CURVE SMOOTH",
"23 68 OFFCURVE",
"16 77 OFFCURVE",
"16 89 CURVE SMOOTH",
"16 101 OFFCURVE",
"30 113 OFFCURVE",
"37 122 CURVE SMOOTH",
"66 165 OFFCURVE",
"107 236 OFFCURVE",
"139 295 CURVE SMOOTH",
"149 312 OFFCURVE",
"165 328 OFFCURVE",
"191 328 CURVE SMOOTH",
"224 328 OFFCURVE",
"235 316 OFFCURVE",
"235 300 CURVE SMOOTH",
"235 281 OFFCURVE",
"219 256 OFFCURVE",
"207 241 CURVE SMOOTH",
"203 236 OFFCURVE",
"200 232 OFFCURVE",
"200 230 CURVE",
"203 224 OFFCURVE",
"217 210 OFFCURVE"
);
}
);
width = 303;
}
);
userData = {
com.fontlab.hintData = {
hhints = (
{
position = -9;
width = 160;
},
{
position = 412;
width = 209;
},
{
position = 940;
width = 20;
}
);
vhints = (
{
position = 602;
width = 192;
}
);
};
};
},
{
glyphname = a.fina;
lastChange = "2016-07-11 09:53:09 +0000";
layers = (
{
layerId = "661C2B86-736D-4514-95EC-07E90A3E9BAC";
paths = (
{
closed = 1;
nodes = (
"109 111 CURVE SMOOTH",
"109 89 OFFCURVE",
"114 66 OFFCURVE",
"136 66 CURVE SMOOTH",
"173 66 OFFCURVE",
"188 130 OFFCURVE",
"195 162 CURVE SMOOTH",
"216 263 LINE",
"152 263 OFFCURVE",
"109 174 OFFCURVE"
);
},
{
closed = 1;
nodes = (
"295 65 CURVE SMOOTH",
"335 65 OFFCURVE",
"382 94 OFFCURVE",
"406 104 CURVE SMOOTH",
"407 105 OFFCURVE",
"407 105 OFFCURVE",
"408 105 CURVE SMOOTH",
"418 105 OFFCURVE",
"430 73 OFFCURVE",
"430 63 CURVE SMOOTH",
"430 57 OFFCURVE",
"430 53 OFFCURVE",
"428 50 CURVE",
"378 18 OFFCURVE",
"346 0 OFFCURVE",
"278 0 CURVE SMOOTH",
"242 0 OFFCURVE",
"226 25 OFFCURVE",
"214 55 CURVE",
"192 29 OFFCURVE",
"154 0 OFFCURVE",
"108 0 CURVE SMOOTH",
"55 0 OFFCURVE",
"22 42 OFFCURVE",
"22 96 CURVE SMOOTH",
"22 199 OFFCURVE",
"88 285 OFFCURVE",
"160 317 CURVE SMOOTH",
"175 324 OFFCURVE",
"190 327 OFFCURVE",
"206 327 CURVE SMOOTH",
"231 327 OFFCURVE",
"227 301 OFFCURVE",
"255 301 CURVE SMOOTH",
"260 301 OFFCURVE",
"266 302 OFFCURVE",
"271 302 CURVE SMOOTH",
"290 302 OFFCURVE",
"295 290 OFFCURVE",
"295 270 CURVE SMOOTH",
"295 214 OFFCURVE",
"273 167 OFFCURVE",
"273 111 CURVE SMOOTH",
"273 79 OFFCURVE",
"282 65 OFFCURVE"
);
}
);
width = 326;
}
);
userData = {
com.fontlab.hintData = {
hhints = (
{
position = 0;
width = 192;
},
{
position = 768;
width = 190;
}
);
vhints = (
{
position = 64;
width = 256;
}
);
};
};
},
{
glyphname = b.fina;
lastChange = "2016-07-11 09:53:09 +0000";
layers = (
{
layerId = "661C2B86-736D-4514-95EC-07E90A3E9BAC";
paths = (
{
closed = 1;
nodes = (
"111 296 CURVE",
"154 376 OFFCURVE",
"228 450 OFFCURVE",
"228 563 CURVE SMOOTH",
"228 575 OFFCURVE",
"223 591 OFFCURVE",
"210 591 CURVE SMOOTH",
"176 591 OFFCURVE",
"120 340 OFFCURVE"
);
},
{
closed = 1;
nodes = (
"239 184 CURVE SMOOTH",
"239 221 OFFCURVE",
"223 248 OFFCURVE",
"196 248 CURVE SMOOTH",
"123 248 OFFCURVE",
"112 138 OFFCURVE",
"107 77 CURVE",
"121 71 OFFCURVE",
"137 66 OFFCURVE",
"154 66 CURVE SMOOTH",
"219 66 OFFCURVE",
"239 139 OFFCURVE"
);
},
{
closed = 1;
nodes = (
"213 656 CURVE SMOOTH",
"277 656 OFFCURVE",
"301 608 OFFCURVE",
"301 557 CURVE SMOOTH",
"301 438 OFFCURVE",
"214 347 OFFCURVE",
"158 279 CURVE",
"163 275 LINE",
"177 295 OFFCURVE",
"210 312 OFFCURVE",
"242 312 CURVE SMOOTH",
"282 312 OFFCURVE",
"320 286 OFFCURVE",
"320 204 CURVE SMOOTH",
"320 115 OFFCURVE",
"255 1 OFFCURVE",
"165 1 CURVE SMOOTH",
"109 1 OFFCURVE",
"60 24 OFFCURVE",
"26 47 CURVE SMOOTH",
"22 50 OFFCURVE",
"20 51 OFFCURVE",
"20 52 CURVE",
"26 218 OFFCURVE",
"56 384 OFFCURVE",
"103 517 CURVE SMOOTH",
"120 568 OFFCURVE",
"151 656 OFFCURVE"
);
}
);
width = 459;
}
);
userData = {
com.fontlab.hintData = {
hhints = (
{
position = 2;
width = 190;
},
{
position = 727;
width = 187;
},
{
position = 1728;
width = 192;
}
);
vhints = (
{
position = 666;
width = 216;
},
{
position = 698;
width = 239;
}
);
};
};
},
{
glyphname = c.fina;
lastChange = "2016-07-11 09:53:09 +0000";
layers = (
{
layerId = "661C2B86-736D-4514-95EC-07E90A3E9BAC";
paths = (
{
closed = 1;
nodes = (
"165 -1 CURVE SMOOTH",
"73 -1 OFFCURVE",
"22 55 OFFCURVE",
"22 141 CURVE SMOOTH",
"22 233 OFFCURVE",
"71 328 OFFCURVE",
"162 328 CURVE SMOOTH",
"212 328 OFFCURVE",
"252 299 OFFCURVE",
"252 249 CURVE SMOOTH",
"252 218 OFFCURVE",
"236 186 OFFCURVE",
"206 186 CURVE SMOOTH",
"185 186 OFFCURVE",
"180 198 OFFCURVE",
"180 218 CURVE SMOOTH",
"180 226 OFFCURVE",
"181 236 OFFCURVE",
"181 243 CURVE SMOOTH",
"181 253 OFFCURVE",
"180 263 OFFCURVE",
"172 263 CURVE SMOOTH",
"120 263 OFFCURVE",
"109 193 OFFCURVE",
"109 142 CURVE SMOOTH",
"109 95 OFFCURVE",
"129 64 OFFCURVE",
"180 64 CURVE SMOOTH",
"246 64 OFFCURVE",
"308 119 OFFCURVE",
"344 153 CURVE SMOOTH",
"350 159 OFFCURVE",
"355 163 OFFCURVE",
"359 163 CURVE SMOOTH",
"377 163 OFFCURVE",
"394 145 OFFCURVE",
"394 132 CURVE SMOOTH",
"394 123 OFFCURVE",
"392 114 OFFCURVE",
"388 108 CURVE SMOOTH",
"353 71 OFFCURVE",
"275 -1 OFFCURVE"
);
}
);
width = 258;
}
);
userData = {
com.fontlab.hintData = {
hhints = (
{
position = -2;
width = 190;
},
{
position = 768;
width = 192;
}
);
vhints = (
{
position = 64;
width = 256;
},
{
position = 529;
width = 207;
}
);
};
};
},
{
glyphname = d.fina;
lastChange = "2016-07-11 09:53:09 +0000";
layers = (
{
layerId = "661C2B86-736D-4514-95EC-07E90A3E9BAC";
paths = (
{
closed = 1;
nodes = (
"319 380 CURVE SMOOTH",
"319 159 OFFCURVE",
"244 -7 OFFCURVE",
"131 -7 CURVE SMOOTH",
"59 -7 OFFCURVE",
"13 31 OFFCURVE",
"13 94 CURVE SMOOTH",
"13 227 OFFCURVE",
"123 309 OFFCURVE",
"227 311 CURVE",
"232 345 OFFCURVE",
"235 380 OFFCURVE",
"235 413 CURVE SMOOTH",
"235 492 OFFCURVE",
"204 556 OFFCURVE",
"120 556 CURVE SMOOTH",
"85 556 OFFCURVE",
"46 543 OFFCURVE",
"11 514 CURVE",
"6 513 OFFCURVE",
"-1 512 OFFCURVE",
"-7 512 CURVE SMOOTH",
"-20 512 OFFCURVE",
"-31 518 OFFCURVE",
"-31 535 CURVE SMOOTH",
"-31 542 OFFCURVE",
"-26 553 OFFCURVE",
"-11 567 CURVE SMOOTH",
"31 604 OFFCURVE",
"82 621 OFFCURVE",
"131 621 CURVE SMOOTH",
"257 621 OFFCURVE",
"319 535 OFFCURVE"
);
},
{
closed = 1;
nodes = (
"98 105 CURVE SMOOTH",
"98 82 OFFCURVE",
"105 65 OFFCURVE",
"125 65 CURVE SMOOTH",
"200 65 OFFCURVE",
"218 258 OFFCURVE",
"218 258 CURVE",
"156 235 OFFCURVE",
"98 174 OFFCURVE"
);
}
);
width = 354;
}
);
userData = {
com.fontlab.hintData = {
hhints = (
{
position = -21;
width = 212;
},
{
position = 1627;
width = 191;
}
);
vhints = (
{
position = 39;
width = 247;
},
{
position = 689;
width = 244;
}
);
};
};
},
{
glyphname = e.fina;
lastChange = "2016-07-11 09:53:09 +0000";
layers = (
{
layerId = "661C2B86-736D-4514-95EC-07E90A3E9BAC";
paths = (
{
closed = 1;
nodes = (
"199 232 CURVE SMOOTH",
"199 250 OFFCURVE",
"191 264 OFFCURVE",
"174 264 CURVE SMOOTH",
"120 264 OFFCURVE",
"100 196 OFFCURVE",
"100 149 CURVE",
"132 161 OFFCURVE",
"199 191 OFFCURVE"
);
},
{
closed = 1;
nodes = (
"163 -2 CURVE SMOOTH",
"69 -2 OFFCURVE",
"17 46 OFFCURVE",
"17 143 CURVE SMOOTH",
"17 235 OFFCURVE",
"70 328 OFFCURVE",
"170 328 CURVE SMOOTH",
"223 328 OFFCURVE",
"260 295 OFFCURVE",
"260 242 CURVE SMOOTH",
"260 166 OFFCURVE",
"176 116 OFFCURVE",
"108 99 CURVE",
"116 76 OFFCURVE",
"137 62 OFFCURVE",
"169 62 CURVE SMOOTH",
"228 62 OFFCURVE",
"292 115 OFFCURVE",
"328 140 CURVE SMOOTH",
"332 143 OFFCURVE",
"335 144 OFFCURVE",
"339 144 CURVE SMOOTH",
"354 144 OFFCURVE",
"371 126 OFFCURVE",
"371 110 CURVE SMOOTH",
"371 104 OFFCURVE",
"369 97 OFFCURVE",
"363 93 CURVE",
"315 54 OFFCURVE",
"260 -2 OFFCURVE"
);
}
);
width = 287;
}
);
userData = {
com.fontlab.hintData = {
hhints = (
{
position = -6;
width = 187;
},
{
position = 771;
width = 188;
}
);
vhints = (
{
position = 50;
width = 244;
},
{
position = 583;
width = 178;
}
);
};
};
},
{
glyphname = f.fina;
lastChange = "2016-07-11 09:53:09 +0000";
layers = (
{
layerId = "661C2B86-736D-4514-95EC-07E90A3E9BAC";
paths = (
{
closed = 1;
nodes = (
"168 225 CURVE",
"240 225 OFFCURVE",
"285 233 OFFCURVE",
"350 233 CURVE SMOOTH",
"358 233 OFFCURVE",
"362 223 OFFCURVE",
"362 209 CURVE SMOOTH",
"362 190 OFFCURVE",
"335 181 OFFCURVE",
"299 176 CURVE",
"261 171 OFFCURVE",
"215 171 OFFCURVE",
"176 170 CURVE",
"195 122 OFFCURVE",
"216 62 OFFCURVE",
"216 -10 CURVE SMOOTH",
"216 -91 OFFCURVE",
"181 -206 OFFCURVE",
"92 -206 CURVE SMOOTH",
"21 -206 OFFCURVE",
"12 -94 OFFCURVE",
"12 -13 CURVE SMOOTH",
"12 178 OFFCURVE",
"77 634 OFFCURVE",
"267 634 CURVE SMOOTH",
"310 634 OFFCURVE",
"336 602 OFFCURVE",
"336 555 CURVE SMOOTH",
"336 434 OFFCURVE",
"236 306 OFFCURVE"
);
},
{
closed = 1;
nodes = (
"103 -130 CURVE SMOOTH",
"144 -130 OFFCURVE",
"144 -59 OFFCURVE",
"144 -21 CURVE SMOOTH",
"144 -19 LINE SMOOTH",
"144 64 OFFCURVE",
"122 131 OFFCURVE",
"98 178 CURVE",
"95 113 OFFCURVE",
"89 49 OFFCURVE",
"89 -16 CURVE SMOOTH",
"89 -64 OFFCURVE",
"90 -130 OFFCURVE"
);
},
{
closed = 1;
nodes = (
"272 523 CURVE SMOOTH",
"272 541 OFFCURVE",
"269 557 OFFCURVE",
"255 557 CURVE SMOOTH",
"176 557 OFFCURVE",
"122 265 OFFCURVE",
"113 234 CURVE",
"166 300 OFFCURVE",
"272 433 OFFCURVE"
);
}
);
width = 303;
}
);
userData = {
com.fontlab.hintData = {
hhints = (
{
position = -604;
width = 225;
},
{
position = 497;
width = 160;
},
{
position = 1631;
width = 225;
}
);
vhints = (
{
position = 34;
width = 225;
},
{
position = 422;
width = 211;
},
{
position = 795;
width = 187;
}
);
};
};
},
{
glyphname = g.fina;
lastChange = "2016-07-11 09:53:09 +0000";
layers = (
{
layerId = "661C2B86-736D-4514-95EC-07E90A3E9BAC";
paths = (
{
closed = 1;
nodes = (
"43 -221 CURVE SMOOTH",
"106 -221 OFFCURVE",
"131 -130 OFFCURVE",
"142 -84 CURVE",
"104 -105 OFFCURVE",
"29 -157 OFFCURVE",
"29 -208 CURVE SMOOTH",
"29 -217 OFFCURVE",
"34 -221 OFFCURVE"
);
},
{
closed = 1;
nodes = (
"94 111 CURVE SMOOTH",
"94 89 OFFCURVE",
"98 66 OFFCURVE",
"120 66 CURVE SMOOTH",
"157 66 OFFCURVE",
"173 130 OFFCURVE",
"179 162 CURVE SMOOTH",
"200 263 LINE",
"136 263 OFFCURVE",
"94 174 OFFCURVE"
);
},
{
closed = 1;
nodes = (
"229 5 CURVE",
"258 9 OFFCURVE",
"286 17 OFFCURVE",
"333 17 CURVE SMOOTH",
"350 17 OFFCURVE",
"377 -13 OFFCURVE",
"377 -36 CURVE SMOOTH",
"377 -49 OFFCURVE",
"368 -59 OFFCURVE",
"345 -60 CURVE SMOOTH",
"295 -62 OFFCURVE",
"257 -65 OFFCURVE",
"218 -71 CURVE",
"198 -170 OFFCURVE",
"161 -286 OFFCURVE",
"39 -286 CURVE SMOOTH",
"-8 -286 OFFCURVE",
"-38 -267 OFFCURVE",
"-38 -218 CURVE SMOOTH",
"-38 -113 OFFCURVE",
"81 -53 OFFCURVE",
"153 -13 CURVE",
"169 36 LINE",
"150 19 OFFCURVE",
"123 -1 OFFCURVE",
"92 -1 CURVE SMOOTH",
"39 -1 OFFCURVE",
"6 42 OFFCURVE",
"6 96 CURVE SMOOTH",
"6 199 OFFCURVE",
"72 285 OFFCURVE",
"144 317 CURVE SMOOTH",
"159 324 OFFCURVE",
"175 327 OFFCURVE",
"190 327 CURVE SMOOTH",
"215 327 OFFCURVE",
"211 301 OFFCURVE",
"240 301 CURVE SMOOTH",
"245 301 OFFCURVE",
"250 302 OFFCURVE",
"255 302 CURVE SMOOTH",
"274 302 OFFCURVE",
"280 290 OFFCURVE",
"280 270 CURVE SMOOTH",
"280 176 OFFCURVE",
"250 93 OFFCURVE"
);
}
);
width = 301;
}
);
userData = {
com.fontlab.hintData = {
hhints = (
{
position = -838;
width = 192;
},
{
position = -175;
width = 226;
},
{
position = -2;
width = 194;
},
{
position = 768;
width = 190;
}
);
vhints = (
{
position = -110;
width = 196;
},
{
position = 18;
width = 256;
}
);
};
};
},
{
glyphname = h.fina;
lastChange = "2016-07-11 09:53:09 +0000";
layers = (
{
layerId = "661C2B86-736D-4514-95EC-07E90A3E9BAC";
paths = (
{
closed = 1;
nodes = (
"107 243 CURVE",
"132 301 OFFCURVE",
"162 365 OFFCURVE",
"185 424 CURVE SMOOTH",
"204 472 OFFCURVE",
"223 517 OFFCURVE",
"223 565 CURVE SMOOTH",
"223 582 OFFCURVE",
"220 591 OFFCURVE",
"216 591 CURVE SMOOTH",
"210 591 OFFCURVE",
"201 581 OFFCURVE",
"190 562 CURVE SMOOTH",
"178 542 OFFCURVE",
"162 515 OFFCURVE",
"149 477 CURVE SMOOTH",
"125 409 OFFCURVE",
"114 325 OFFCURVE"
);
},
{
closed = 1;
nodes = (
"227 656 CURVE SMOOTH",
"274 656 OFFCURVE",
"289 628 OFFCURVE",
"289 581 CURVE SMOOTH",
"289 483 OFFCURVE",
"240 398 OFFCURVE",
"205 327 CURVE SMOOTH",
"187 290 OFFCURVE",
"165 251 OFFCURVE",
"147 217 CURVE",
"154 213 LINE",
"185 251 OFFCURVE",
"223 295 OFFCURVE",
"266 322 CURVE SMOOTH",
"279 330 OFFCURVE",
"290 334 OFFCURVE",
"301 334 CURVE SMOOTH",
"321 334 OFFCURVE",
"331 318 OFFCURVE",
"331 297 CURVE SMOOTH",
"331 228 OFFCURVE",
"276 167 OFFCURVE",
"276 96 CURVE SMOOTH",
"276 82 OFFCURVE",
"279 67 OFFCURVE",
"294 67 CURVE SMOOTH",
"334 67 OFFCURVE",
"400 103 OFFCURVE",
"435 124 CURVE SMOOTH",
"452 135 OFFCURVE",
"464 142 OFFCURVE",
"474 142 CURVE SMOOTH",
"488 142 OFFCURVE",
"497 132 OFFCURVE",
"497 120 CURVE SMOOTH",
"497 108 OFFCURVE",
"493 93 OFFCURVE",
"473 79 CURVE SMOOTH",
"425 45 OFFCURVE",
"350 0 OFFCURVE",
"264 0 CURVE SMOOTH",
"226 0 OFFCURVE",
"197 31 OFFCURVE",
"197 70 CURVE SMOOTH",
"197 72 OFFCURVE",
"197 75 OFFCURVE",
"197 77 CURVE SMOOTH",
"204 155 OFFCURVE",
"238 212 OFFCURVE",
"238 221 CURVE SMOOTH",
"238 222 OFFCURVE",
"238 223 OFFCURVE",
"237 223 CURVE SMOOTH",
"237 223 OFFCURVE",
"235 222 OFFCURVE",
"235 221 CURVE SMOOTH",
"155 177 OFFCURVE",
"106 41 OFFCURVE",
"90 15 CURVE SMOOTH",
"84 6 OFFCURVE",
"79 0 OFFCURVE",
"66 0 CURVE SMOOTH",
"33 0 OFFCURVE",
"32 43 OFFCURVE",
"32 76 CURVE SMOOTH",
"32 264 OFFCURVE",
"45 464 OFFCURVE",
"117 583 CURVE SMOOTH",
"139 621 OFFCURVE",
"173 656 OFFCURVE"
);
}
);
width = 397;
}
);
userData = {
com.fontlab.hintData = {
hhints = (
{
position = 0;
width = 196;
},
{
position = 958;
width = 20;
},
{
position = 1729;
width = 191;
}
);
vhints = (
{
position = 95;
width = 168;
},
{
position = 576;
width = 231;
},
{
position = 652;
width = 193;
}
);
};
};
},
{
glyphname = l.fina;
lastChange = "2016-07-11 09:53:09 +0000";
layers = (
{
layerId = "661C2B86-736D-4514-95EC-07E90A3E9BAC";
paths = (
{
closed = 1;
nodes = (
"233 544 CURVE SMOOTH",
"233 554 OFFCURVE",
"230 561 OFFCURVE",
"223 561 CURVE SMOOTH",
"146 561 OFFCURVE",
"117 333 OFFCURVE",
"117 253 CURVE",
"159 326 OFFCURVE",
"201 409 OFFCURVE",
"225 499 CURVE SMOOTH",
"229 515 OFFCURVE",
"233 530 OFFCURVE"
);
},
{
closed = 1;
nodes = (
"120 158 CURVE SMOOTH",
"120 121 OFFCURVE",
"127 71 OFFCURVE",
"173 71 CURVE SMOOTH",
"217 71 OFFCURVE",
"273 119 OFFCURVE",
"306 143 CURVE SMOOTH",
"312 147 OFFCURVE",
"319 148 OFFCURVE",
"323 148 CURVE SMOOTH",
"332 148 OFFCURVE",
"338 131 OFFCURVE",
"338 114 CURVE SMOOTH",
"338 111 OFFCURVE",
"338 108 OFFCURVE",
"337 106 CURVE",
"314 54 OFFCURVE",
"243 -4 OFFCURVE",
"158 -4 CURVE SMOOTH",
"61 -4 OFFCURVE",
"32 90 OFFCURVE",
"32 177 CURVE SMOOTH",
"32 341 OFFCURVE",
"71 504 OFFCURVE",
"145 597 CURVE SMOOTH",
"169 628 OFFCURVE",
"201 656 OFFCURVE",
"248 656 CURVE SMOOTH",
"288 656 OFFCURVE",
"298 619 OFFCURVE",
"298 579 CURVE SMOOTH",
"298 415 OFFCURVE",
"202 287 OFFCURVE",
"126 193 CURVE SMOOTH",
"121 187 OFFCURVE",
"120 170 OFFCURVE"
);
}
);
width = 288;
}
);
userData = {
com.fontlab.hintData = {
hhints = (
{
position = -11;
width = 219;
},
{
position = 1641;
width = 279;
}
);
vhints = (
{
position = 94;
width = 258;
},
{
position = 683;
width = 188;
}
);
};
};
},
{
glyphname = m.fina;
lastChange = "2016-07-11 09:53:09 +0000";
layers = (
{
layerId = "661C2B86-736D-4514-95EC-07E90A3E9BAC";
paths = (
{
closed = 1;
nodes = (
"436 66 CURVE SMOOTH",
"467 66 OFFCURVE",
"495 93 OFFCURVE",
"525 106 CURVE SMOOTH",
"526 107 OFFCURVE",
"526 107 OFFCURVE",
"527 107 CURVE SMOOTH",
"535 107 OFFCURVE",
"544 84 OFFCURVE",
"544 68 CURVE SMOOTH",
"544 29 OFFCURVE",
"448 -3 OFFCURVE",
"413 -3 CURVE SMOOTH",
"353 -3 OFFCURVE",
"335 48 OFFCURVE",
"335 98 CURVE SMOOTH",
"335 134 OFFCURVE",
"338 168 OFFCURVE",
"345 201 CURVE",
"340 201 LINE",
"271 24 LINE SMOOTH",
"264 6 OFFCURVE",
"249 0 OFFCURVE",
"226 0 CURVE SMOOTH",
"196 0 OFFCURVE",
"192 35 OFFCURVE",
"192 64 CURVE SMOOTH",
"192 112 OFFCURVE",
"203 154 OFFCURVE",
"211 200 CURVE",
"205 200 LINE",
"167 152 OFFCURVE",
"149 86 OFFCURVE",
"118 24 CURVE SMOOTH",
"111 9 OFFCURVE",
"102 0 OFFCURVE",
"82 0 CURVE SMOOTH",
"45 0 OFFCURVE",
"39 34 OFFCURVE",
"39 71 CURVE SMOOTH",
"39 150 OFFCURVE",
"54 232 OFFCURVE",
"75 295 CURVE SMOOTH",
"81 313 OFFCURVE",
"96 329 OFFCURVE",
"118 329 CURVE SMOOTH",
"137 329 OFFCURVE",
"151 317 OFFCURVE",
"151 297 CURVE SMOOTH",
"151 255 OFFCURVE",
"130 203 OFFCURVE",
"124 177 CURVE",
"128 173 LINE",
"151 225 OFFCURVE",
"184 285 OFFCURVE",
"226 319 CURVE SMOOTH",
"233 325 OFFCURVE",
"242 328 OFFCURVE",
"252 328 CURVE SMOOTH",
"271 328 OFFCURVE",
"287 316 OFFCURVE",
"287 296 CURVE SMOOTH",
"287 278 OFFCURVE",
"268 177 OFFCURVE",
"268 177 CURVE",
"272 173 LINE",
"296 228 OFFCURVE",
"326 282 OFFCURVE",
"361 319 CURVE SMOOTH",
"367 325 OFFCURVE",
"376 328 OFFCURVE",
"386 328 CURVE SMOOTH",
"406 328 OFFCURVE",
"424 317 OFFCURVE",
"424 296 CURVE SMOOTH",
"424 266 OFFCURVE",
"408 144 OFFCURVE",
"408 106 CURVE SMOOTH",
"408 84 OFFCURVE",
"411 66 OFFCURVE"
);
}
);
width = 457;
}
);
userData = {
com.fontlab.hintData = {
hhints = (
{
position = -9;
width = 201;
},
{
position = 944;
width = 20;
}
);
vhints = (
{
position = 981;
width = 213;
}
);
};
};
},
{
glyphname = n.fina;
lastChange = "2016-07-11 09:53:09 +0000";
layers = (
{
layerId = "661C2B86-736D-4514-95EC-07E90A3E9BAC";
paths = (
{
closed = 1;
nodes = (
"416 80 CURVE SMOOTH",
"416 25 OFFCURVE",
"313 -7 OFFCURVE",
"270 -7 CURVE SMOOTH",
"211 -7 OFFCURVE",
"197 46 OFFCURVE",
"197 104 CURVE SMOOTH",
"197 136 OFFCURVE",
"201 171 OFFCURVE",
"206 202 CURVE",
"200 202 LINE",
"111 24 LINE SMOOTH",
"103 9 OFFCURVE",
"95 0 OFFCURVE",
"76 0 CURVE SMOOTH",
"38 0 OFFCURVE",
"27 35 OFFCURVE",
"32 71 CURVE SMOOTH",
"61 291 LINE SMOOTH",
"64 312 OFFCURVE",
"80 328 OFFCURVE",
"105 328 CURVE SMOOTH",
"130 328 OFFCURVE",
"137 311 OFFCURVE",
"137 287 CURVE SMOOTH",
"137 253 OFFCURVE",
"124 219 OFFCURVE",
"124 186 CURVE",
"131 186 LINE",
"150 221 OFFCURVE",
"170 261 OFFCURVE",
"190 296 CURVE SMOOTH",
"202 317 OFFCURVE",
"218 328 OFFCURVE",
"246 328 CURVE SMOOTH",
"272 328 OFFCURVE",
"283 303 OFFCURVE",
"283 274 CURVE SMOOTH",
"283 217 OFFCURVE",
"268 161 OFFCURVE",
"268 95 CURVE SMOOTH",
"268 69 OFFCURVE",
"279 59 OFFCURVE",
"295 59 CURVE SMOOTH",
"334 59 OFFCURVE",
"369 90 OFFCURVE",
"391 105 CURVE SMOOTH",
"393 107 OFFCURVE",
"396 108 OFFCURVE",
"398 108 CURVE SMOOTH",
"408 108 OFFCURVE",
"416 92 OFFCURVE"
);
}
);
width = 358;
}
);
userData = {
com.fontlab.hintData = {
hhints = (
{
position = -21;
width = 194;
},
{
position = 940;
width = 20;
}
);
vhints = (
{
position = 178;
width = 224;
},
{
position = 575;
width = 208;
}
);
};
};
},
{
glyphname = o.fina;
lastChange = "2016-07-11 09:53:09 +0000";
layers = (
{
layerId = "661C2B86-736D-4514-95EC-07E90A3E9BAC";
paths = (
{
closed = 1;
nodes = (
"99 135 CURVE SMOOTH",
"99 98 OFFCURVE",
"112 66 OFFCURVE",
"149 66 CURVE SMOOTH",
"189 66 OFFCURVE",
"209 145 OFFCURVE",
"209 188 CURVE SMOOTH",
"209 222 OFFCURVE",
"202 263 OFFCURVE",
"169 263 CURVE SMOOTH",
"123 263 OFFCURVE",
"99 184 OFFCURVE"
);
},
{
closed = 1;
nodes = (
"23 149 CURVE SMOOTH",
"23 253 OFFCURVE",
"85 328 OFFCURVE",
"193 328 CURVE SMOOTH",
"262 328 OFFCURVE",
"331 279 OFFCURVE",
"366 211 CURVE SMOOTH",
"366 210 OFFCURVE",
"367 209 OFFCURVE",
"369 209 CURVE SMOOTH",
"378 209 OFFCURVE",
"417 231 OFFCURVE",
"431 238 CURVE SMOOTH",
"431 239 OFFCURVE",
"432 239 OFFCURVE",
"432 239 CURVE SMOOTH",
"437 239 OFFCURVE",
"444 229 OFFCURVE",
"444 215 CURVE SMOOTH",
"444 170 OFFCURVE",
"392 150 OFFCURVE",
"362 150 CURVE SMOOTH",
"320 150 OFFCURVE",
"286 181 OFFCURVE",
"261 236 CURVE",
"270 220 OFFCURVE",
"274 188 OFFCURVE",
"274 172 CURVE SMOOTH",
"274 84 OFFCURVE",
"223 0 OFFCURVE",
"136 0 CURVE SMOOTH",
"57 0 OFFCURVE",
"23 70 OFFCURVE"
);
}
);
width = 319;
}
);
userData = {
com.fontlab.hintData = {
hhints = (
{
position = 0;
width = 192;
},
{
position = 439;
width = 173;
},
{
position = 768;
width = 192;
}
);
vhints = (
{
position = 67;
width = 224;
},
{
position = 611;
width = 192;
}
);
};
};
},
{
glyphname = p.fina;
lastChange = "2016-07-11 09:53:09 +0000";
layers = (
{
layerId = "661C2B86-736D-4514-95EC-07E90A3E9BAC";
paths = (
{
closed = 1;
nodes = (
"-8 -151 CURVE SMOOTH",
"-8 -165 OFFCURVE",
"0 -188 OFFCURVE",
"15 -188 CURVE SMOOTH",
"38 -188 OFFCURVE",
"39 -107 OFFCURVE",
"39 -59 CURVE SMOOTH",
"39 -31 LINE",
"9 -72 OFFCURVE",
"-8 -110 OFFCURVE"
);
},
{
closed = 1;
nodes = (
"111 95 CURVE",
"194 99 OFFCURVE",
"230 157 OFFCURVE",
"230 217 CURVE SMOOTH",
"230 243 OFFCURVE",
"215 265 OFFCURVE",
"181 265 CURVE SMOOTH",
"114 265 OFFCURVE",
"111 156 OFFCURVE"
);
},
{
closed = 1;
nodes = (
"297 212 CURVE SMOOTH",
"297 109 OFFCURVE",
"250 39 OFFCURVE",
"118 39 CURVE SMOOTH",
"117 39 LINE",
"119 9 LINE",
"119 -98 OFFCURVE",
"96 -199 OFFCURVE",
"41 -246 CURVE SMOOTH",
"26 -259 OFFCURVE",
"10 -266 OFFCURVE",
"-6 -266 CURVE SMOOTH",
"-55 -266 OFFCURVE",
"-75 -220 OFFCURVE",
"-75 -170 CURVE SMOOTH",
"-75 -80 OFFCURVE",
"-20 -25 OFFCURVE",
"37 19 CURVE",
"36 48 OFFCURVE",
"36 75 OFFCURVE",
"36 102 CURVE SMOOTH",
"36 234 OFFCURVE",
"74 328 OFFCURVE",
"177 328 CURVE SMOOTH",
"256 328 OFFCURVE",
"297 286 OFFCURVE"
);
}
);
width = 289;
}
);
userData = {
com.fontlab.hintData = {
hhints = (
{
position = -778;
width = 229;
},
{
position = 114;
width = 164;
},
{
position = 774;
width = 186;
}
);
vhints = (
{
position = -219;
width = 195;
},
{
position = 104;
width = 220;
},
{
position = 114;
width = 234;
},
{
position = 673;
width = 197;
}
);
};
};
},
{
glyphname = s.fina;
lastChange = "2016-07-11 09:53:09 +0000";
layers = (
{
layerId = "661C2B86-736D-4514-95EC-07E90A3E9BAC";
paths = (
{
closed = 1;
nodes = (
"145 56 CURVE SMOOTH",
"145 53 OFFCURVE",
"152 52 OFFCURVE",
"156 52 CURVE SMOOTH",
"176 52 OFFCURVE",
"206 77 OFFCURVE",
"206 96 CURVE SMOOTH",
"206 127 OFFCURVE",
"174 164 OFFCURVE",
"150 185 CURVE",
"74 97 LINE",
"74 97 OFFCURVE",
"60 72 OFFCURVE",
"26 72 CURVE SMOOTH",
"14 72 OFFCURVE",
"10 88 OFFCURVE",
"10 107 CURVE SMOOTH",
"10 119 OFFCURVE",
"23 132 OFFCURVE",
"30 140 CURVE",
"61 179 OFFCURVE",
"105 242 OFFCURVE",
"139 295 CURVE SMOOTH",
"149 312 OFFCURVE",
"165 328 OFFCURVE",
"191 328 CURVE SMOOTH",
"224 328 OFFCURVE",
"235 316 OFFCURVE",
"235 300 CURVE SMOOTH",
"235 281 OFFCURVE",
"219 256 OFFCURVE",
"207 241 CURVE SMOOTH",
"203 236 OFFCURVE",
"200 232 OFFCURVE",
"200 230 CURVE",
"208 216 OFFCURVE",
"271 156 OFFCURVE",
"271 95 CURVE SMOOTH",
"271 39 OFFCURVE",
"235 -3 OFFCURVE",
"152 -3 CURVE SMOOTH",
"129 -3 OFFCURVE",
"100 10 OFFCURVE",
"100 41 CURVE SMOOTH",
"100 57 OFFCURVE",
"106 81 OFFCURVE",
"129 106 CURVE SMOOTH",
"170 165 OFFCURVE",
"226 217 OFFCURVE",
"302 237 CURVE SMOOTH",
"313 239 OFFCURVE",
"323 240 OFFCURVE",
"333 240 CURVE SMOOTH",
"368 240 OFFCURVE",
"393 206 OFFCURVE",
"429 176 CURVE SMOOTH",
"432 174 OFFCURVE",
"433 170 OFFCURVE",
"433 166 CURVE SMOOTH",
"433 156 OFFCURVE",
"425 141 OFFCURVE",
"419 141 CURVE SMOOTH",
"382 141 OFFCURVE",
"359 168 OFFCURVE",
"326 168 CURVE SMOOTH",
"317 168 OFFCURVE",
"307 167 OFFCURVE",
"296 165 CURVE SMOOTH",
"248 153 OFFCURVE",
"145 74 OFFCURVE"
);
}
);
width = 406;
}
);
userData = {
com.fontlab.hintData = {
hhints = (
{
position = -9;
width = 160;
},
{
position = 492;
width = 209;
},
{
position = 940;
width = 20;
}
);
vhints = (
{
position = 292;
width = 132;
},
{
position = 602;
width = 192;
}
);
};
};
},
{
glyphname = t.fina;
lastChange = "2016-07-11 09:53:09 +0000";
layers = (
{
layerId = "661C2B86-736D-4514-95EC-07E90A3E9BAC";
paths = (
{
closed = 1;
nodes = (
"139 369 CURVE",
"139 369 OFFCURVE",
"140 369 OFFCURVE",
"140 369 CURVE SMOOTH",
"167 403 OFFCURVE",
"198 442 OFFCURVE",
"216 481 CURVE",
"220 493 OFFCURVE",
"222 502 OFFCURVE",
"222 509 CURVE SMOOTH",
"222 524 OFFCURVE",
"219 536 OFFCURVE",
"204 536 CURVE SMOOTH",
"167 536 OFFCURVE",
"147 403 OFFCURVE"
);
},
{
closed = 1;
nodes = (
"203 -4 CURVE SMOOTH",
"72 -4 OFFCURVE",
"51 107 OFFCURVE",
"51 220 CURVE SMOOTH",
"51 252 OFFCURVE",
"57 286 OFFCURVE",
"65 315 CURVE",
"21 315 OFFCURVE",
"-6 331 OFFCURVE",
"-6 348 CURVE SMOOTH",
"-6 366 OFFCURVE",
"12 369 OFFCURVE",
"37 369 CURVE SMOOTH",
"74 369 LINE",
"91 453 OFFCURVE",
"119 543 OFFCURVE",
"168 592 CURVE SMOOTH",
"182 606 OFFCURVE",
"196 613 OFFCURVE",
"212 613 CURVE SMOOTH",
"257 613 OFFCURVE",
"277 560 OFFCURVE",
"277 512 CURVE SMOOTH",
"277 454 OFFCURVE",
"230 407 OFFCURVE",
"196 369 CURVE",
"200 369 OFFCURVE",
"205 369 OFFCURVE",
"211 369 CURVE SMOOTH",
"282 369 LINE SMOOTH",
"313 369 OFFCURVE",
"332 367 OFFCURVE",
"332 342 CURVE SMOOTH",
"332 328 OFFCURVE",
"322 315 OFFCURVE",
"310 315 CURVE SMOOTH",
"158 315 LINE",
"140 252 OFFCURVE",
"130 226 OFFCURVE",
"130 169 CURVE SMOOTH",
"130 99 OFFCURVE",
"158 69 OFFCURVE",
"207 69 CURVE SMOOTH",
"255 69 OFFCURVE",
"304 111 OFFCURVE",
"332 130 CURVE",
"334 133 OFFCURVE",
"338 135 OFFCURVE",
"342 135 CURVE SMOOTH",
"353 135 OFFCURVE",
"367 123 OFFCURVE",
"367 106 CURVE SMOOTH",
"367 99 OFFCURVE",
"366 90 OFFCURVE",
"359 82 CURVE SMOOTH",
"318 39 OFFCURVE",
"266 -4 OFFCURVE"
);
}
);
width = 262;
}
);
userData = {
com.fontlab.hintData = {
hhints = (
{
position = -11;
width = 212;
},
{
position = 922;
width = 158;
},
{
position = 1568;
width = 224;
}
);
vhints = (
{
position = 150;
width = 231;
},
{
position = 650;
width = 160;
}
);
};
};
},
{
glyphname = w.fina;
lastChange = "2016-07-11 09:53:09 +0000";
layers = (
{
layerId = "661C2B86-736D-4514-95EC-07E90A3E9BAC";
paths = (
{
closed = 1;
nodes = (
"511 125 CURVE SMOOTH",
"511 80 OFFCURVE",
"451 50 OFFCURVE",
"416 50 CURVE SMOOTH",
"362 50 OFFCURVE",
"337 77 OFFCURVE",
"326 104 CURVE",
"308 67 OFFCURVE",
"286 30 OFFCURVE",
"252 9 CURVE SMOOTH",
"242 3 OFFCURVE",
"234 0 OFFCURVE",
"225 0 CURVE SMOOTH",
"204 0 OFFCURVE",
"202 82 OFFCURVE",
"202 133 CURVE SMOOTH",
"202 148 OFFCURVE",
"202 160 OFFCURVE",
"202 167 CURVE",
"192 169 LINE",
"176 108 OFFCURVE",
"151 44 OFFCURVE",
"108 12 CURVE SMOOTH",
"97 4 OFFCURVE",
"87 0 OFFCURVE",
"76 0 CURVE SMOOTH",
"28 0 OFFCURVE",
"25 90 OFFCURVE",
"25 156 CURVE SMOOTH",
"25 175 LINE SMOOTH",
"25 234 OFFCURVE",
"30 328 OFFCURVE",
"88 328 CURVE",
"96 328 LINE",
"112 328 OFFCURVE",
"127 322 OFFCURVE",
"127 308 CURVE SMOOTH",
"127 306 LINE",
"104 121 LINE",
"108 121 LINE",
"131 175 OFFCURVE",
"148 228 OFFCURVE",
"173 277 CURVE SMOOTH",
"187 305 OFFCURVE",
"205 328 OFFCURVE",
"245 328 CURVE SMOOTH",
"261 328 OFFCURVE",
"277 322 OFFCURVE",
"277 309 CURVE SMOOTH",
"277 308 OFFCURVE",
"277 307 OFFCURVE",
"277 306 CURVE SMOOTH",
"248 121 LINE",
"253 121 LINE",
"335 304 LINE SMOOTH",
"341 318 OFFCURVE",
"363 328 OFFCURVE",
"385 328 CURVE SMOOTH",
"405 328 OFFCURVE",
"426 319 OFFCURVE",
"426 299 CURVE SMOOTH",
"426 261 OFFCURVE",
"402 226 OFFCURVE",
"389 199 CURVE SMOOTH",
"386 191 OFFCURVE",
"374 165 OFFCURVE",
"374 144 CURVE SMOOTH",
"374 125 OFFCURVE",
"382 109 OFFCURVE",
"413 109 CURVE SMOOTH",
"443 109 OFFCURVE",
"468 132 OFFCURVE",
"491 149 CURVE SMOOTH",
"492 150 OFFCURVE",
"493 150 OFFCURVE",
"495 150 CURVE SMOOTH",
"502 150 OFFCURVE",
"511 137 OFFCURVE"
);
}
);
width = 599;
}
);
userData = {
com.fontlab.hintData = {
hhints = (
{
position = 145;
width = 173;
},
{
position = 941;
width = 18;
}
);
vhints = (
{
position = 72;
width = 231;
},
{
position = 591;
width = 136;
}
);
};
};
},
{
glyphname = y.fina;
lastChange = "2016-07-11 09:53:09 +0000";
layers = (
{
layerId = "661C2B86-736D-4514-95EC-07E90A3E9BAC";
paths = (
{
closed = 1;
nodes = (
"59 -252 CURVE SMOOTH",
"126 -252 OFFCURVE",
"153 -143 OFFCURVE",
"164 -88 CURVE",
"119 -118 OFFCURVE",
"72 -167 OFFCURVE",
"50 -219 CURVE SMOOTH",
"47 -227 OFFCURVE",
"45 -234 OFFCURVE",
"45 -239 CURVE SMOOTH",
"45 -247 OFFCURVE",
"50 -252 OFFCURVE"
);
},
{
closed = 1;
nodes = (
"109 111 CURVE SMOOTH",
"109 89 OFFCURVE",
"114 66 OFFCURVE",
"136 66 CURVE SMOOTH",
"173 66 OFFCURVE",
"187 130 OFFCURVE",
"195 162 CURVE SMOOTH",
"219 263 LINE SMOOTH",
"225 289 OFFCURVE",
"251 311 OFFCURVE",
"282 311 CURVE SMOOTH",
"296 311 OFFCURVE",
"307 305 OFFCURVE",
"307 292 CURVE SMOOTH",
"307 245 OFFCURVE",
"288 189 OFFCURVE",
"280 141 CURVE SMOOTH",
"274 103 OFFCURVE",
"267 62 OFFCURVE",
"261 18 CURVE",
"311 36 OFFCURVE",
"375 48 OFFCURVE",
"421 57 CURVE SMOOTH",
"422 57 OFFCURVE",
"423 57 OFFCURVE",
"425 57 CURVE SMOOTH",
"458 57 OFFCURVE",
"484 35 OFFCURVE",
"484 15 CURVE SMOOTH",
"484 1 OFFCURVE",
"478 -11 OFFCURVE",
"463 -15 CURVE",
"417 -21 OFFCURVE",
"313 -37 OFFCURVE",
"252 -51 CURVE",
"232 -158 OFFCURVE",
"200 -270 OFFCURVE",
"108 -307 CURVE SMOOTH",
"92 -314 OFFCURVE",
"74 -317 OFFCURVE",
"55 -317 CURVE SMOOTH",
"8 -317 OFFCURVE",
"-22 -297 OFFCURVE",
"-22 -249 CURVE SMOOTH",
"-22 -149 OFFCURVE",
"97 -49 OFFCURVE",
"172 -6 CURVE",
"185 36 LINE",
"166 19 OFFCURVE",
"139 -1 OFFCURVE",
"108 -1 CURVE SMOOTH",
"55 -1 OFFCURVE",
"22 42 OFFCURVE",
"22 96 CURVE SMOOTH",
"22 175 OFFCURVE",
"40 231 OFFCURVE",
"66 284 CURVE SMOOTH",
"74 301 OFFCURVE",
"94 316 OFFCURVE",
"117 316 CURVE SMOOTH",
"133 316 OFFCURVE",
"146 308 OFFCURVE",
"146 291 CURVE SMOOTH",
"146 271 OFFCURVE",
"136 257 OFFCURVE",
"130 237 CURVE SMOOTH",
"120 200 OFFCURVE",
"109 155 OFFCURVE"
);
}
);
width = 402;
}
);
userData = {
com.fontlab.hintData = {
hhints = (
{
position = -928;
width = 192;
},
{
position = -2;
width = 194;
},
{
position = 889;
width = 35;
}
);
vhints = (
{
position = -64;
width = 196;
},
{
position = 64;
width = 256;
},
{
position = 192;
width = 235;
},
{
position = 640;
width = 259;
}
);
};
};
},
{
glyphname = f.init;
lastChange = "2016-07-11 09:53:09 +0000";
layers = (
{
layerId = "661C2B86-736D-4514-95EC-07E90A3E9BAC";
paths = (
{
closed = 1;
nodes = (
"400 223 CURVE SMOOTH",
"400 155 OFFCURVE",
"306 148 OFFCURVE",
"237 146 CURVE",
"256 104 OFFCURVE",
"278 53 OFFCURVE",
"278 -10 CURVE SMOOTH",
"278 -91 OFFCURVE",
"243 -206 OFFCURVE",
"154 -206 CURVE SMOOTH",
"83 -206 OFFCURVE",
"73 -94 OFFCURVE",
"73 -13 CURVE SMOOTH",
"73 19 OFFCURVE",
"75 59 OFFCURVE",
"79 103 CURVE",
"47 77 OFFCURVE",
"13 53 OFFCURVE",
"-26 29 CURVE SMOOTH",
"-28 28 OFFCURVE",
"-31 26 OFFCURVE",
"-34 26 CURVE SMOOTH",
"-49 26 OFFCURVE",
"-71 50 OFFCURVE",
"-71 65 CURVE SMOOTH",
"-71 69 OFFCURVE",
"-69 72 OFFCURVE",
"-66 75 CURVE SMOOTH",
"7 124 OFFCURVE",
"45 151 OFFCURVE",
"90 195 CURVE",
"120 399 OFFCURVE",
"192 634 OFFCURVE",
"329 634 CURVE SMOOTH",
"372 634 OFFCURVE",
"397 602 OFFCURVE",
"397 555 CURVE SMOOTH",
"397 425 OFFCURVE",
"281 285 OFFCURVE",
"214 206 CURVE",
"224 203 OFFCURVE",
"239 201 OFFCURVE",
"253 201 CURVE SMOOTH",
"310 201 OFFCURVE",
"334 218 OFFCURVE",
"381 244 CURVE SMOOTH",
"384 246 OFFCURVE",
"386 246 OFFCURVE",
"388 246 CURVE SMOOTH",
"395 246 OFFCURVE",
"400 236 OFFCURVE"
);
},
{
closed = 1;
nodes = (
"165 -130 CURVE SMOOTH",
"205 -130 OFFCURVE",
"206 -59 OFFCURVE",
"206 -21 CURVE SMOOTH",
"206 -19 LINE SMOOTH",
"206 64 OFFCURVE",
"184 131 OFFCURVE",
"159 178 CURVE",
"156 113 OFFCURVE",
"150 49 OFFCURVE",
"150 -16 CURVE SMOOTH",
"150 -64 OFFCURVE",
"151 -130 OFFCURVE"
);
},
{
closed = 1;
nodes = (
"333 523 CURVE SMOOTH",
"333 541 OFFCURVE",
"330 557 OFFCURVE",
"316 557 CURVE SMOOTH",
"238 557 OFFCURVE",
"183 265 OFFCURVE",
"174 234 CURVE",
"228 300 OFFCURVE",
"333 433 OFFCURVE"
);
}
);
width = 296;
}
);
userData = {
com.fontlab.hintData = {
hhints = (
{
position = -604;
width = 225;
},
{
position = 427;
width = 160;
},
{
position = 1631;
width = 225;
}
);
vhints = (
{
position = 214;
width = 225;
},
{
position = 602;
width = 211;
},
{
position = 975;
width = 187;
}
);
};
};
},
{
glyphname = p.init;
lastChange = "2016-07-11 09:53:09 +0000";
layers = (
{
layerId = "661C2B86-736D-4514-95EC-07E90A3E9BAC";
paths = (
{
closed = 1;
nodes = (
"24 -15 CURVE SMOOTH",
"24 14 LINE",
"11 0 OFFCURVE",
"-37 -73 OFFCURVE",
"-37 -108 CURVE SMOOTH",
"-37 -132 OFFCURVE",
"-29 -145 OFFCURVE",
"-18 -145 CURVE SMOOTH",
"-1 -145 OFFCURVE",
"24 -106 OFFCURVE"
);
},
{
closed = 1;
nodes = (
"219 -3 CURVE SMOOTH",
"171 -3 OFFCURVE",
"122 8 OFFCURVE",
"97 52 CURVE",
"97 -48 OFFCURVE",
"73 -143 OFFCURVE",
"17 -188 CURVE SMOOTH",
"1 -201 OFFCURVE",
"-14 -208 OFFCURVE",
"-30 -208 CURVE SMOOTH",
"-79 -208 OFFCURVE",
"-99 -162 OFFCURVE",
"-99 -112 CURVE SMOOTH",
"-99 -21 OFFCURVE",
"-39 36 OFFCURVE",
"23 81 CURVE",
"37 185 OFFCURVE",
"47 328 OFFCURVE",
"208 328 CURVE SMOOTH",
"275 328 OFFCURVE",
"309 295 OFFCURVE",
"309 237 CURVE SMOOTH",
"309 156 OFFCURVE",
"248 102 OFFCURVE",
"162 72 CURVE",
"170 55 OFFCURVE",
"184 52 OFFCURVE",
"203 52 CURVE SMOOTH",
"274 52 OFFCURVE",
"319 121 OFFCURVE",
"344 163 CURVE SMOOTH",
"346 167 OFFCURVE",
"349 169 OFFCURVE",
"352 169 CURVE SMOOTH",
"365 169 OFFCURVE",
"381 137 OFFCURVE",
"381 119 CURVE SMOOTH",
"381 111 OFFCURVE",
"377 105 OFFCURVE",
"374 99 CURVE SMOOTH",
"331 26 OFFCURVE",
"274 -3 OFFCURVE"
);
},
{
closed = 1;
nodes = (
"105 112 CURVE",
"166 132 OFFCURVE",
"242 173 OFFCURVE",
"242 231 CURVE SMOOTH",
"242 250 OFFCURVE",
"229 265 OFFCURVE",
"200 265 CURVE SMOOTH",
"123 265 OFFCURVE",
"110 167 OFFCURVE"
);
}
);
width = 307;
}
);
userData = {
com.fontlab.hintData = {
hhints = (
{
position = -608;
width = 184;
},
{
position = -10;
width = 161;
},
{
position = 774;
width = 186;
}
);
vhints = (
{
position = -289;
width = 180;
},
{
position = 69;
width = 215;
},
{
position = 708;
width = 195;
}
);
};
};
},
{
glyphname = s.init;
lastChange = "2016-07-11 09:53:09 +0000";
layers = (
{
layerId = "661C2B86-736D-4514-95EC-07E90A3E9BAC";
paths = (
{
closed = 1;
nodes = (
"230 -6 CURVE SMOOTH",
"210 -6 OFFCURVE",
"170 0 OFFCURVE",
"170 24 CURVE SMOOTH",
"170 40 OFFCURVE",
"191 61 OFFCURVE",
"204 61 CURVE SMOOTH",
"210 61 OFFCURVE",
"215 57 OFFCURVE",
"219 57 CURVE SMOOTH",
"245 57 OFFCURVE",
"264 73 OFFCURVE",
"264 105 CURVE SMOOTH",
"264 126 OFFCURVE",
"239 152 OFFCURVE",
"221 167 CURVE",
"187 135 OFFCURVE",
"123 102 OFFCURVE",
"82 102 CURVE SMOOTH",
"79 102 OFFCURVE",
"76 103 OFFCURVE",
"73 103 CURVE SMOOTH",
"53 103 OFFCURVE",
"45 112 OFFCURVE",
"45 123 CURVE SMOOTH",
"45 135 OFFCURVE",
"52 148 OFFCURVE",
"56 157 CURVE",
"139 171 OFFCURVE",
"204 225 OFFCURVE",
"243 285 CURVE",
"264 310 OFFCURVE",
"287 327 OFFCURVE",
"311 327 CURVE SMOOTH",
"334 327 OFFCURVE",
"340 306 OFFCURVE",
"340 289 CURVE SMOOTH",
"340 267 OFFCURVE",
"336 245 OFFCURVE",
"320 235 CURVE SMOOTH",
"288 213 LINE",
"301 195 OFFCURVE",
"339 162 OFFCURVE",
"339 127 CURVE SMOOTH",
"339 111 OFFCURVE",
"336 94 OFFCURVE",
"328 78 CURVE",
"373 102 OFFCURVE",
"401 128 OFFCURVE",
"428 153 CURVE SMOOTH",
"431 156 OFFCURVE",
"434 156 OFFCURVE",
"436 156 CURVE SMOOTH",
"446 156 OFFCURVE",
"450 142 OFFCURVE",
"450 125 CURVE SMOOTH",
"450 106 OFFCURVE",
"446 98 OFFCURVE",
"439 90 CURVE SMOOTH",
"405 52 OFFCURVE",
"307 -6 OFFCURVE"
);
}
);
width = 356;
}
);
userData = {
com.fontlab.hintData = {
hhints = (
{
position = -17;
width = 184;
},
{
position = 300;
width = 159;
},
{
position = 937;
width = 20;
}
);
vhints = (
{
position = 771;
width = 220;
}
);
};
};
},
{
glyphname = t.init;
lastChange = "2016-07-11 09:53:09 +0000";
layers = (
{
layerId = "661C2B86-736D-4514-95EC-07E90A3E9BAC";
paths = (
{
closed = 1;
nodes = (
"233 315 LINE",
"214 300 OFFCURVE",
"199 289 OFFCURVE",
"188 279 CURVE",
"186 245 OFFCURVE",
"185 213 OFFCURVE",
"185 169 CURVE SMOOTH",
"185 108 OFFCURVE",
"210 70 OFFCURVE",
"245 70 CURVE SMOOTH",
"295 70 OFFCURVE",
"336 123 OFFCURVE",
"362 150 CURVE SMOOTH",
"365 153 OFFCURVE",
"368 155 OFFCURVE",
"373 155 CURVE SMOOTH",
"384 155 OFFCURVE",
"398 144 OFFCURVE",
"398 126 CURVE SMOOTH",
"398 119 OFFCURVE",
"395 111 OFFCURVE",
"390 103 CURVE SMOOTH",
"350 46 OFFCURVE",
"301 -3 OFFCURVE",
"239 -3 CURVE SMOOTH",
"135 -3 OFFCURVE",
"110 94 OFFCURVE",
"107 190 CURVE",
"72 161 OFFCURVE",
"35 134 OFFCURVE",
"-8 108 CURVE",
"-26 94 OFFCURVE",
"-68 141 OFFCURVE",
"-48 154 CURVE SMOOTH",
"26 205 OFFCURVE",
"65 231 OFFCURVE",
"111 277 CURVE",
"113 290 OFFCURVE",
"116 303 OFFCURVE",
"119 315 CURVE",
"75 315 OFFCURVE",
"48 331 OFFCURVE",
"48 348 CURVE SMOOTH",
"48 366 OFFCURVE",
"67 369 OFFCURVE",
"92 369 CURVE SMOOTH",
"129 369 LINE",
"145 453 OFFCURVE",
"173 543 OFFCURVE",
"223 592 CURVE SMOOTH",
"237 606 OFFCURVE",
"251 613 OFFCURVE",
"266 613 CURVE SMOOTH",
"312 613 OFFCURVE",
"332 560 OFFCURVE",
"332 512 CURVE SMOOTH",
"332 454 OFFCURVE",
"297 407 OFFCURVE",
"271 369 CURVE",
"275 369 OFFCURVE",
"280 369 OFFCURVE",
"286 369 CURVE SMOOTH",
"337 369 LINE SMOOTH",
"368 369 OFFCURVE",
"386 367 OFFCURVE",
"386 342 CURVE SMOOTH",
"386 328 OFFCURVE",
"377 315 OFFCURVE",
"364 315 CURVE SMOOTH"
);
},
{
closed = 1;
nodes = (
"194 369 CURVE",
"201 369 OFFCURVE",
"208 369 OFFCURVE",
"215 369 CURVE",
"235 403 OFFCURVE",
"257 442 OFFCURVE",
"271 481 CURVE SMOOTH",
"275 493 OFFCURVE",
"277 502 OFFCURVE",
"277 509 CURVE SMOOTH",
"277 524 OFFCURVE",
"273 536 OFFCURVE",
"259 536 CURVE SMOOTH",
"222 536 OFFCURVE",
"202 403 OFFCURVE"
);
}
);
width = 304;
}
);
userData = {
com.fontlab.hintData = {
hhints = (
{
position = -9;
width = 213;
},
{
position = 922;
width = 158;
},
{
position = 1568;
width = 224;
}
);
vhints = (
{
position = 312;
width = 229;
},
{
position = 377;
width = 191;
},
{
position = 810;
width = 160;
}
);
};
};
},
{
glyphname = f_f;
lastChange = "2016-07-11 09:53:09 +0000";
layers = (
{
layerId = "661C2B86-736D-4514-95EC-07E90A3E9BAC";
paths = (
{
closed = 1;
nodes = (
"103 -130 CURVE SMOOTH",
"144 -130 OFFCURVE",
"144 -59 OFFCURVE",
"144 -21 CURVE SMOOTH",
"144 -19 LINE SMOOTH",
"144 64 OFFCURVE",
"122 131 OFFCURVE",
"98 178 CURVE",
"95 113 OFFCURVE",
"89 49 OFFCURVE",
"89 -16 CURVE SMOOTH",
"89 -64 OFFCURVE",
"90 -130 OFFCURVE"
);
},
{
closed = 1;
nodes = (
"272 523 CURVE SMOOTH",
"272 541 OFFCURVE",
"269 557 OFFCURVE",
"255 557 CURVE SMOOTH",
"176 557 OFFCURVE",
"122 265 OFFCURVE",
"113 234 CURVE",
"166 300 OFFCURVE",
"272 433 OFFCURVE"
);
},
{
closed = 1;
nodes = (
"347 -156 CURVE SMOOTH",
"277 -156 OFFCURVE",
"263 -65 OFFCURVE",
"263 18 CURVE SMOOTH",
"263 65 OFFCURVE",
"265 111 OFFCURVE",
"267 157 CURVE",
"240 149 OFFCURVE",
"205 147 OFFCURVE",
"176 146 CURVE",
"195 96 OFFCURVE",
"216 34 OFFCURVE",
"216 -41 CURVE SMOOTH",
"216 -109 OFFCURVE",
"181 -206 OFFCURVE",
"92 -206 CURVE SMOOTH",
"21 -206 OFFCURVE",
"12 -94 OFFCURVE",
"12 -13 CURVE SMOOTH",
"12 178 OFFCURVE",
"77 634 OFFCURVE",
"267 634 CURVE SMOOTH",
"310 634 OFFCURVE",
"336 602 OFFCURVE",
"336 555 CURVE SMOOTH",
"336 425 OFFCURVE",
"219 285 OFFCURVE",
"152 206 CURVE",
"162 203 OFFCURVE",
"178 201 OFFCURVE",
"191 201 CURVE SMOOTH",
"227 201 OFFCURVE",
"246 206 OFFCURVE",
"272 214 CURVE",
"300 385 OFFCURVE",
"369 583 OFFCURVE",
"499 583 CURVE SMOOTH",
"541 583 OFFCURVE",
"567 551 OFFCURVE",
"567 504 CURVE SMOOTH",
"567 393 OFFCURVE",
"447 273 OFFCURVE",
"377 206 CURVE",
"387 203 OFFCURVE",
"402 201 OFFCURVE",
"416 201 CURVE SMOOTH",
"481 201 OFFCURVE",
"509 228 OFFCURVE",
"564 268 CURVE SMOOTH",
"566 270 OFFCURVE",
"568 270 OFFCURVE",
"570 270 CURVE SMOOTH",
"578 270 OFFCURVE",
"582 260 OFFCURVE",
"582 247 CURVE SMOOTH",
"582 158 OFFCURVE",
"477 149 OFFCURVE",
"400 146 CURVE",
"421 100 OFFCURVE",
"444 42 OFFCURVE",
"444 -27 CURVE SMOOTH",
"444 -78 OFFCURVE",
"429 -156 OFFCURVE"
);
},
{
closed = 1;
nodes = (
"348 -78 CURVE SMOOTH",
"371 -78 OFFCURVE",
"378 -54 OFFCURVE",
"378 -22 CURVE SMOOTH",
"378 51 OFFCURVE",
"332 162 OFFCURVE",
"326 172 CURVE",
"326 150 OFFCURVE",
"325 126 OFFCURVE",
"325 93 CURVE SMOOTH",
"325 17 OFFCURVE",
"328 -78 OFFCURVE"
);
},
{
closed = 1;
nodes = (
"504 483 CURVE SMOOTH",
"504 497 OFFCURVE",
"497 507 OFFCURVE",
"483 507 CURVE SMOOTH",
"403 507 OFFCURVE",
"346 260 OFFCURVE",
"337 234 CURVE",
"388 271 OFFCURVE",
"504 419 OFFCURVE"
);
}
);
width = 476;
}
);
userData = {
com.fontlab.hintData = {
hhints = (
{
position = -604;
width = 225;
},
{
position = -455;
width = 226;
},
{
position = 427;
width = 160;
},
{
position = 1482;
width = 224;
},
{
position = 1631;
width = 225;
}
);
vhints = (
{
position = 34;
width = 225;
},
{
position = 422;
width = 211;
},
{
position = 770;
width = 182;
},
{
position = 795;
width = 187;
},
{
position = 1107;
width = 193;
},
{
position = 1474;
width = 185;
}
);
};
};
},
{
glyphname = fi;
lastChange = "2016-07-11 09:53:09 +0000";
layers = (
{
layerId = "661C2B86-736D-4514-95EC-07E90A3E9BAC";
paths = (
{
closed = 1;
nodes = (
"405 372 CURVE SMOOTH",
"368 372 OFFCURVE",
"346 390 OFFCURVE",
"346 424 CURVE SMOOTH",
"346 460 OFFCURVE",
"375 481 OFFCURVE",
"413 481 CURVE SMOOTH",
"446 481 OFFCURVE",
"471 467 OFFCURVE",
"471 433 CURVE SMOOTH",
"471 395 OFFCURVE",
"444 372 OFFCURVE"
);
},
{
closed = 1;
nodes = (
"255 523 CURVE SMOOTH",
"255 541 OFFCURVE",
"252 557 OFFCURVE",
"236 557 CURVE SMOOTH",
"212 557 OFFCURVE",
"205 543 OFFCURVE",
"198 524 CURVE SMOOTH",
"165 443 OFFCURVE",
"149 376 OFFCURVE",
"136 279 CURVE",
"172 346 OFFCURVE",
"215 416 OFFCURVE",
"245 485 CURVE SMOOTH",
"252 501 OFFCURVE",
"255 514 OFFCURVE"
);
},
{
closed = 1;
nodes = (
"121 -130 CURVE SMOOTH",
"157 -130 OFFCURVE",
"156 -57 OFFCURVE",
"156 -19 CURVE SMOOTH",
"156 37 OFFCURVE",
"144 103 OFFCURVE",
"123 142 CURVE SMOOTH",
"120 148 OFFCURVE",
"117 151 OFFCURVE",
"115 151 CURVE SMOOTH",
"105 151 OFFCURVE",
"100 38 OFFCURVE",
"100 20 CURVE SMOOTH",
"100 11 OFFCURVE",
"100 -2 OFFCURVE",
"100 -16 CURVE SMOOTH",
"100 -64 OFFCURVE",
"103 -130 OFFCURVE"
);
},
{
closed = 1;
nodes = (
"367 99 CURVE SMOOTH",
"367 82 OFFCURVE",
"369 66 OFFCURVE",
"385 66 CURVE SMOOTH",
"430 66 OFFCURVE",
"472 120 OFFCURVE",
"499 142 CURVE",
"499 73 LINE",
"465 41 OFFCURVE",
"406 0 OFFCURVE",
"344 0 CURVE SMOOTH",
"299 0 OFFCURVE",
"280 24 OFFCURVE",
"280 69 CURVE SMOOTH",
"280 98 OFFCURVE",
"286 129 OFFCURVE",
"292 156 CURVE",
"259 144 OFFCURVE",
"223 136 OFFCURVE",
"183 136 CURVE",
"204 97 OFFCURVE",
"228 49 OFFCURVE",
"228 -10 CURVE SMOOTH",
"228 -91 OFFCURVE",
"195 -206 OFFCURVE",
"114 -206 CURVE SMOOTH",
"34 -206 OFFCURVE",
"23 -94 OFFCURVE",
"23 -13 CURVE SMOOTH",
"23 169 OFFCURVE",
"56 360 OFFCURVE",
"110 497 CURVE SMOOTH",
"133 555 OFFCURVE",
"170 634 OFFCURVE",
"245 634 CURVE SMOOTH",
"291 634 OFFCURVE",
"318 602 OFFCURVE",
"318 555 CURVE SMOOTH",
"318 493 OFFCURVE",
"289 438 OFFCURVE",
"267 391 CURVE SMOOTH",
"235 325 OFFCURVE",
"195 261 OFFCURVE",
"152 206 CURVE",
"151 201 LINE",
"159 204 OFFCURVE",
"161 206 OFFCURVE",
"169 206 CURVE SMOOTH",
"179 206 OFFCURVE",
"182 201 OFFCURVE",
"191 201 CURVE SMOOTH",
"242 201 OFFCURVE",
"282 216 OFFCURVE",
"312 237 CURVE",
"326 295 LINE SMOOTH",
"332 317 OFFCURVE",
"362 328 OFFCURVE",
"389 328 CURVE SMOOTH",
"405 328 OFFCURVE",
"413 323 OFFCURVE",
"413 309 CURVE SMOOTH",
"413 238 OFFCURVE",
"367 176 OFFCURVE"
);
}
);
width = 431;
}
);
unicode = FB01;
userData = {
com.fontlab.hintData = {
hhints = (
{
position = -604;
width = 225;
},
{
position = 0;
width = 192;
},
{
position = 213;
width = 203;
},
{
position = 397;
width = 190;
},
{
position = 940;
width = 20;
},
{
position = 1089;
width = 319;
},
{
position = 1631;
width = 225;
}
);
vhints = (
{
position = 68;
width = 225;
},
{
position = 457;
width = 209;
},
{
position = 747;
width = 182;
},
{
position = 819;
width = 256;
},
{
position = 955;
width = 254;
},
{
position = 1012;
width = 366;
}
);
};
};
},
{
glyphname = fl;
lastChange = "2016-07-11 09:53:09 +0000";
layers = (
{
layerId = "661C2B86-736D-4514-95EC-07E90A3E9BAC";
paths = (
{
closed = 1;
nodes = (
"255 523 CURVE SMOOTH",
"255 541 OFFCURVE",
"252 557 OFFCURVE",
"236 557 CURVE SMOOTH",
"212 557 OFFCURVE",
"205 543 OFFCURVE",
"198 524 CURVE SMOOTH",
"165 443 OFFCURVE",
"149 376 OFFCURVE",
"136 279 CURVE",
"172 346 OFFCURVE",
"215 416 OFFCURVE",
"245 485 CURVE SMOOTH",
"252 501 OFFCURVE",
"255 514 OFFCURVE"
);
},
{
closed = 1;
nodes = (
"121 -130 CURVE SMOOTH",
"156 -130 OFFCURVE",
"156 -60 OFFCURVE",
"156 -22 CURVE SMOOTH",
"156 -19 LINE SMOOTH",
"156 37 OFFCURVE",
"144 103 OFFCURVE",
"123 142 CURVE SMOOTH",
"120 148 OFFCURVE",
"117 151 OFFCURVE",
"115 151 CURVE SMOOTH",
"105 151 OFFCURVE",
"100 38 OFFCURVE",
"100 20 CURVE SMOOTH",
"100 11 OFFCURVE",
"100 -2 OFFCURVE",
"100 -16 CURVE SMOOTH",
"100 -64 OFFCURVE",
"103 -130 OFFCURVE"
);
},
{
closed = 1;
nodes = (
"451 473 CURVE SMOOTH",
"451 484 OFFCURVE",
"448 491 OFFCURVE",
"439 491 CURVE SMOOTH",
"400 491 OFFCURVE",
"366 314 OFFCURVE",
"359 258 CURVE",
"362 263 OFFCURVE",
"451 420 OFFCURVE"
);
},
{
closed = 1;
nodes = (
"390 83 CURVE SMOOTH",
"418 83 OFFCURVE",
"443 104 OFFCURVE",
"461 116 CURVE SMOOTH",
"475 126 OFFCURVE",
"490 137 OFFCURVE",
"506 149 CURVE",
"534 78 LINE",
"492 47 OFFCURVE",
"449 17 OFFCURVE",
"392 3 CURVE SMOOTH",
"383 1 OFFCURVE",
"375 0 OFFCURVE",
"367 0 CURVE SMOOTH",
"308 0 OFFCURVE",
"288 97 OFFCURVE",
"282 152 CURVE",
"252 143 OFFCURVE",
"219 137 OFFCURVE",
"183 136 CURVE",
"204 97 OFFCURVE",
"228 49 OFFCURVE",
"228 -10 CURVE SMOOTH",
"228 -91 OFFCURVE",
"195 -206 OFFCURVE",
"114 -206 CURVE SMOOTH",
"34 -206 OFFCURVE",
"23 -94 OFFCURVE",
"23 -13 CURVE SMOOTH",
"23 169 OFFCURVE",
"56 360 OFFCURVE",
"110 497 CURVE SMOOTH",
"133 555 OFFCURVE",
"170 634 OFFCURVE",
"245 634 CURVE SMOOTH",
"291 634 OFFCURVE",
"318 602 OFFCURVE",
"318 555 CURVE SMOOTH",
"318 493 OFFCURVE",
"289 438 OFFCURVE",
"267 391 CURVE SMOOTH",
"235 325 OFFCURVE",
"195 261 OFFCURVE",
"152 206 CURVE",
"151 201 LINE",
"160 201 LINE SMOOTH",
"194 201 OFFCURVE",
"251 206 OFFCURVE",
"280 219 CURVE",
"287 332 OFFCURVE",
"349 578 OFFCURVE",
"468 578 CURVE SMOOTH",
"508 578 OFFCURVE",
"517 540 OFFCURVE",
"517 500 CURVE SMOOTH",
"517 375 OFFCURVE",
"427 252 OFFCURVE",
"365 186 CURVE",
"365 153 OFFCURVE",
"372 83 OFFCURVE"
);
}
);
width = 430;
}
);
unicode = FB02;
userData = {
com.fontlab.hintData = {
hhints = (
{
position = -604;
width = 225;
},
{
position = 0;
width = 244;
},
{
position = 397;
width = 190;
},
{
position = 1436;
width = 254;
},
{
position = 1631;
width = 225;
}
);
vhints = (
{
position = 68;
width = 225;
},
{
position = 457;
width = 209;
},
{
position = 747;
width = 182;
},
{
position = 1320;
width = 194;
}
);
};
};
},
{
glyphname = i_t;
lastChange = "2016-07-11 09:53:09 +0000";
layers = (
{
layerId = "661C2B86-736D-4514-95EC-07E90A3E9BAC";
paths = (
{
closed = 1;
nodes = (
"145 382 CURVE SMOOTH",
"104 382 OFFCURVE",
"79 400 OFFCURVE",
"79 434 CURVE SMOOTH",
"79 470 OFFCURVE",
"111 492 OFFCURVE",
"153 492 CURVE SMOOTH",
"180 492 OFFCURVE",
"201 477 OFFCURVE",
"201 444 CURVE SMOOTH",
"201 405 OFFCURVE",
"178 382 OFFCURVE"
);
},
{
closed = 1;
nodes = (
"446 367 CURVE SMOOTH",
"492 367 OFFCURVE",
"510 369 OFFCURVE",
"510 333 CURVE SMOOTH",
"510 325 OFFCURVE",
"501 317 OFFCURVE",
"488 317 CURVE SMOOTH",
"357 317 LINE",
"345 297 OFFCURVE",
"331 274 OFFCURVE",
"319 256 CURVE",
"316 219 OFFCURVE",
"314 182 OFFCURVE",
"314 144 CURVE SMOOTH",
"314 104 OFFCURVE",
"326 77 OFFCURVE",
"364 77 CURVE SMOOTH",
"422 77 OFFCURVE",
"481 132 OFFCURVE",
"510 164 CURVE",
"510 77 LINE",
"482 41 OFFCURVE",
"408 0 OFFCURVE",
"342 0 CURVE SMOOTH",
"292 0 OFFCURVE",
"262 32 OFFCURVE",
"245 76 CURVE",
"211 42 OFFCURVE",
"154 0 OFFCURVE",
"94 0 CURVE SMOOTH",
"49 0 OFFCURVE",
"30 24 OFFCURVE",
"30 69 CURVE SMOOTH",
"30 150 OFFCURVE",
"59 226 OFFCURVE",
"77 295 CURVE SMOOTH",
"82 317 OFFCURVE",
"112 328 OFFCURVE",
"139 328 CURVE SMOOTH",
"155 328 OFFCURVE",
"163 321 OFFCURVE",
"163 302 CURVE SMOOTH",
"163 275 OFFCURVE",
"118 173 OFFCURVE",
"118 99 CURVE SMOOTH",
"118 82 OFFCURVE",
"119 66 OFFCURVE",
"135 66 CURVE SMOOTH",
"172 66 OFFCURVE",
"208 94 OFFCURVE",
"232 119 CURVE",
"231 129 OFFCURVE",
"231 139 OFFCURVE",
"231 150 CURVE SMOOTH",
"231 202 OFFCURVE",
"237 265 OFFCURVE",
"243 317 CURVE",
"212 317 LINE",
"197 320 OFFCURVE",
"190 329 OFFCURVE",
"190 351 CURVE SMOOTH",
"190 366 OFFCURVE",
"202 369 OFFCURVE",
"216 369 CURVE SMOOTH",
"226 369 OFFCURVE",
"236 367 OFFCURVE",
"244 367 CURVE SMOOTH",
"247 367 OFFCURVE",
"251 368 OFFCURVE",
"253 368 CURVE",
"269 452 OFFCURVE",
"297 543 OFFCURVE",
"347 592 CURVE SMOOTH",
"361 606 OFFCURVE",
"375 613 OFFCURVE",
"390 613 CURVE SMOOTH",
"436 613 OFFCURVE",
"456 560 OFFCURVE",
"456 512 CURVE SMOOTH",
"456 453 OFFCURVE",
"421 406 OFFCURVE",
"395 367 CURVE",
"399 367 OFFCURVE",
"404 367 OFFCURVE",
"410 367 CURVE SMOOTH",
"420 367 OFFCURVE",
"433 367 OFFCURVE"
);
},
{
closed = 1;
nodes = (
"339 367 CURVE",
"360 403 OFFCURVE",
"401 458 OFFCURVE",
"401 509 CURVE SMOOTH",
"401 524 OFFCURVE",
"398 536 OFFCURVE",
"383 536 CURVE SMOOTH",
"346 536 OFFCURVE",
"326 403 OFFCURVE",
"318 369 CURVE",
"325 368 OFFCURVE",
"332 368 OFFCURVE"
);
}
);
width = 416;
}
);
userData = {
com.fontlab.hintData = {
hhints = (
{
position = 0;
width = 224;
},
{
position = 0;
width = 192;
},
{
position = 928;
width = 147;
},
{
position = 940;
width = 20;
},
{
position = 1119;
width = 319;
},
{
position = 1568;
width = 224;
}
);
vhints = (
{
position = 88;
width = 256;
},
{
position = 231;
width = 356;
},
{
position = 677;
width = 242;
},
{
position = 1173;
width = 160;
}
);
};
};
},
{
glyphname = i_t_t;
lastChange = "2016-07-11 09:53:09 +0000";
layers = (
{
layerId = "661C2B86-736D-4514-95EC-07E90A3E9BAC";
paths = (
{
closed = 1;
nodes = (
"142 386 CURVE SMOOTH",
"105 386 OFFCURVE",
"83 403 OFFCURVE",
"83 438 CURVE SMOOTH",
"83 473 OFFCURVE",
"112 495 OFFCURVE",
"150 495 CURVE SMOOTH",
"184 495 OFFCURVE",
"208 481 OFFCURVE",
"208 447 CURVE SMOOTH",
"208 408 OFFCURVE",
"181 386 OFFCURVE"
);
},
{
closed = 1;
nodes = (
"583 144 CURVE SMOOTH",
"583 104 OFFCURVE",
"595 77 OFFCURVE",
"633 77 CURVE SMOOTH",
"690 77 OFFCURVE",
"750 132 OFFCURVE",
"779 164 CURVE",
"779 77 LINE",
"739 46 OFFCURVE",
"695 18 OFFCURVE",
"642 5 CURVE SMOOTH",
"630 2 OFFCURVE",
"620 0 OFFCURVE",
"611 0 CURVE SMOOTH",
"539 0 OFFCURVE",
"518 83 OFFCURVE",
"510 150 CURVE",
"481 93 OFFCURVE",
"441 36 OFFCURVE",
"387 9 CURVE SMOOTH",
"375 3 OFFCURVE",
"366 0 OFFCURVE",
"358 0 CURVE SMOOTH",
"313 0 OFFCURVE",
"287 33 OFFCURVE",
"273 79 CURVE",
"233 44 OFFCURVE",
"167 0 OFFCURVE",
"96 0 CURVE SMOOTH",
"52 0 OFFCURVE",
"33 24 OFFCURVE",
"33 69 CURVE SMOOTH",
"33 150 OFFCURVE",
"61 226 OFFCURVE",
"77 295 CURVE SMOOTH",
"83 317 OFFCURVE",
"112 328 OFFCURVE",
"139 328 CURVE SMOOTH",
"156 328 OFFCURVE",
"164 323 OFFCURVE",
"164 309 CURVE SMOOTH",
"164 238 OFFCURVE",
"120 176 OFFCURVE",
"120 99 CURVE SMOOTH",
"120 82 OFFCURVE",
"122 66 OFFCURVE",
"138 66 CURVE SMOOTH",
"185 66 OFFCURVE",
"232 108 OFFCURVE",
"261 139 CURVE",
"257 169 OFFCURVE",
"256 199 OFFCURVE",
"256 227 CURVE SMOOTH",
"256 255 OFFCURVE",
"259 285 OFFCURVE",
"263 310 CURVE",
"258 311 OFFCURVE",
"253 311 OFFCURVE",
"248 311 CURVE SMOOTH",
"241 311 LINE SMOOTH",
"222 311 OFFCURVE",
"203 313 OFFCURVE",
"203 351 CURVE SMOOTH",
"203 369 OFFCURVE",
"216 370 OFFCURVE",
"236 370 CURVE SMOOTH",
"247 370 OFFCURVE",
"259 368 OFFCURVE",
"272 368 CURVE",
"288 452 OFFCURVE",
"317 543 OFFCURVE",
"366 592 CURVE",
"378 606 OFFCURVE",
"392 613 OFFCURVE",
"406 613 CURVE SMOOTH",
"457 613 OFFCURVE",
"478 565 OFFCURVE",
"478 523 CURVE SMOOTH",
"478 457 OFFCURVE",
"440 404 OFFCURVE",
"411 361 CURVE",
"443 357 OFFCURVE",
"485 358 OFFCURVE",
"519 358 CURVE",
"537 448 OFFCURVE",
"567 558 OFFCURVE",
"631 603 CURVE SMOOTH",
"640 609 OFFCURVE",
"650 613 OFFCURVE",
"659 613 CURVE SMOOTH",
"705 613 OFFCURVE",
"724 560 OFFCURVE",
"724 512 CURVE SMOOTH",
"724 450 OFFCURVE",
"689 401 OFFCURVE",
"664 361 CURVE",
"682 359 OFFCURVE",
"738 363 OFFCURVE",
"745 349 CURVE SMOOTH",
"747 345 OFFCURVE",
"748 340 OFFCURVE",
"748 333 CURVE SMOOTH",
"748 320 OFFCURVE",
"739 306 OFFCURVE",
"726 306 CURVE SMOOTH",
"626 306 LINE",
"614 290 OFFCURVE",
"600 271 OFFCURVE",
"587 256 CURVE",
"585 219 OFFCURVE",
"583 182 OFFCURVE"
);
},
{
closed = 1;
nodes = (
"330 161 CURVE SMOOTH",
"330 122 OFFCURVE",
"336 76 OFFCURVE",
"374 76 CURVE SMOOTH",
"377 76 LINE SMOOTH",
"400 76 OFFCURVE",
"422 106 OFFCURVE",
"436 123 CURVE SMOOTH",
"461 153 OFFCURVE",
"486 192 OFFCURVE",
"506 229 CURVE",
"506 256 OFFCURVE",
"508 282 OFFCURVE",
"511 306 CURVE",
"380 306 LINE",
"350 265 OFFCURVE",
"330 234 OFFCURVE"
);
},
{
closed = 1;
nodes = (
"670 509 CURVE SMOOTH",
"670 524 OFFCURVE",
"666 536 OFFCURVE",
"651 536 CURVE SMOOTH",
"611 536 OFFCURVE",
"591 392 OFFCURVE",
"583 359 CURVE",
"604 360 LINE",
"626 395 OFFCURVE",
"649 438 OFFCURVE",
"663 480 CURVE SMOOTH",
"668 492 OFFCURVE",
"670 502 OFFCURVE"
);
},
{
closed = 1;
nodes = (
"340 367 CURVE SMOOTH",
"354 367 LINE SMOOTH",
"355 367 OFFCURVE",
"357 367 OFFCURVE",
"358 367 CURVE",
"377 401 OFFCURVE",
"398 441 OFFCURVE",
"411 481 CURVE SMOOTH",
"415 493 OFFCURVE",
"417 502 OFFCURVE",
"417 509 CURVE SMOOTH",
"417 524 OFFCURVE",
"413 536 OFFCURVE",
"399 536 CURVE SMOOTH",
"363 536 OFFCURVE",
"344 399 OFFCURVE",
"337 367 CURVE",
"338 367 OFFCURVE",
"339 367 OFFCURVE"
);
}
);
width = 720;
}
);
userData = {
com.fontlab.hintData = {
hhints = (
{
position = 0;
width = 224;
},
{
position = 0;
width = 192;
},
{
position = 896;
width = 150;
},
{
position = 911;
width = 172;
},
{
position = 940;
width = 20;
},
{
position = 1129;
width = 319;
},
{
position = 1568;
width = 224;
}
);
vhints = (
{
position = 96;
width = 256;
},
{
position = 243;
width = 366;
},
{
position = 749;
width = 217;
},
{
position = 1219;
width = 180;
},
{
position = 1479;
width = 226;
},
{
position = 1518;
width = 189;
},
{
position = 1959;
width = 160;
}
);
};
};
},
{
glyphname = i_x;
lastChange = "2016-07-11 09:53:09 +0000";
layers = (
{
layerId = "661C2B86-736D-4514-95EC-07E90A3E9BAC";
paths = (
{
closed = 1;
nodes = (
"181 98 CURVE SMOOTH",
"198 98 OFFCURVE",
"206 81 OFFCURVE",
"217 81 CURVE SMOOTH",
"232 81 OFFCURVE",
"266 127 OFFCURVE",
"277 147 CURVE",
"256 189 OFFCURVE",
"239 232 OFFCURVE",
"223 281 CURVE SMOOTH",
"222 282 OFFCURVE",
"222 283 OFFCURVE",
"222 284 CURVE SMOOTH",
"222 299 OFFCURVE",
"250 313 OFFCURVE",
"269 313 CURVE SMOOTH",
"306 313 OFFCURVE",
"322 235 OFFCURVE",
"336 203 CURVE",
"362 237 OFFCURVE",
"391 269 OFFCURVE",
"425 295 CURVE SMOOTH",
"433 302 OFFCURVE",
"442 306 OFFCURVE",
"454 306 CURVE SMOOTH",
"475 306 OFFCURVE",
"486 288 OFFCURVE",
"486 267 CURVE SMOOTH",
"486 250 OFFCURVE",
"479 237 OFFCURVE",
"468 230 CURVE SMOOTH",
"430 204 OFFCURVE",
"396 172 OFFCURVE",
"366 139 CURVE",
"377 122 OFFCURVE",
"401 76 OFFCURVE",
"429 76 CURVE SMOOTH",
"459 76 OFFCURVE",
"492 99 OFFCURVE",
"513 118 CURVE SMOOTH",
"519 123 OFFCURVE",
"525 125 OFFCURVE",
"529 125 CURVE SMOOTH",
"539 125 OFFCURVE",
"543 112 OFFCURVE",
"543 98 CURVE SMOOTH",
"543 84 OFFCURVE",
"539 69 OFFCURVE",
"535 66 CURVE",
"504 37 OFFCURVE",
"453 0 OFFCURVE",
"392 0 CURVE SMOOTH",
"357 0 OFFCURVE",
"329 47 OFFCURVE",
"310 80 CURVE",
"290 56 OFFCURVE",
"258 0 OFFCURVE",
"220 0 CURVE SMOOTH",
"198 0 OFFCURVE",
"183 10 OFFCURVE",
"174 25 CURVE",
"151 12 OFFCURVE",
"123 0 OFFCURVE",
"94 0 CURVE SMOOTH",
"49 0 OFFCURVE",
"30 24 OFFCURVE",
"30 69 CURVE SMOOTH",
"30 150 OFFCURVE",
"65 226 OFFCURVE",
"83 295 CURVE SMOOTH",
"89 317 OFFCURVE",
"112 328 OFFCURVE",
"134 328 CURVE SMOOTH",
"150 328 OFFCURVE",
"158 323 OFFCURVE",
"158 309 CURVE SMOOTH",
"158 238 OFFCURVE",
"112 176 OFFCURVE",
"112 99 CURVE SMOOTH",
"112 27 OFFCURVE",
"159 98 OFFCURVE"
);
},
{
closed = 1;
nodes = (
"153 372 CURVE SMOOTH",
"117 372 OFFCURVE",
"94 390 OFFCURVE",
"94 424 CURVE SMOOTH",
"94 460 OFFCURVE",
"124 481 OFFCURVE",
"161 481 CURVE SMOOTH",
"193 481 OFFCURVE",
"216 467 OFFCURVE",
"216 433 CURVE SMOOTH",
"216 395 OFFCURVE",
"191 372 OFFCURVE"
);
}
);
width = 491;
}
);
userData = {
com.fontlab.hintData = {
hhints = (
{
position = 0;
width = 236;
},
{
position = 896;
width = 64;
},
{
position = 1089;
width = 319;
}
);
vhints = (
{
position = 88;
width = 239;
},
{
position = 276;
width = 356;
}
);
};
};
},
{
glyphname = l_i;
lastChange = "2016-07-11 09:53:09 +0000";
layers = (
{
layerId = "661C2B86-736D-4514-95EC-07E90A3E9BAC";
paths = (
{
closed = 1;
nodes = (
"412 372 CURVE SMOOTH",
"375 372 OFFCURVE",
"353 390 OFFCURVE",
"353 424 CURVE SMOOTH",
"353 460 OFFCURVE",
"382 481 OFFCURVE",
"420 481 CURVE SMOOTH",
"453 481 OFFCURVE",
"478 467 OFFCURVE",
"478 433 CURVE SMOOTH",
"478 395 OFFCURVE",
"451 372 OFFCURVE"
);
},
{
closed = 1;
nodes = (
"110 158 CURVE SMOOTH",
"110 98 OFFCURVE",
"124 75 OFFCURVE",
"148 75 CURVE SMOOTH",
"184 75 OFFCURVE",
"241 131 OFFCURVE",
"299 198 CURVE",
"308 231 OFFCURVE",
"318 264 OFFCURVE",
"326 295 CURVE SMOOTH",
"331 317 OFFCURVE",
"361 328 OFFCURVE",
"388 328 CURVE SMOOTH",
"404 328 OFFCURVE",
"413 323 OFFCURVE",
"413 309 CURVE SMOOTH",
"413 238 OFFCURVE",
"367 176 OFFCURVE",
"367 99 CURVE SMOOTH",
"367 82 OFFCURVE",
"368 66 OFFCURVE",
"384 66 CURVE SMOOTH",
"426 66 OFFCURVE",
"466 113 OFFCURVE",
"491 132 CURVE SMOOTH",
"497 137 OFFCURVE",
"500 139 OFFCURVE",
"504 139 CURVE SMOOTH",
"514 139 OFFCURVE",
"516 121 OFFCURVE",
"516 107 CURVE SMOOTH",
"516 98 OFFCURVE",
"515 90 OFFCURVE",
"515 90 CURVE",
"477 51 OFFCURVE",
"413 0 OFFCURVE",
"343 0 CURVE SMOOTH",
"298 0 OFFCURVE",
"279 24 OFFCURVE",
"279 69 CURVE SMOOTH",
"279 79 OFFCURVE",
"280 89 OFFCURVE",
"281 99 CURVE",
"229 44 OFFCURVE",
"176 0 OFFCURVE",
"110 0 CURVE SMOOTH",
"45 0 OFFCURVE",
"22 109 OFFCURVE",
"22 177 CURVE SMOOTH",
"22 341 OFFCURVE",
"66 504 OFFCURVE",
"145 597 CURVE SMOOTH",
"170 627 OFFCURVE",
"201 656 OFFCURVE",
"248 656 CURVE SMOOTH",
"288 656 OFFCURVE",
"298 619 OFFCURVE",
"298 579 CURVE SMOOTH",
"298 408 OFFCURVE",
"200 286 OFFCURVE",
"116 193 CURVE SMOOTH",
"111 187 OFFCURVE",
"110 170 OFFCURVE"
);
},
{
closed = 1;
nodes = (
"233 544 CURVE SMOOTH",
"233 554 OFFCURVE",
"230 561 OFFCURVE",
"223 561 CURVE SMOOTH",
"146 561 OFFCURVE",
"117 333 OFFCURVE",
"117 253 CURVE",
"159 326 OFFCURVE",
"201 409 OFFCURVE",
"225 499 CURVE SMOOTH",
"229 515 OFFCURVE",
"233 530 OFFCURVE"
);
}
);
width = 457;
}
);
userData = {
com.fontlab.hintData = {
hhints = (
{
position = 0;
width = 220;
},
{
position = 0;
width = 192;
},
{
position = 940;
width = 20;
},
{
position = 1089;
width = 319;
},
{
position = 1641;
width = 279;
}
);
vhints = (
{
position = 64;
width = 258;
},
{
position = 683;
width = 188;
},
{
position = 817;
width = 256;
},
{
position = 953;
width = 254;
},
{
position = 1032;
width = 366;
}
);
};
};
},
{
glyphname = l_k;
lastChange = "2016-07-11 09:53:09 +0000";
layers = (
{
layerId = "661C2B86-736D-4514-95EC-07E90A3E9BAC";
paths = (
{
closed = 1;
nodes = (
"461 575 CURVE SMOOTH",
"423 575 OFFCURVE",
"407 508 OFFCURVE",
"398 477 CURVE SMOOTH",
"375 405 OFFCURVE",
"366 320 OFFCURVE",
"360 234 CURVE",
"392 330 OFFCURVE",
"428 428 OFFCURVE",
"459 521 CURVE SMOOTH",
"463 534 OFFCURVE",
"469 549 OFFCURVE",
"469 564 CURVE SMOOTH",
"469 571 OFFCURVE",
"466 575 OFFCURVE"
);
},
{
closed = 1;
nodes = (
"113 158 CURVE SMOOTH",
"113 136 OFFCURVE",
"116 83 OFFCURVE",
"135 83 CURVE SMOOTH",
"186 83 OFFCURVE",
"246 131 OFFCURVE",
"283 166 CURVE",
"289 324 OFFCURVE",
"314 479 OFFCURVE",
"375 580 CURVE SMOOTH",
"395 615 OFFCURVE",
"426 652 OFFCURVE",
"479 652 CURVE SMOOTH",
"524 652 OFFCURVE",
"537 621 OFFCURVE",
"537 576 CURVE SMOOTH",
"537 451 OFFCURVE",
"474 340 OFFCURVE",
"427 257 CURVE",
"388 196 LINE",
"394 191 LINE",
"431 234 OFFCURVE",
"458 289 OFFCURVE",
"504 318 CURVE SMOOTH",
"516 325 OFFCURVE",
"529 329 OFFCURVE",
"544 329 CURVE SMOOTH",
"581 329 OFFCURVE",
"603 304 OFFCURVE",
"603 265 CURVE SMOOTH",
"603 202 OFFCURVE",
"538 153 OFFCURVE",
"514 109 CURVE SMOOTH",
"509 101 OFFCURVE",
"507 94 OFFCURVE",
"507 89 CURVE SMOOTH",
"507 72 OFFCURVE",
"515 66 OFFCURVE",
"531 66 CURVE SMOOTH",
"582 66 OFFCURVE",
"627 134 OFFCURVE",
"652 156 CURVE",
"649 79 LINE",
"613 41 OFFCURVE",
"578 0 OFFCURVE",
"503 0 CURVE SMOOTH",
"462 0 OFFCURVE",
"429 29 OFFCURVE",
"429 70 CURVE SMOOTH",
"429 133 OFFCURVE",
"477 174 OFFCURVE",
"502 218 CURVE SMOOTH",
"504 222 OFFCURVE",
"506 226 OFFCURVE",
"506 229 CURVE SMOOTH",
"506 235 OFFCURVE",
"501 237 OFFCURVE",
"494 237 CURVE SMOOTH",
"480 237 OFFCURVE",
"471 214 OFFCURVE",
"460 201 CURVE SMOOTH",
"434 166 LINE SMOOTH",
"403 125 OFFCURVE",
"374 -3 OFFCURVE",
"312 -3 CURVE SMOOTH",
"288 -3 OFFCURVE",
"282 37 OFFCURVE",
"281 71 CURVE",
"232 30 OFFCURVE",
"179 0 OFFCURVE",
"112 0 CURVE SMOOTH",
"48 0 OFFCURVE",
"25 109 OFFCURVE",
"25 177 CURVE SMOOTH",
"25 341 OFFCURVE",
"64 504 OFFCURVE",
"137 597 CURVE SMOOTH",
"161 628 OFFCURVE",
"193 656 OFFCURVE",
"241 656 CURVE SMOOTH",
"280 656 OFFCURVE",
"290 619 OFFCURVE",
"290 579 CURVE SMOOTH",
"290 458 OFFCURVE",
"233 358 OFFCURVE",
"183 281 CURVE SMOOTH",
"162 249 OFFCURVE",
"140 220 OFFCURVE",
"119 193 CURVE SMOOTH",
"114 187 OFFCURVE",
"113 170 OFFCURVE"
);
},
{
closed = 1;
nodes = (
"226 544 CURVE SMOOTH",
"226 554 OFFCURVE",
"223 561 OFFCURVE",
"215 561 CURVE SMOOTH",
"138 561 OFFCURVE",
"109 333 OFFCURVE",
"109 253 CURVE",
"151 326 OFFCURVE",
"193 409 OFFCURVE",
"217 499 CURVE SMOOTH",
"222 515 OFFCURVE",
"226 530 OFFCURVE"
);
}
);
width = 610;
}
);
userData = {
com.fontlab.hintData = {
hhints = (
{
position = -1;
width = 194;
},
{
position = 0;
width = 244;
},
{
position = 694;
width = 268;
},
{
position = 1641;
width = 279;
},
{
position = 1682;
width = 225;
}
);
vhints = (
{
position = 72;
width = 258;
},
{
position = 661;
width = 188;
},
{
position = 1254;
width = 229;
},
{
position = 1371;
width = 201;
},
{
position = 1479;
width = 284;
}
);
};
};
},
{
glyphname = l_l;
lastChange = "2016-07-11 09:53:09 +0000";
layers = (
{
layerId = "661C2B86-736D-4514-95EC-07E90A3E9BAC";
paths = (
{
closed = 1;
nodes = (
"472 510 CURVE SMOOTH",
"472 520 OFFCURVE",
"469 527 OFFCURVE",
"461 527 CURVE SMOOTH",
"392 527 OFFCURVE",
"367 317 OFFCURVE",
"367 243 CURVE",
"404 309 OFFCURVE",
"442 384 OFFCURVE",
"463 465 CURVE SMOOTH",
"468 481 OFFCURVE",
"472 496 OFFCURVE"
);
},
{
closed = 1;
nodes = (
"134 -1 CURVE SMOOTH",
"62 -1 OFFCURVE",
"38 109 OFFCURVE",
"38 177 CURVE SMOOTH",
"38 353 OFFCURVE",
"115 656 OFFCURVE",
"261 656 CURVE SMOOTH",
"300 656 OFFCURVE",
"310 619 OFFCURVE",
"310 579 CURVE SMOOTH",
"310 412 OFFCURVE",
"213 285 OFFCURVE",
"132 193 CURVE SMOOTH",
"126 187 OFFCURVE",
"126 170 OFFCURVE",
"126 158 CURVE SMOOTH",
"126 131 OFFCURVE",
"129 71 OFFCURVE",
"157 71 CURVE SMOOTH",
"165 71 OFFCURVE",
"226 117 OFFCURVE",
"278 177 CURVE",
"278 347 OFFCURVE",
"334 622 OFFCURVE",
"487 622 CURVE SMOOTH",
"526 622 OFFCURVE",
"536 584 OFFCURVE",
"536 545 CURVE SMOOTH",
"536 387 OFFCURVE",
"442 267 OFFCURVE",
"366 176 CURVE",
"366 158 LINE",
"366 129 OFFCURVE",
"368 76 OFFCURVE",
"398 76 CURVE SMOOTH",
"433 76 OFFCURVE",
"481 119 OFFCURVE",
"504 143 CURVE SMOOTH",
"513 151 OFFCURVE",
"520 154 OFFCURVE",
"525 154 CURVE SMOOTH",
"537 154 OFFCURVE",
"540 139 OFFCURVE",
"540 123 CURVE SMOOTH",
"540 102 OFFCURVE",
"536 80 OFFCURVE",
"533 78 CURVE SMOOTH",
"489 46 OFFCURVE",
"434 0 OFFCURVE",
"365 0 CURVE SMOOTH",
"324 0 OFFCURVE",
"301 54 OFFCURVE",
"290 112 CURVE",
"247 55 OFFCURVE",
"183 -1 OFFCURVE"
);
},
{
closed = 1;
nodes = (
"249 541 CURVE SMOOTH",
"249 550 OFFCURVE",
"246 557 OFFCURVE",
"239 557 CURVE SMOOTH",
"159 557 OFFCURVE",
"129 332 OFFCURVE",
"129 253 CURVE",
"172 325 OFFCURVE",
"216 407 OFFCURVE",
"241 496 CURVE SMOOTH",
"245 512 OFFCURVE",
"249 527 OFFCURVE"
);
}
);
width = 423;
}
);
userData = {
com.fontlab.hintData = {
hhints = (
{
position = -2;
width = 211;
},
{
position = 1541;
width = 279;
},
{
position = 1631;
width = 289;
}
);
vhints = (
{
position = 110;
width = 258;
},
{
position = 729;
width = 178;
},
{
position = 812;
width = 261;
},
{
position = 1381;
width = 188;
}
);
};
};
},
{
glyphname = l_t;
lastChange = "2016-07-11 09:53:09 +0000";
layers = (
{
layerId = "661C2B86-736D-4514-95EC-07E90A3E9BAC";
paths = (
{
closed = 1;
nodes = (
"113 158 CURVE SMOOTH",
"113 134 OFFCURVE",
"116 77 OFFCURVE",
"135 77 CURVE SMOOTH",
"189 77 OFFCURVE",
"239 172 OFFCURVE",
"275 233 CURVE",
"279 254 OFFCURVE",
"286 300 OFFCURVE",
"288 315 CURVE",
"257 315 OFFCURVE",
"238 331 OFFCURVE",
"238 348 CURVE SMOOTH",
"238 366 OFFCURVE",
"256 369 OFFCURVE",
"281 369 CURVE SMOOTH",
"298 369 LINE",
"314 453 OFFCURVE",
"342 543 OFFCURVE",
"391 592 CURVE SMOOTH",
"405 606 OFFCURVE",
"420 613 OFFCURVE",
"435 613 CURVE SMOOTH",
"481 613 OFFCURVE",
"500 560 OFFCURVE",
"500 512 CURVE SMOOTH",
"500 454 OFFCURVE",
"466 407 OFFCURVE",
"440 369 CURVE",
"444 369 OFFCURVE",
"449 369 OFFCURVE",
"455 369 CURVE SMOOTH",
"465 369 LINE SMOOTH",
"496 369 OFFCURVE",
"514 367 OFFCURVE",
"514 342 CURVE SMOOTH",
"514 328 OFFCURVE",
"505 315 OFFCURVE",
"492 315 CURVE SMOOTH",
"402 315 LINE",
"374 257 OFFCURVE",
"354 227 OFFCURVE",
"354 181 CURVE SMOOTH",
"354 106 OFFCURVE",
"376 70 OFFCURVE",
"414 70 CURVE SMOOTH",
"464 70 OFFCURVE",
"505 130 OFFCURVE",
"531 161 CURVE SMOOTH",
"534 164 OFFCURVE",
"537 165 OFFCURVE",
"541 165 CURVE SMOOTH",
"553 165 OFFCURVE",
"566 154 OFFCURVE",
"566 136 CURVE SMOOTH",
"566 130 OFFCURVE",
"564 121 OFFCURVE",
"558 113 CURVE SMOOTH",
"519 51 OFFCURVE",
"470 -3 OFFCURVE",
"407 -3 CURVE SMOOTH",
"323 -3 OFFCURVE",
"292 60 OFFCURVE",
"280 135 CURVE",
"235 67 OFFCURVE",
"177 0 OFFCURVE",
"112 0 CURVE SMOOTH",
"48 0 OFFCURVE",
"25 109 OFFCURVE",
"25 177 CURVE SMOOTH",
"25 341 OFFCURVE",
"64 504 OFFCURVE",
"137 597 CURVE SMOOTH",
"161 628 OFFCURVE",
"193 656 OFFCURVE",
"241 656 CURVE SMOOTH",
"280 656 OFFCURVE",
"290 619 OFFCURVE",
"290 579 CURVE SMOOTH",
"290 458 OFFCURVE",
"233 358 OFFCURVE",
"183 281 CURVE SMOOTH",
"162 249 OFFCURVE",
"140 220 OFFCURVE",
"119 193 CURVE SMOOTH",
"114 187 OFFCURVE",
"113 170 OFFCURVE"
);
},
{
closed = 1;
nodes = (
"226 544 CURVE SMOOTH",
"226 554 OFFCURVE",
"223 561 OFFCURVE",
"215 561 CURVE SMOOTH",
"138 561 OFFCURVE",
"109 333 OFFCURVE",
"109 253 CURVE",
"151 326 OFFCURVE",
"193 409 OFFCURVE",
"217 499 CURVE SMOOTH",
"222 515 OFFCURVE",
"226 530 OFFCURVE"
);
},
{
closed = 1;
nodes = (
"363 369 CURVE",
"370 369 OFFCURVE",
"377 369 OFFCURVE",
"384 369 CURVE",
"404 403 OFFCURVE",
"426 442 OFFCURVE",
"440 481 CURVE SMOOTH",
"444 493 OFFCURVE",
"446 502 OFFCURVE",
"446 509 CURVE SMOOTH",
"446 524 OFFCURVE",
"442 536 OFFCURVE",
"428 536 CURVE SMOOTH",
"391 536 OFFCURVE",
"371 403 OFFCURVE"
);
}
);
width = 472;
}
);
userData = {
com.fontlab.hintData = {
hhints = (
{
position = -9;
width = 213;
},
{
position = 0;
width = 224;
},
{
position = 922;
width = 158;
},
{
position = 1568;
width = 224;
},
{
position = 1641;
width = 279;
}
);
vhints = (
{
position = 72;
width = 258;
},
{
position = 661;
width = 188;
},
{
position = 871;
width = 191;
},
{
position = 1304;
width = 160;
}
);
};
};
},
{
glyphname = o_o;
lastChange = "2016-07-11 09:53:09 +0000";
layers = (
{
layerId = "661C2B86-736D-4514-95EC-07E90A3E9BAC";
paths = (
{
closed = 1;
nodes = (
"395 135 CURVE SMOOTH",
"395 98 OFFCURVE",
"408 66 OFFCURVE",
"445 66 CURVE SMOOTH",
"485 66 OFFCURVE",
"505 145 OFFCURVE",
"505 188 CURVE SMOOTH",
"505 222 OFFCURVE",
"498 263 OFFCURVE",
"465 263 CURVE SMOOTH",
"419 263 OFFCURVE",
"395 184 OFFCURVE"
);
},
{
closed = 1;
nodes = (
"676 121 CURVE SMOOTH",
"676 107 OFFCURVE",
"668 102 OFFCURVE",
"654 102 CURVE SMOOTH",
"643 102 OFFCURVE",
"631 108 OFFCURVE",
"627 121 CURVE SMOOTH",
"605 197 OFFCURVE",
"569 239 OFFCURVE",
"551 256 CURVE",
"562 233 OFFCURVE",
"570 203 OFFCURVE",
"570 172 CURVE SMOOTH",
"570 84 OFFCURVE",
"519 0 OFFCURVE",
"432 0 CURVE SMOOTH",
"356 0 OFFCURVE",
"323 74 OFFCURVE",
"322 158 CURVE",
"308 146 OFFCURVE",
"293 138 OFFCURVE",
"276 138 CURVE SMOOTH",
"272 138 OFFCURVE",
"270 139 OFFCURVE",
"268 140 CURVE",
"255 81 OFFCURVE",
"227 0 OFFCURVE",
"139 0 CURVE SMOOTH",
"60 0 OFFCURVE",
"26 70 OFFCURVE",
"26 149 CURVE SMOOTH",
"26 253 OFFCURVE",
"86 328 OFFCURVE",
"190 328 CURVE SMOOTH",
"252 328 OFFCURVE",
"286 276 OFFCURVE",
"286 211 CURVE SMOOTH",
"286 207 OFFCURVE",
"287 206 OFFCURVE",
"291 206 CURVE SMOOTH",
"310 206 OFFCURVE",
"323 217 OFFCURVE",
"335 234 CURVE",
"359 292 OFFCURVE",
"410 328 OFFCURVE",
"482 328 CURVE SMOOTH",
"568 328 OFFCURVE",
"625 268 OFFCURVE",
"657 187 CURVE",
"661 175 OFFCURVE",
"676 142 OFFCURVE"
);
},
{
closed = 1;
nodes = (
"93 152 CURVE SMOOTH",
"93 107 OFFCURVE",
"107 66 OFFCURVE",
"152 66 CURVE SMOOTH",
"189 66 OFFCURVE",
"211 116 OFFCURVE",
"211 150 CURVE",
"189 164 OFFCURVE",
"157 184 OFFCURVE",
"157 219 CURVE SMOOTH",
"157 234 OFFCURVE",
"167 247 OFFCURVE",
"174 255 CURVE SMOOTH",
"176 257 OFFCURVE",
"177 259 OFFCURVE",
"177 260 CURVE SMOOTH",
"177 262 OFFCURVE",
"176 263 OFFCURVE",
"172 263 CURVE SMOOTH",
"124 263 OFFCURVE",
"93 201 OFFCURVE"
);
}
);
width = 577;
}
);
userData = {
com.fontlab.hintData = {
hhints = (
{
position = 0;
width = 192;
},
{
position = 405;
width = 197;
},
{
position = 768;
width = 192;
}
);
vhints = (
{
position = 77;
width = 194;
},
{
position = 943;
width = 214;
},
{
position = 1477;
width = 192;
},
{
position = 1834;
width = 144;
}
);
};
};
},
{
glyphname = o_o_s;
lastChange = "2016-07-11 09:53:09 +0000";
layers = (
{
layerId = "661C2B86-736D-4514-95EC-07E90A3E9BAC";
paths = (
{
closed = 1;
nodes = (
"99 135 CURVE SMOOTH",
"99 98 OFFCURVE",
"112 66 OFFCURVE",
"149 66 CURVE SMOOTH",
"189 66 OFFCURVE",
"209 145 OFFCURVE",
"209 188 CURVE SMOOTH",
"209 222 OFFCURVE",
"202 263 OFFCURVE",
"169 263 CURVE SMOOTH",
"123 263 OFFCURVE",
"99 184 OFFCURVE"
);
},
{
closed = 1;
nodes = (
"369 209 CURVE SMOOTH",
"377 209 OFFCURVE",
"410 232 OFFCURVE",
"422 232 CURVE SMOOTH",
"427 232 OFFCURVE",
"433 223 OFFCURVE",
"433 208 CURVE SMOOTH",
"433 167 OFFCURVE",
"388 150 OFFCURVE",
"362 150 CURVE SMOOTH",
"320 150 OFFCURVE",
"305 207 OFFCURVE",
"261 236 CURVE",
"270 220 OFFCURVE",
"274 188 OFFCURVE",
"274 172 CURVE SMOOTH",
"274 84 OFFCURVE",
"223 0 OFFCURVE",
"136 0 CURVE SMOOTH",
"57 0 OFFCURVE",
"23 70 OFFCURVE",
"23 149 CURVE SMOOTH",
"23 253 OFFCURVE",
"85 328 OFFCURVE",
"193 328 CURVE SMOOTH",
"262 328 OFFCURVE",
"331 279 OFFCURVE",
"366 211 CURVE SMOOTH",
"366 210 OFFCURVE",
"367 209 OFFCURVE"
);
},
{
closed = 1;
nodes = (
"582 250 CURVE",
"660 257 OFFCURVE",
"673 329 OFFCURVE",
"728 329 CURVE SMOOTH",
"760 329 OFFCURVE",
"771 314 OFFCURVE",
"771 300 CURVE SMOOTH",
"771 283 OFFCURVE",
"731 261 OFFCURVE",
"699 248 CURVE",
"695 243 OFFCURVE",
"692 239 OFFCURVE",
"692 237 CURVE",
"696 230 OFFCURVE",
"714 213 OFFCURVE",
"733 191 CURVE",
"762 204 OFFCURVE",
"792 212 OFFCURVE",
"818 212 CURVE SMOOTH",
"845 212 OFFCURVE",
"863 186 OFFCURVE",
"890 162 CURVE",
"893 160 OFFCURVE",
"894 157 OFFCURVE",
"894 152 CURVE SMOOTH",
"894 142 OFFCURVE",
"886 127 OFFCURVE",
"880 127 CURVE SMOOTH",
"852 127 OFFCURVE",
"835 141 OFFCURVE",
"811 141 CURVE SMOOTH",
"797 141 OFFCURVE",
"781 140 OFFCURVE",
"764 138 CURVE",
"770 124 OFFCURVE",
"773 110 OFFCURVE",
"773 95 CURVE SMOOTH",
"773 39 OFFCURVE",
"737 -3 OFFCURVE",
"655 -3 CURVE SMOOTH",
"630 -3 OFFCURVE",
"598 13 OFFCURVE",
"598 51 CURVE SMOOTH",
"598 90 OFFCURVE",
"632 129 OFFCURVE",
"678 159 CURVE",
"665 179 OFFCURVE",
"651 198 OFFCURVE",
"638 213 CURVE",
"619 201 OFFCURVE",
"609 194 OFFCURVE",
"580 192 CURVE",
"572 74 OFFCURVE",
"523 0 OFFCURVE",
"446 0 CURVE SMOOTH",
"368 0 OFFCURVE",
"333 61 OFFCURVE",
"333 131 CURVE SMOOTH",
"333 223 OFFCURVE",
"390 328 OFFCURVE",
"489 328 CURVE SMOOTH",
"542 328 OFFCURVE",
"571 292 OFFCURVE"
);
},
{
closed = 1;
nodes = (
"470 263 CURVE SMOOTH",
"428 263 OFFCURVE",
"399 201 OFFCURVE",
"399 152 CURVE SMOOTH",
"399 107 OFFCURVE",
"414 66 OFFCURVE",
"459 66 CURVE SMOOTH",
"490 66 OFFCURVE",
"515 126 OFFCURVE",
"515 184 CURVE SMOOTH",
"515 208 OFFCURVE",
"515 263 OFFCURVE"
);
},
{
closed = 1;
nodes = (
"647 56 CURVE SMOOTH",
"647 53 OFFCURVE",
"655 52 OFFCURVE",
"658 52 CURVE SMOOTH",
"678 52 OFFCURVE",
"708 77 OFFCURVE",
"708 96 CURVE SMOOTH",
"708 104 OFFCURVE",
"706 113 OFFCURVE",
"702 121 CURVE",
"684 112 OFFCURVE",
"647 86 OFFCURVE"
);
}
);
width = 811;
}
);
userData = {
com.fontlab.hintData = {
hhints = (
{
position = -9;
width = 160;
},
{
position = 0;
width = 192;
},
{
position = 412;
width = 209;
},
{
position = 439;
width = 173;
},
{
position = 726;
width = 238;
},
{
position = 768;
width = 192;
}
);
vhints = (
{
position = 67;
width = 224;
},
{
position = 611;
width = 192;
},
{
position = 973;
width = 195;
},
{
position = 1506;
width = 191;
},
{
position = 1751;
width = 142;
},
{
position = 2071;
width = 192;
}
);
};
};
},
{
glyphname = o_s;
lastChange = "2016-07-11 09:53:09 +0000";
layers = (
{
layerId = "661C2B86-736D-4514-95EC-07E90A3E9BAC";
paths = (
{
closed = 1;
nodes = (
"89 152 CURVE SMOOTH",
"89 107 OFFCURVE",
"104 66 OFFCURVE",
"149 66 CURVE SMOOTH",
"186 66 OFFCURVE",
"209 120 OFFCURVE",
"209 158 CURVE",
"186 170 OFFCURVE",
"153 188 OFFCURVE",
"153 219 CURVE SMOOTH",
"153 234 OFFCURVE",
"163 247 OFFCURVE",
"171 255 CURVE SMOOTH",
"173 257 OFFCURVE",
"174 259 OFFCURVE",
"174 260 CURVE SMOOTH",
"174 262 OFFCURVE",
"172 263 OFFCURVE",
"169 263 CURVE SMOOTH",
"121 263 OFFCURVE",
"89 201 OFFCURVE"
);
},
{
closed = 1;
nodes = (
"386 207 CURVE",
"370 179 OFFCURVE",
"328 139 OFFCURVE",
"269 139 CURVE SMOOTH",
"266 139 OFFCURVE",
"263 140 OFFCURVE",
"261 141 CURVE",
"248 81 OFFCURVE",
"221 0 OFFCURVE",
"136 0 CURVE SMOOTH",
"57 0 OFFCURVE",
"23 70 OFFCURVE",
"23 149 CURVE SMOOTH",
"23 253 OFFCURVE",
"83 328 OFFCURVE",
"186 328 CURVE SMOOTH",
"249 328 OFFCURVE",
"282 276 OFFCURVE",
"282 211 CURVE SMOOTH",
"282 207 OFFCURVE",
"284 206 OFFCURVE",
"287 206 CURVE SMOOTH",
"337 206 OFFCURVE",
"366 260 OFFCURVE",
"391 295 CURVE SMOOTH",
"402 311 OFFCURVE",
"416 328 OFFCURVE",
"442 328 CURVE SMOOTH",
"475 328 OFFCURVE",
"486 316 OFFCURVE",
"486 300 CURVE SMOOTH",
"486 281 OFFCURVE",
"471 256 OFFCURVE",
"458 241 CURVE SMOOTH",
"454 236 OFFCURVE",
"452 232 OFFCURVE",
"451 230 CURVE",
"454 185 OFFCURVE",
"484 153 OFFCURVE",
"484 108 CURVE SMOOTH",
"484 98 OFFCURVE",
"483 88 OFFCURVE",
"480 77 CURVE",
"512 86 OFFCURVE",
"542 106 OFFCURVE",
"570 128 CURVE SMOOTH",
"583 138 OFFCURVE",
"591 142 OFFCURVE",
"596 142 CURVE SMOOTH",
"608 142 OFFCURVE",
"604 117 OFFCURVE",
"608 77 CURVE",
"558 35 OFFCURVE",
"476 -3 OFFCURVE",
"387 -3 CURVE SMOOTH",
"332 -3 OFFCURVE",
"296 18 OFFCURVE",
"288 65 CURVE",
"297 83 OFFCURVE",
"307 88 OFFCURVE",
"318 88 CURVE SMOOTH",
"335 88 OFFCURVE",
"346 55 OFFCURVE",
"369 55 CURVE SMOOTH",
"402 55 OFFCURVE",
"413 75 OFFCURVE",
"413 100 CURVE SMOOTH",
"413 137 OFFCURVE",
"397 181 OFFCURVE"
);
}
);
width = 534;
}
);
userData = {
com.fontlab.hintData = {
hhints = (
{
position = -9;
width = 169;
},
{
position = 0;
width = 192;
},
{
position = 407;
width = 195;
},
{
position = 768;
width = 192;
}
);
vhints = (
{
position = 67;
width = 194;
},
{
position = 1207;
width = 210;
}
);
};
};
},
{
glyphname = o_x;
lastChange = "2016-07-11 09:53:09 +0000";
layers = (
{
layerId = "661C2B86-736D-4514-95EC-07E90A3E9BAC";
paths = (
{
closed = 1;
nodes = (
"89 152 CURVE SMOOTH",
"89 107 OFFCURVE",
"104 66 OFFCURVE",
"149 66 CURVE SMOOTH",
"186 66 OFFCURVE",
"209 120 OFFCURVE",
"209 158 CURVE",
"186 170 OFFCURVE",
"153 188 OFFCURVE",
"153 219 CURVE SMOOTH",
"153 234 OFFCURVE",
"163 247 OFFCURVE",
"171 255 CURVE SMOOTH",
"173 257 OFFCURVE",
"174 259 OFFCURVE",
"174 260 CURVE SMOOTH",
"174 262 OFFCURVE",
"172 263 OFFCURVE",
"169 263 CURVE SMOOTH",
"121 263 OFFCURVE",
"89 201 OFFCURVE"
);
},
{
closed = 1;
nodes = (
"186 328 CURVE SMOOTH",
"249 328 OFFCURVE",
"282 276 OFFCURVE",
"282 211 CURVE SMOOTH",
"282 207 OFFCURVE",
"284 206 OFFCURVE",
"287 206 CURVE SMOOTH",
"328 206 OFFCURVE",
"355 283 OFFCURVE",
"377 302 CURVE SMOOTH",
"380 305 OFFCURVE",
"384 306 OFFCURVE",
"388 306 CURVE SMOOTH",
"411 306 OFFCURVE",
"414 283 OFFCURVE",
"425 261 CURVE SMOOTH",
"432 245 OFFCURVE",
"441 227 OFFCURVE",
"452 206 CURVE",
"476 238 OFFCURVE",
"504 270 OFFCURVE",
"537 295 CURVE SMOOTH",
"546 302 OFFCURVE",
"555 306 OFFCURVE",
"567 306 CURVE SMOOTH",
"588 306 OFFCURVE",
"599 288 OFFCURVE",
"599 267 CURVE SMOOTH",
"599 250 OFFCURVE",
"591 237 OFFCURVE",
"581 230 CURVE SMOOTH",
"544 203 OFFCURVE",
"514 168 OFFCURVE",
"485 132 CURVE",
"496 116 OFFCURVE",
"519 66 OFFCURVE",
"542 66 CURVE SMOOTH",
"591 66 OFFCURVE",
"646 126 OFFCURVE",
"668 155 CURVE",
"668 144 OFFCURVE",
"668 136 OFFCURVE",
"668 126 CURVE SMOOTH",
"668 116 OFFCURVE",
"669 107 OFFCURVE",
"669 97 CURVE",
"635 56 OFFCURVE",
"593 14 OFFCURVE",
"537 -5 CURVE SMOOTH",
"526 -9 OFFCURVE",
"515 -10 OFFCURVE",
"504 -10 CURVE SMOOTH",
"473 -10 OFFCURVE",
"450 50 OFFCURVE",
"437 73 CURVE",
"418 54 OFFCURVE",
"397 30 OFFCURVE",
"377 12 CURVE SMOOTH",
"371 7 OFFCURVE",
"366 3 OFFCURVE",
"362 1 CURVE",
"359 -5 OFFCURVE",
"354 -9 OFFCURVE",
"345 -9 CURVE SMOOTH",
"323 -9 OFFCURVE",
"299 11 OFFCURVE",
"299 32 CURVE SMOOTH",
"299 57 OFFCURVE",
"333 78 OFFCURVE",
"349 94 CURVE SMOOTH",
"363 108 OFFCURVE",
"381 129 OFFCURVE",
"390 147 CURVE",
"380 164 OFFCURVE",
"371 181 OFFCURVE",
"363 200 CURVE",
"347 175 OFFCURVE",
"306 139 OFFCURVE",
"269 139 CURVE SMOOTH",
"266 139 OFFCURVE",
"263 140 OFFCURVE",
"261 141 CURVE",
"248 81 OFFCURVE",
"221 0 OFFCURVE",
"136 0 CURVE SMOOTH",
"57 0 OFFCURVE",
"23 70 OFFCURVE",
"23 149 CURVE SMOOTH",
"23 253 OFFCURVE",
"83 328 OFFCURVE"
);
}
);
width = 603;
}
);
userData = {
com.fontlab.hintData = {
hhints = (
{
position = -30;
width = 223;
},
{
position = 0;
width = 192;
},
{
position = 407;
width = 195;
},
{
position = 768;
width = 192;
},
{
position = 876;
width = 20;
}
);
vhints = (
{
position = 67;
width = 194;
}
);
};
};
},
{
glyphname = p_t;
lastChange = "2016-07-11 09:53:09 +0000";
layers = (
{
layerId = "661C2B86-736D-4514-95EC-07E90A3E9BAC";
paths = (
{
closed = 1;
nodes = (
"400 259 CURVE",
"400 195 LINE",
"400 123 OFFCURVE",
"417 70 OFFCURVE",
"465 70 CURVE SMOOTH",
"521 70 OFFCURVE",
"566 133 OFFCURVE",
"596 164 CURVE SMOOTH",
"598 167 OFFCURVE",
"602 169 OFFCURVE",
"606 169 CURVE SMOOTH",
"617 169 OFFCURVE",
"631 157 OFFCURVE",
"631 140 CURVE SMOOTH",
"631 133 OFFCURVE",
"629 125 OFFCURVE",
"623 117 CURVE SMOOTH",
"580 53 OFFCURVE",
"527 -3 OFFCURVE",
"458 -3 CURVE SMOOTH",
"363 -3 OFFCURVE",
"333 76 OFFCURVE",
"325 162 CURVE",
"271 85 OFFCURVE",
"190 46 OFFCURVE",
"115 33 CURVE",
"115 9 LINE SMOOTH",
"115 -98 OFFCURVE",
"94 -199 OFFCURVE",
"41 -246 CURVE SMOOTH",
"26 -260 OFFCURVE",
"10 -266 OFFCURVE",
"-6 -266 CURVE SMOOTH",
"-63 -266 OFFCURVE",
"-73 -217 OFFCURVE",
"-73 -171 CURVE",
"-73 -68 OFFCURVE",
"-11 1 OFFCURVE",
"36 66 CURVE",
"36 158 OFFCURVE",
"57 328 OFFCURVE",
"170 328 CURVE SMOOTH",
"249 328 OFFCURVE",
"287 281 OFFCURVE",
"287 234 CURVE SMOOTH",
"287 203 OFFCURVE",
"273 173 OFFCURVE",
"251 144 CURVE",
"291 178 OFFCURVE",
"302 217 OFFCURVE",
"322 255 CURVE",
"323 275 OFFCURVE",
"326 297 OFFCURVE",
"329 315 CURVE",
"293 315 OFFCURVE",
"270 331 OFFCURVE",
"270 348 CURVE SMOOTH",
"270 366 OFFCURVE",
"289 369 OFFCURVE",
"314 369 CURVE SMOOTH",
"338 369 LINE",
"355 453 OFFCURVE",
"383 543 OFFCURVE",
"432 592 CURVE SMOOTH",
"446 606 OFFCURVE",
"460 613 OFFCURVE",
"476 613 CURVE SMOOTH",
"522 613 OFFCURVE",
"541 560 OFFCURVE",
"541 512 CURVE SMOOTH",
"541 454 OFFCURVE",
"506 407 OFFCURVE",
"481 369 CURVE",
"484 369 OFFCURVE",
"489 369 OFFCURVE",
"496 369 CURVE SMOOTH",
"547 369 LINE SMOOTH",
"578 369 OFFCURVE",
"596 367 OFFCURVE",
"596 342 CURVE SMOOTH",
"596 328 OFFCURVE",
"587 315 OFFCURVE",
"574 315 CURVE SMOOTH",
"443 315 LINE",
"431 300 OFFCURVE",
"416 280 OFFCURVE"
);
},
{
closed = 1;
nodes = (
"39 7 CURVE",
"16 -35 OFFCURVE",
"-8 -101 OFFCURVE",
"-8 -161 CURVE SMOOTH",
"-8 -171 OFFCURVE",
"-7 -188 OFFCURVE",
"10 -188 CURVE SMOOTH",
"38 -188 OFFCURVE",
"39 -117 OFFCURVE",
"39 -66 CURVE SMOOTH",
"39 -59 LINE SMOOTH",
"39 -38 OFFCURVE",
"39 -13 OFFCURVE"
);
},
{
closed = 1;
nodes = (
"115 95 CURVE",
"169 118 OFFCURVE",
"219 161 OFFCURVE",
"223 224 CURVE SMOOTH",
"223 226 OFFCURVE",
"223 227 OFFCURVE",
"223 228 CURVE SMOOTH",
"223 247 OFFCURVE",
"208 265 OFFCURVE",
"174 265 CURVE SMOOTH",
"117 265 OFFCURVE",
"115 157 OFFCURVE"
);
},
{
closed = 1;
nodes = (
"404 369 CURVE",
"411 369 OFFCURVE",
"417 369 OFFCURVE",
"425 369 CURVE",
"445 403 OFFCURVE",
"467 442 OFFCURVE",
"481 481 CURVE SMOOTH",
"484 493 OFFCURVE",
"486 502 OFFCURVE",
"486 509 CURVE SMOOTH",
"486 524 OFFCURVE",
"483 536 OFFCURVE",
"468 536 CURVE SMOOTH",
"432 536 OFFCURVE",
"411 403 OFFCURVE"
);
}
);
width = 514;
}
);
userData = {
com.fontlab.hintData = {
hhints = (
{
position = -778;
width = 228;
},
{
position = -9;
width = 213;
},
{
position = 774;
width = 186;
},
{
position = 922;
width = 158;
},
{
position = 1568;
width = 224;
}
);
vhints = (
{
position = -215;
width = 191;
},
{
position = 114;
width = 223;
},
{
position = 653;
width = 187;
},
{
position = 990;
width = 191;
},
{
position = 1423;
width = 160;
}
);
};
};
},
